G04 EAGLE Gerber RS-274X export*
G75*
%MOMM*%
%FSLAX34Y34*%
%LPD*%
%INSoldermask Top*%
%IPPOS*%
%AMOC8*
5,1,8,0,0,1.08239X$1,22.5*%
G01*
%ADD10P,1.759533X8X292.500000*%
%ADD11P,1.759533X8X202.500000*%
%ADD12P,1.759533X8X22.500000*%
%ADD13P,1.759533X8X112.500000*%
%ADD14C,1.625600*%
%ADD15C,2.082800*%
%ADD16C,1.712800*%


D10*
X328930Y421640D03*
X328930Y396240D03*
D11*
X184150Y115570D03*
X158750Y115570D03*
D12*
X322580Y215900D03*
X347980Y215900D03*
D10*
X393700Y477520D03*
X393700Y452120D03*
X127000Y478790D03*
X127000Y453390D03*
D13*
X361950Y356870D03*
X361950Y433070D03*
X162560Y350520D03*
X162560Y426720D03*
D10*
X391160Y431800D03*
X391160Y355600D03*
X129540Y429260D03*
X129540Y353060D03*
D14*
X208788Y419100D02*
X223012Y419100D01*
X223012Y393700D02*
X208788Y393700D01*
X208788Y368300D02*
X223012Y368300D01*
X223012Y342900D02*
X208788Y342900D01*
X208788Y317500D02*
X223012Y317500D01*
X223012Y292100D02*
X208788Y292100D01*
X208788Y266700D02*
X223012Y266700D01*
X223012Y241300D02*
X208788Y241300D01*
X208788Y215900D02*
X223012Y215900D01*
X223012Y190500D02*
X208788Y190500D01*
X208788Y165100D02*
X223012Y165100D01*
X223012Y139700D02*
X208788Y139700D01*
X208788Y114300D02*
X223012Y114300D01*
X223012Y88900D02*
X208788Y88900D01*
X284988Y88900D02*
X299212Y88900D01*
X299212Y114300D02*
X284988Y114300D01*
X284988Y139700D02*
X299212Y139700D01*
X299212Y165100D02*
X284988Y165100D01*
X284988Y190500D02*
X299212Y190500D01*
X299212Y215900D02*
X284988Y215900D01*
X284988Y241300D02*
X299212Y241300D01*
X299212Y266700D02*
X284988Y266700D01*
X284988Y292100D02*
X299212Y292100D01*
X299212Y317500D02*
X284988Y317500D01*
X284988Y342900D02*
X299212Y342900D01*
X299212Y368300D02*
X284988Y368300D01*
X284988Y393700D02*
X299212Y393700D01*
X299212Y419100D02*
X284988Y419100D01*
D15*
X402590Y100330D03*
X403860Y77470D03*
X469900Y368300D03*
X469900Y342900D03*
X469900Y317500D03*
X469900Y292100D03*
X469900Y266700D03*
X469900Y243840D03*
X469900Y218440D03*
X469900Y193040D03*
X469900Y167640D03*
X469900Y142240D03*
X26670Y241300D03*
X26670Y215900D03*
X26670Y190500D03*
X26670Y165100D03*
X26670Y139700D03*
X25400Y368300D03*
X25400Y342900D03*
X25400Y317500D03*
X25400Y292100D03*
X25400Y266700D03*
X22860Y78740D03*
X22860Y54610D03*
X22860Y29210D03*
X154940Y21590D03*
X154940Y46990D03*
D16*
X208680Y50790D03*
X233680Y50790D03*
X258680Y50790D03*
X258680Y17790D03*
X233680Y17790D03*
X208680Y17790D03*
D15*
X120650Y20320D03*
X120650Y45720D03*
X120650Y71120D03*
X120650Y96520D03*
X421640Y21590D03*
X396240Y21590D03*
X370840Y21590D03*
X345440Y21590D03*
X320040Y21590D03*
X294640Y21590D03*
X199390Y471170D03*
X224790Y471170D03*
X250190Y471170D03*
X275590Y471170D03*
X300990Y471170D03*
X450850Y96520D03*
X449580Y22860D03*
X450850Y46990D03*
X450850Y72390D03*
X426720Y464820D03*
X477520Y464820D03*
X71120Y464820D03*
X20320Y464820D03*
X166370Y480060D03*
M02*
