G04 EAGLE Gerber RS-274X export*
G75*
%MOMM*%
%FSLAX34Y34*%
%LPD*%
%INBottom Copper*%
%IPPOS*%
%AMOC8*
5,1,8,0,0,1.08239X$1,22.5*%
G01*
%ADD10P,1.539592X8X292.500000*%
%ADD11P,1.539592X8X202.500000*%
%ADD12P,1.539592X8X22.500000*%
%ADD13P,1.539592X8X112.500000*%
%ADD14C,1.422400*%
%ADD15C,1.879600*%
%ADD16C,1.509600*%
%ADD17C,0.858000*%
%ADD18C,0.609600*%
%ADD19C,1.016000*%
%ADD20C,0.406400*%
%ADD21C,0.152400*%

G36*
X495194Y4068D02*
X495194Y4068D01*
X495213Y4066D01*
X495315Y4088D01*
X495417Y4104D01*
X495434Y4114D01*
X495454Y4118D01*
X495543Y4171D01*
X495634Y4220D01*
X495648Y4234D01*
X495665Y4244D01*
X495732Y4323D01*
X495804Y4398D01*
X495812Y4416D01*
X495825Y4431D01*
X495864Y4527D01*
X495907Y4621D01*
X495909Y4641D01*
X495917Y4659D01*
X495935Y4826D01*
X495935Y495174D01*
X495932Y495194D01*
X495934Y495213D01*
X495912Y495315D01*
X495896Y495417D01*
X495886Y495434D01*
X495882Y495454D01*
X495829Y495543D01*
X495780Y495634D01*
X495766Y495648D01*
X495756Y495665D01*
X495677Y495732D01*
X495602Y495804D01*
X495584Y495812D01*
X495569Y495825D01*
X495473Y495864D01*
X495379Y495907D01*
X495359Y495909D01*
X495341Y495917D01*
X495174Y495935D01*
X371158Y495935D01*
X371087Y495924D01*
X371015Y495922D01*
X370967Y495904D01*
X370915Y495896D01*
X370852Y495862D01*
X370784Y495837D01*
X370744Y495805D01*
X370698Y495780D01*
X370648Y495728D01*
X370592Y495684D01*
X370564Y495640D01*
X370528Y495602D01*
X370498Y495537D01*
X370459Y495477D01*
X370447Y495426D01*
X370425Y495379D01*
X370417Y495308D01*
X370399Y495238D01*
X370403Y495186D01*
X370398Y495135D01*
X370413Y495064D01*
X370419Y494993D01*
X370439Y494945D01*
X370450Y494894D01*
X370487Y494833D01*
X370515Y494767D01*
X370560Y494711D01*
X370576Y494683D01*
X370594Y494668D01*
X370620Y494636D01*
X372843Y492413D01*
X374115Y489342D01*
X374115Y486018D01*
X372843Y482947D01*
X370493Y480597D01*
X367422Y479325D01*
X364098Y479325D01*
X362340Y480053D01*
X362227Y480080D01*
X362113Y480109D01*
X362107Y480108D01*
X362101Y480110D01*
X361984Y480099D01*
X361868Y480090D01*
X361862Y480087D01*
X361856Y480087D01*
X361748Y480039D01*
X361641Y479993D01*
X361636Y479989D01*
X361631Y479987D01*
X361617Y479974D01*
X361511Y479888D01*
X335250Y453628D01*
X335197Y453554D01*
X335137Y453484D01*
X335125Y453454D01*
X335106Y453428D01*
X335079Y453341D01*
X335045Y453256D01*
X335041Y453215D01*
X335034Y453193D01*
X335035Y453161D01*
X335027Y453089D01*
X335027Y431665D01*
X335041Y431575D01*
X335049Y431484D01*
X335061Y431454D01*
X335066Y431422D01*
X335109Y431341D01*
X335145Y431258D01*
X335171Y431225D01*
X335182Y431205D01*
X335205Y431183D01*
X335250Y431127D01*
X340107Y426270D01*
X340107Y417010D01*
X333560Y410463D01*
X324300Y410463D01*
X317753Y417010D01*
X317753Y423879D01*
X317739Y423969D01*
X317731Y424060D01*
X317719Y424090D01*
X317714Y424122D01*
X317671Y424203D01*
X317635Y424287D01*
X317609Y424319D01*
X317598Y424339D01*
X317575Y424362D01*
X317530Y424418D01*
X310118Y431830D01*
X310044Y431883D01*
X309974Y431943D01*
X309944Y431955D01*
X309918Y431974D01*
X309831Y432001D01*
X309746Y432035D01*
X309705Y432039D01*
X309683Y432046D01*
X309651Y432045D01*
X309579Y432053D01*
X299404Y432053D01*
X299314Y432039D01*
X299223Y432031D01*
X299193Y432019D01*
X299161Y432014D01*
X299081Y431971D01*
X298997Y431935D01*
X298965Y431909D01*
X298944Y431898D01*
X298922Y431875D01*
X298866Y431830D01*
X298612Y431576D01*
X298570Y431518D01*
X298520Y431466D01*
X298498Y431419D01*
X298468Y431377D01*
X298447Y431308D01*
X298417Y431243D01*
X298411Y431191D01*
X298396Y431141D01*
X298398Y431070D01*
X298390Y430999D01*
X298401Y430948D01*
X298402Y430896D01*
X298427Y430828D01*
X298442Y430758D01*
X298469Y430713D01*
X298487Y430665D01*
X298531Y430609D01*
X298568Y430547D01*
X298608Y430513D01*
X298640Y430473D01*
X298700Y430434D01*
X298755Y430387D01*
X298803Y430368D01*
X298847Y430340D01*
X298917Y430322D01*
X298983Y430295D01*
X299054Y430287D01*
X299086Y430279D01*
X299109Y430281D01*
X299150Y430277D01*
X301435Y430277D01*
X305543Y428575D01*
X308687Y425431D01*
X310389Y421323D01*
X310389Y416877D01*
X308687Y412769D01*
X305543Y409625D01*
X301435Y407923D01*
X282765Y407923D01*
X278657Y409625D01*
X275513Y412769D01*
X274261Y415790D01*
X274210Y415873D01*
X274164Y415959D01*
X274146Y415977D01*
X274132Y415999D01*
X274056Y416062D01*
X273986Y416129D01*
X273962Y416140D01*
X273942Y416156D01*
X273851Y416191D01*
X273763Y416232D01*
X273737Y416235D01*
X273713Y416244D01*
X273615Y416249D01*
X273519Y416259D01*
X273493Y416254D01*
X273467Y416255D01*
X273373Y416228D01*
X273278Y416207D01*
X273256Y416194D01*
X273231Y416186D01*
X273151Y416131D01*
X273067Y416081D01*
X273050Y416061D01*
X273029Y416046D01*
X272970Y415968D01*
X272907Y415894D01*
X272897Y415870D01*
X272882Y415849D01*
X272852Y415756D01*
X272815Y415666D01*
X272812Y415633D01*
X272806Y415615D01*
X272806Y415582D01*
X272797Y415499D01*
X272797Y371901D01*
X272812Y371805D01*
X272822Y371708D01*
X272832Y371684D01*
X272836Y371658D01*
X272882Y371572D01*
X272922Y371483D01*
X272939Y371464D01*
X272952Y371441D01*
X273022Y371374D01*
X273088Y371302D01*
X273111Y371289D01*
X273130Y371271D01*
X273218Y371230D01*
X273304Y371183D01*
X273329Y371179D01*
X273353Y371168D01*
X273450Y371157D01*
X273546Y371140D01*
X273572Y371144D01*
X273597Y371141D01*
X273693Y371161D01*
X273789Y371176D01*
X273812Y371187D01*
X273838Y371193D01*
X273921Y371243D01*
X274008Y371287D01*
X274027Y371306D01*
X274049Y371319D01*
X274112Y371393D01*
X274180Y371463D01*
X274196Y371491D01*
X274209Y371506D01*
X274221Y371537D01*
X274261Y371610D01*
X275513Y374631D01*
X278657Y377775D01*
X282765Y379477D01*
X301435Y379477D01*
X305543Y377775D01*
X308687Y374631D01*
X310389Y370523D01*
X310389Y366077D01*
X308687Y361969D01*
X305543Y358825D01*
X301435Y357123D01*
X282765Y357123D01*
X278657Y358825D01*
X275513Y361969D01*
X274261Y364990D01*
X274210Y365073D01*
X274164Y365159D01*
X274146Y365177D01*
X274132Y365199D01*
X274056Y365262D01*
X273986Y365329D01*
X273962Y365340D01*
X273942Y365356D01*
X273851Y365391D01*
X273763Y365432D01*
X273737Y365435D01*
X273713Y365444D01*
X273615Y365449D01*
X273519Y365459D01*
X273493Y365454D01*
X273467Y365455D01*
X273373Y365428D01*
X273278Y365407D01*
X273256Y365394D01*
X273231Y365386D01*
X273151Y365331D01*
X273067Y365281D01*
X273050Y365261D01*
X273029Y365246D01*
X272970Y365168D01*
X272907Y365094D01*
X272897Y365070D01*
X272882Y365049D01*
X272852Y364956D01*
X272815Y364866D01*
X272812Y364833D01*
X272806Y364815D01*
X272806Y364782D01*
X272797Y364699D01*
X272797Y354387D01*
X271869Y352146D01*
X233723Y314001D01*
X233685Y313948D01*
X233639Y313901D01*
X233599Y313828D01*
X233579Y313801D01*
X233574Y313783D01*
X233558Y313754D01*
X232487Y311169D01*
X229343Y308025D01*
X225235Y306323D01*
X206565Y306323D01*
X202729Y307912D01*
X202685Y307922D01*
X202643Y307942D01*
X202566Y307950D01*
X202490Y307968D01*
X202444Y307964D01*
X202399Y307969D01*
X202322Y307952D01*
X202245Y307945D01*
X202203Y307926D01*
X202158Y307917D01*
X202091Y307877D01*
X202020Y307845D01*
X201986Y307814D01*
X201947Y307790D01*
X201896Y307731D01*
X201839Y307679D01*
X201817Y307638D01*
X201787Y307604D01*
X201758Y307531D01*
X201721Y307463D01*
X201712Y307418D01*
X201695Y307375D01*
X201680Y307239D01*
X201677Y307221D01*
X201678Y307216D01*
X201677Y307209D01*
X201677Y302391D01*
X201684Y302346D01*
X201682Y302300D01*
X201704Y302225D01*
X201716Y302149D01*
X201738Y302108D01*
X201751Y302064D01*
X201795Y302000D01*
X201832Y301931D01*
X201865Y301900D01*
X201891Y301862D01*
X201953Y301815D01*
X202010Y301762D01*
X202052Y301742D01*
X202088Y301715D01*
X202162Y301691D01*
X202233Y301658D01*
X202279Y301653D01*
X202322Y301639D01*
X202400Y301640D01*
X202477Y301631D01*
X202522Y301641D01*
X202568Y301641D01*
X202700Y301679D01*
X202718Y301683D01*
X202722Y301686D01*
X202729Y301688D01*
X206565Y303277D01*
X225235Y303277D01*
X229343Y301575D01*
X232487Y298431D01*
X234189Y294323D01*
X234189Y289877D01*
X232487Y285769D01*
X229343Y282625D01*
X225235Y280923D01*
X206565Y280923D01*
X202729Y282512D01*
X202685Y282522D01*
X202643Y282542D01*
X202566Y282550D01*
X202490Y282568D01*
X202444Y282564D01*
X202399Y282569D01*
X202322Y282552D01*
X202245Y282545D01*
X202203Y282526D01*
X202158Y282517D01*
X202091Y282477D01*
X202020Y282445D01*
X201986Y282414D01*
X201947Y282390D01*
X201896Y282331D01*
X201839Y282279D01*
X201817Y282238D01*
X201787Y282204D01*
X201758Y282131D01*
X201721Y282063D01*
X201712Y282018D01*
X201695Y281975D01*
X201680Y281839D01*
X201677Y281821D01*
X201678Y281816D01*
X201677Y281809D01*
X201677Y276991D01*
X201684Y276946D01*
X201682Y276900D01*
X201704Y276825D01*
X201716Y276749D01*
X201738Y276708D01*
X201751Y276664D01*
X201795Y276600D01*
X201832Y276531D01*
X201865Y276500D01*
X201891Y276462D01*
X201953Y276415D01*
X202010Y276362D01*
X202052Y276342D01*
X202088Y276315D01*
X202162Y276291D01*
X202233Y276258D01*
X202279Y276253D01*
X202322Y276239D01*
X202400Y276240D01*
X202477Y276231D01*
X202522Y276241D01*
X202568Y276241D01*
X202700Y276279D01*
X202718Y276283D01*
X202722Y276286D01*
X202729Y276288D01*
X206565Y277877D01*
X225235Y277877D01*
X229343Y276175D01*
X232499Y273020D01*
X232573Y272967D01*
X232642Y272907D01*
X232672Y272895D01*
X232698Y272876D01*
X232785Y272849D01*
X232870Y272815D01*
X232911Y272811D01*
X232933Y272804D01*
X232966Y272805D01*
X233037Y272797D01*
X242513Y272797D01*
X244754Y271869D01*
X246469Y270154D01*
X247397Y267913D01*
X247397Y222950D01*
X247408Y222879D01*
X247410Y222807D01*
X247428Y222759D01*
X247436Y222707D01*
X247470Y222644D01*
X247495Y222576D01*
X247527Y222536D01*
X247552Y222490D01*
X247603Y222440D01*
X247648Y222384D01*
X247692Y222356D01*
X247730Y222320D01*
X247795Y222290D01*
X247855Y222251D01*
X247906Y222239D01*
X247953Y222217D01*
X248024Y222209D01*
X248094Y222191D01*
X248146Y222195D01*
X248197Y222190D01*
X248268Y222205D01*
X248339Y222211D01*
X248387Y222231D01*
X248438Y222242D01*
X248499Y222279D01*
X248565Y222307D01*
X248621Y222352D01*
X248649Y222368D01*
X248664Y222386D01*
X248696Y222412D01*
X249267Y222983D01*
X252338Y224255D01*
X255662Y224255D01*
X258733Y222983D01*
X261083Y220633D01*
X262355Y217562D01*
X262355Y216483D01*
X262369Y216393D01*
X262377Y216302D01*
X262389Y216272D01*
X262394Y216240D01*
X262437Y216159D01*
X262473Y216075D01*
X262499Y216043D01*
X262510Y216023D01*
X262533Y216000D01*
X262578Y215944D01*
X271869Y206654D01*
X272797Y204413D01*
X272797Y168701D01*
X272812Y168605D01*
X272822Y168508D01*
X272832Y168484D01*
X272836Y168458D01*
X272882Y168372D01*
X272922Y168283D01*
X272939Y168264D01*
X272952Y168241D01*
X273022Y168174D01*
X273088Y168102D01*
X273111Y168089D01*
X273130Y168071D01*
X273218Y168030D01*
X273304Y167983D01*
X273329Y167979D01*
X273353Y167968D01*
X273450Y167957D01*
X273546Y167940D01*
X273572Y167944D01*
X273597Y167941D01*
X273693Y167961D01*
X273789Y167976D01*
X273812Y167987D01*
X273838Y167993D01*
X273921Y168043D01*
X274008Y168087D01*
X274027Y168106D01*
X274049Y168119D01*
X274112Y168193D01*
X274180Y168263D01*
X274196Y168291D01*
X274209Y168306D01*
X274221Y168337D01*
X274261Y168410D01*
X275513Y171431D01*
X278657Y174575D01*
X282765Y176277D01*
X301435Y176277D01*
X305543Y174575D01*
X308687Y171431D01*
X310389Y167323D01*
X310389Y162877D01*
X308687Y158769D01*
X305543Y155625D01*
X301435Y153923D01*
X282765Y153923D01*
X278657Y155625D01*
X275513Y158769D01*
X274261Y161790D01*
X274210Y161873D01*
X274164Y161959D01*
X274145Y161977D01*
X274132Y161999D01*
X274057Y162062D01*
X273986Y162129D01*
X273962Y162140D01*
X273942Y162156D01*
X273851Y162191D01*
X273763Y162232D01*
X273737Y162235D01*
X273713Y162244D01*
X273615Y162249D01*
X273519Y162259D01*
X273493Y162254D01*
X273467Y162255D01*
X273373Y162228D01*
X273278Y162207D01*
X273256Y162194D01*
X273231Y162186D01*
X273151Y162131D01*
X273067Y162081D01*
X273050Y162061D01*
X273029Y162046D01*
X272970Y161968D01*
X272907Y161894D01*
X272897Y161870D01*
X272882Y161849D01*
X272852Y161756D01*
X272815Y161666D01*
X272812Y161633D01*
X272806Y161615D01*
X272806Y161582D01*
X272797Y161499D01*
X272797Y143301D01*
X272812Y143205D01*
X272822Y143108D01*
X272832Y143084D01*
X272836Y143058D01*
X272882Y142972D01*
X272922Y142883D01*
X272939Y142864D01*
X272952Y142841D01*
X273022Y142774D01*
X273088Y142702D01*
X273111Y142689D01*
X273130Y142671D01*
X273218Y142630D01*
X273304Y142583D01*
X273329Y142579D01*
X273353Y142568D01*
X273450Y142557D01*
X273546Y142540D01*
X273572Y142544D01*
X273597Y142541D01*
X273693Y142561D01*
X273789Y142576D01*
X273812Y142587D01*
X273838Y142593D01*
X273921Y142643D01*
X274008Y142687D01*
X274027Y142706D01*
X274049Y142719D01*
X274112Y142793D01*
X274180Y142863D01*
X274196Y142891D01*
X274209Y142906D01*
X274221Y142937D01*
X274261Y143010D01*
X275513Y146031D01*
X278657Y149175D01*
X282765Y150877D01*
X301435Y150877D01*
X305543Y149175D01*
X308687Y146031D01*
X310389Y141923D01*
X310389Y137477D01*
X308687Y133369D01*
X305543Y130225D01*
X301435Y128523D01*
X282765Y128523D01*
X278657Y130225D01*
X275513Y133369D01*
X274261Y136390D01*
X274210Y136473D01*
X274164Y136559D01*
X274145Y136577D01*
X274132Y136599D01*
X274057Y136662D01*
X273986Y136729D01*
X273962Y136740D01*
X273942Y136756D01*
X273851Y136791D01*
X273763Y136832D01*
X273737Y136835D01*
X273713Y136844D01*
X273615Y136849D01*
X273519Y136859D01*
X273493Y136854D01*
X273467Y136855D01*
X273373Y136828D01*
X273278Y136807D01*
X273256Y136794D01*
X273231Y136786D01*
X273151Y136731D01*
X273067Y136681D01*
X273050Y136661D01*
X273029Y136646D01*
X272970Y136568D01*
X272907Y136494D01*
X272897Y136470D01*
X272882Y136449D01*
X272852Y136356D01*
X272815Y136266D01*
X272812Y136233D01*
X272806Y136215D01*
X272806Y136182D01*
X272797Y136099D01*
X272797Y117901D01*
X272812Y117805D01*
X272822Y117708D01*
X272832Y117684D01*
X272836Y117658D01*
X272882Y117572D01*
X272922Y117483D01*
X272939Y117464D01*
X272952Y117441D01*
X273022Y117374D01*
X273088Y117302D01*
X273111Y117289D01*
X273130Y117271D01*
X273218Y117230D01*
X273304Y117183D01*
X273329Y117179D01*
X273353Y117168D01*
X273450Y117157D01*
X273546Y117140D01*
X273572Y117144D01*
X273597Y117141D01*
X273693Y117161D01*
X273789Y117176D01*
X273812Y117187D01*
X273838Y117193D01*
X273921Y117243D01*
X274008Y117287D01*
X274027Y117306D01*
X274049Y117319D01*
X274112Y117393D01*
X274180Y117463D01*
X274196Y117491D01*
X274209Y117506D01*
X274221Y117537D01*
X274261Y117610D01*
X275513Y120631D01*
X278657Y123775D01*
X282765Y125477D01*
X301435Y125477D01*
X305543Y123775D01*
X308687Y120631D01*
X310389Y116523D01*
X310389Y112077D01*
X309010Y108749D01*
X309000Y108705D01*
X308981Y108663D01*
X308972Y108586D01*
X308954Y108510D01*
X308959Y108464D01*
X308954Y108419D01*
X308970Y108342D01*
X308977Y108265D01*
X308996Y108223D01*
X309006Y108178D01*
X309046Y108111D01*
X309077Y108040D01*
X309108Y108006D01*
X309132Y107967D01*
X309191Y107916D01*
X309244Y107859D01*
X309284Y107837D01*
X309319Y107807D01*
X309391Y107778D01*
X309459Y107741D01*
X309504Y107732D01*
X309547Y107715D01*
X309683Y107700D01*
X309701Y107697D01*
X309706Y107698D01*
X309714Y107697D01*
X331413Y107697D01*
X333654Y106769D01*
X334506Y105917D01*
X334543Y105890D01*
X334574Y105856D01*
X334642Y105818D01*
X334705Y105773D01*
X334749Y105759D01*
X334789Y105737D01*
X334866Y105724D01*
X334940Y105701D01*
X334986Y105702D01*
X335031Y105694D01*
X335108Y105705D01*
X335186Y105707D01*
X335230Y105723D01*
X335275Y105729D01*
X335344Y105765D01*
X335417Y105791D01*
X335453Y105820D01*
X335494Y105841D01*
X335549Y105897D01*
X335609Y105945D01*
X335634Y105984D01*
X335666Y106017D01*
X335732Y106136D01*
X335742Y106152D01*
X335744Y106157D01*
X335747Y106164D01*
X335817Y106333D01*
X336580Y107096D01*
X336628Y107162D01*
X336632Y107167D01*
X336634Y107170D01*
X336693Y107239D01*
X336705Y107269D01*
X336724Y107295D01*
X336751Y107382D01*
X336785Y107467D01*
X336789Y107508D01*
X336796Y107531D01*
X336795Y107563D01*
X336803Y107634D01*
X336803Y159066D01*
X336789Y159156D01*
X336781Y159247D01*
X336769Y159277D01*
X336764Y159309D01*
X336721Y159389D01*
X336685Y159473D01*
X336659Y159505D01*
X336648Y159526D01*
X336625Y159548D01*
X336580Y159604D01*
X335817Y160367D01*
X334545Y163438D01*
X334545Y166762D01*
X335817Y169833D01*
X338167Y172183D01*
X341238Y173455D01*
X344562Y173455D01*
X347633Y172183D01*
X349983Y169833D01*
X351255Y166762D01*
X351255Y163438D01*
X349983Y160367D01*
X349220Y159604D01*
X349167Y159530D01*
X349107Y159461D01*
X349095Y159431D01*
X349076Y159405D01*
X349049Y159318D01*
X349015Y159233D01*
X349011Y159192D01*
X349004Y159169D01*
X349005Y159137D01*
X348997Y159066D01*
X348997Y107634D01*
X349011Y107544D01*
X349019Y107453D01*
X349031Y107423D01*
X349036Y107391D01*
X349079Y107311D01*
X349115Y107227D01*
X349141Y107195D01*
X349152Y107174D01*
X349175Y107152D01*
X349220Y107096D01*
X349983Y106333D01*
X351255Y103262D01*
X351255Y99938D01*
X349983Y96867D01*
X347633Y94517D01*
X344562Y93245D01*
X341238Y93245D01*
X338167Y94517D01*
X337596Y95088D01*
X337538Y95130D01*
X337486Y95180D01*
X337439Y95202D01*
X337397Y95232D01*
X337328Y95253D01*
X337263Y95283D01*
X337211Y95289D01*
X337161Y95304D01*
X337090Y95302D01*
X337019Y95310D01*
X336968Y95299D01*
X336916Y95298D01*
X336848Y95273D01*
X336778Y95258D01*
X336733Y95231D01*
X336685Y95213D01*
X336629Y95169D01*
X336567Y95132D01*
X336533Y95092D01*
X336493Y95060D01*
X336454Y94999D01*
X336407Y94945D01*
X336388Y94897D01*
X336360Y94853D01*
X336342Y94783D01*
X336315Y94717D01*
X336307Y94646D01*
X336299Y94614D01*
X336301Y94591D01*
X336297Y94550D01*
X336297Y39671D01*
X336311Y39581D01*
X336319Y39490D01*
X336331Y39460D01*
X336336Y39428D01*
X336379Y39347D01*
X336415Y39263D01*
X336441Y39231D01*
X336452Y39211D01*
X336475Y39188D01*
X336520Y39132D01*
X340873Y34779D01*
X340969Y34710D01*
X341062Y34641D01*
X341068Y34639D01*
X341073Y34635D01*
X341184Y34601D01*
X341296Y34565D01*
X341302Y34565D01*
X341308Y34563D01*
X341425Y34566D01*
X341542Y34567D01*
X341549Y34569D01*
X341554Y34569D01*
X341571Y34576D01*
X341703Y34614D01*
X342762Y35053D01*
X348118Y35053D01*
X353066Y33003D01*
X356853Y29216D01*
X357437Y27807D01*
X357474Y27746D01*
X357504Y27681D01*
X357539Y27642D01*
X357566Y27598D01*
X357622Y27552D01*
X357670Y27500D01*
X357716Y27475D01*
X357756Y27441D01*
X357823Y27416D01*
X357886Y27381D01*
X357937Y27372D01*
X357985Y27353D01*
X358057Y27350D01*
X358128Y27337D01*
X358179Y27345D01*
X358231Y27343D01*
X358300Y27363D01*
X358371Y27373D01*
X358417Y27397D01*
X358467Y27411D01*
X358526Y27452D01*
X358590Y27485D01*
X358627Y27522D01*
X358669Y27552D01*
X358712Y27609D01*
X358762Y27660D01*
X358797Y27723D01*
X358816Y27749D01*
X358823Y27771D01*
X358843Y27807D01*
X359427Y29216D01*
X363214Y33003D01*
X368162Y35053D01*
X373518Y35053D01*
X378466Y33003D01*
X382253Y29216D01*
X382837Y27807D01*
X382874Y27746D01*
X382904Y27681D01*
X382939Y27642D01*
X382966Y27598D01*
X383022Y27552D01*
X383070Y27500D01*
X383116Y27475D01*
X383156Y27441D01*
X383223Y27416D01*
X383286Y27381D01*
X383337Y27372D01*
X383385Y27353D01*
X383457Y27350D01*
X383528Y27337D01*
X383579Y27345D01*
X383631Y27343D01*
X383700Y27363D01*
X383771Y27373D01*
X383817Y27397D01*
X383867Y27411D01*
X383926Y27452D01*
X383990Y27485D01*
X384027Y27522D01*
X384069Y27552D01*
X384112Y27609D01*
X384162Y27660D01*
X384197Y27723D01*
X384216Y27749D01*
X384223Y27771D01*
X384243Y27807D01*
X384827Y29216D01*
X388614Y33003D01*
X393562Y35053D01*
X398918Y35053D01*
X403866Y33003D01*
X407653Y29216D01*
X409056Y25830D01*
X409109Y25744D01*
X409157Y25655D01*
X409174Y25640D01*
X409185Y25621D01*
X409263Y25557D01*
X409337Y25488D01*
X409358Y25479D01*
X409375Y25464D01*
X409469Y25428D01*
X409562Y25386D01*
X409584Y25384D01*
X409604Y25376D01*
X409705Y25372D01*
X409806Y25362D01*
X409828Y25367D01*
X409850Y25366D01*
X409947Y25394D01*
X410046Y25417D01*
X410065Y25428D01*
X410086Y25434D01*
X410169Y25492D01*
X410256Y25545D01*
X410270Y25562D01*
X410288Y25575D01*
X410349Y25656D01*
X410414Y25734D01*
X410425Y25758D01*
X410435Y25772D01*
X410445Y25803D01*
X410483Y25886D01*
X410576Y26173D01*
X411429Y27847D01*
X412534Y29368D01*
X413862Y30696D01*
X415383Y31801D01*
X417057Y32654D01*
X418844Y33235D01*
X420117Y33436D01*
X420117Y22352D01*
X420120Y22332D01*
X420118Y22313D01*
X420140Y22211D01*
X420157Y22109D01*
X420166Y22092D01*
X420170Y22072D01*
X420223Y21983D01*
X420272Y21892D01*
X420286Y21878D01*
X420296Y21861D01*
X420375Y21794D01*
X420450Y21723D01*
X420468Y21714D01*
X420483Y21701D01*
X420579Y21663D01*
X420673Y21619D01*
X420693Y21617D01*
X420711Y21609D01*
X420878Y21591D01*
X421641Y21591D01*
X421641Y21589D01*
X420878Y21589D01*
X420858Y21586D01*
X420839Y21588D01*
X420737Y21566D01*
X420635Y21549D01*
X420618Y21540D01*
X420598Y21536D01*
X420509Y21483D01*
X420418Y21434D01*
X420404Y21420D01*
X420387Y21410D01*
X420320Y21331D01*
X420249Y21256D01*
X420240Y21238D01*
X420227Y21223D01*
X420188Y21127D01*
X420145Y21033D01*
X420143Y21013D01*
X420135Y20995D01*
X420117Y20828D01*
X420117Y9744D01*
X418844Y9945D01*
X417057Y10526D01*
X415383Y11379D01*
X413862Y12484D01*
X412534Y13812D01*
X411429Y15333D01*
X410576Y17007D01*
X410483Y17294D01*
X410436Y17384D01*
X410395Y17476D01*
X410380Y17492D01*
X410370Y17512D01*
X410297Y17583D01*
X410229Y17657D01*
X410209Y17668D01*
X410193Y17683D01*
X410102Y17727D01*
X410013Y17776D01*
X409991Y17780D01*
X409971Y17789D01*
X409871Y17802D01*
X409771Y17820D01*
X409749Y17816D01*
X409727Y17819D01*
X409628Y17799D01*
X409528Y17784D01*
X409508Y17774D01*
X409486Y17769D01*
X409399Y17718D01*
X409309Y17672D01*
X409293Y17656D01*
X409274Y17645D01*
X409207Y17569D01*
X409136Y17497D01*
X409123Y17473D01*
X409112Y17460D01*
X409100Y17430D01*
X409056Y17350D01*
X407653Y13964D01*
X403866Y10177D01*
X398918Y8127D01*
X393562Y8127D01*
X388614Y10177D01*
X384827Y13964D01*
X384243Y15373D01*
X384205Y15434D01*
X384176Y15499D01*
X384141Y15538D01*
X384114Y15582D01*
X384058Y15628D01*
X384010Y15680D01*
X383964Y15705D01*
X383924Y15739D01*
X383857Y15764D01*
X383794Y15799D01*
X383743Y15808D01*
X383695Y15827D01*
X383623Y15830D01*
X383552Y15843D01*
X383501Y15835D01*
X383449Y15837D01*
X383380Y15817D01*
X383309Y15807D01*
X383263Y15783D01*
X383213Y15769D01*
X383154Y15728D01*
X383090Y15695D01*
X383053Y15658D01*
X383011Y15628D01*
X382968Y15571D01*
X382918Y15520D01*
X382883Y15457D01*
X382864Y15431D01*
X382857Y15409D01*
X382837Y15373D01*
X382253Y13964D01*
X378466Y10177D01*
X373518Y8127D01*
X368162Y8127D01*
X363214Y10177D01*
X359427Y13964D01*
X358843Y15373D01*
X358805Y15434D01*
X358776Y15499D01*
X358741Y15538D01*
X358714Y15582D01*
X358658Y15628D01*
X358610Y15680D01*
X358564Y15705D01*
X358524Y15739D01*
X358457Y15764D01*
X358394Y15799D01*
X358343Y15808D01*
X358295Y15827D01*
X358223Y15830D01*
X358152Y15843D01*
X358101Y15835D01*
X358049Y15837D01*
X357980Y15817D01*
X357909Y15807D01*
X357863Y15783D01*
X357813Y15769D01*
X357754Y15728D01*
X357690Y15695D01*
X357653Y15658D01*
X357611Y15628D01*
X357568Y15571D01*
X357518Y15520D01*
X357483Y15457D01*
X357464Y15431D01*
X357457Y15409D01*
X357437Y15373D01*
X356853Y13964D01*
X353066Y10177D01*
X348118Y8127D01*
X342762Y8127D01*
X337814Y10177D01*
X334027Y13964D01*
X333443Y15373D01*
X333405Y15434D01*
X333376Y15499D01*
X333341Y15538D01*
X333314Y15582D01*
X333258Y15628D01*
X333210Y15680D01*
X333164Y15705D01*
X333124Y15739D01*
X333057Y15764D01*
X332994Y15799D01*
X332943Y15808D01*
X332895Y15827D01*
X332823Y15830D01*
X332752Y15843D01*
X332701Y15835D01*
X332649Y15837D01*
X332580Y15817D01*
X332509Y15807D01*
X332463Y15783D01*
X332413Y15769D01*
X332354Y15728D01*
X332290Y15695D01*
X332253Y15658D01*
X332211Y15628D01*
X332168Y15571D01*
X332118Y15520D01*
X332083Y15457D01*
X332064Y15431D01*
X332057Y15409D01*
X332037Y15373D01*
X331453Y13964D01*
X327666Y10177D01*
X322718Y8127D01*
X317362Y8127D01*
X312414Y10177D01*
X308627Y13964D01*
X308043Y15373D01*
X308005Y15434D01*
X307976Y15499D01*
X307941Y15538D01*
X307914Y15582D01*
X307858Y15628D01*
X307810Y15680D01*
X307764Y15705D01*
X307724Y15739D01*
X307657Y15764D01*
X307594Y15799D01*
X307543Y15808D01*
X307495Y15827D01*
X307423Y15830D01*
X307352Y15843D01*
X307301Y15835D01*
X307249Y15837D01*
X307180Y15817D01*
X307109Y15807D01*
X307063Y15783D01*
X307013Y15769D01*
X306954Y15728D01*
X306890Y15695D01*
X306853Y15658D01*
X306811Y15628D01*
X306768Y15571D01*
X306718Y15520D01*
X306683Y15457D01*
X306664Y15431D01*
X306657Y15409D01*
X306637Y15373D01*
X306053Y13964D01*
X302266Y10177D01*
X297318Y8127D01*
X291962Y8127D01*
X287014Y10177D01*
X283227Y13964D01*
X281177Y18912D01*
X281177Y24268D01*
X283227Y29216D01*
X287014Y33003D01*
X291962Y35053D01*
X297387Y35053D01*
X297458Y35064D01*
X297530Y35066D01*
X297579Y35084D01*
X297630Y35092D01*
X297693Y35126D01*
X297761Y35151D01*
X297801Y35183D01*
X297848Y35208D01*
X297897Y35260D01*
X297953Y35304D01*
X297981Y35348D01*
X298017Y35386D01*
X298047Y35451D01*
X298086Y35511D01*
X298099Y35562D01*
X298121Y35609D01*
X298128Y35680D01*
X298146Y35750D01*
X298142Y35802D01*
X298148Y35853D01*
X298132Y35924D01*
X298127Y35995D01*
X298106Y36043D01*
X298095Y36094D01*
X298059Y36155D01*
X298030Y36221D01*
X297986Y36277D01*
X297969Y36305D01*
X297951Y36320D01*
X297926Y36352D01*
X236131Y98146D01*
X235203Y100387D01*
X235203Y110699D01*
X235188Y110795D01*
X235178Y110892D01*
X235168Y110916D01*
X235164Y110942D01*
X235118Y111028D01*
X235078Y111117D01*
X235061Y111136D01*
X235048Y111159D01*
X234978Y111226D01*
X234912Y111298D01*
X234889Y111311D01*
X234870Y111329D01*
X234782Y111370D01*
X234696Y111417D01*
X234671Y111421D01*
X234647Y111432D01*
X234550Y111443D01*
X234454Y111460D01*
X234428Y111456D01*
X234403Y111459D01*
X234307Y111439D01*
X234211Y111424D01*
X234188Y111413D01*
X234162Y111407D01*
X234079Y111357D01*
X233992Y111313D01*
X233973Y111294D01*
X233951Y111281D01*
X233888Y111207D01*
X233820Y111137D01*
X233804Y111109D01*
X233791Y111094D01*
X233779Y111063D01*
X233739Y110990D01*
X232487Y107969D01*
X229343Y104825D01*
X225235Y103123D01*
X206565Y103123D01*
X202457Y104825D01*
X199313Y107969D01*
X197611Y112077D01*
X197611Y116523D01*
X199313Y120631D01*
X202457Y123775D01*
X206565Y125477D01*
X225235Y125477D01*
X229343Y123775D01*
X232487Y120631D01*
X233739Y117610D01*
X233790Y117527D01*
X233836Y117441D01*
X233855Y117423D01*
X233868Y117401D01*
X233943Y117338D01*
X234014Y117271D01*
X234038Y117260D01*
X234058Y117244D01*
X234149Y117209D01*
X234237Y117168D01*
X234263Y117165D01*
X234287Y117156D01*
X234385Y117151D01*
X234481Y117141D01*
X234507Y117146D01*
X234533Y117145D01*
X234627Y117172D01*
X234722Y117193D01*
X234744Y117206D01*
X234769Y117214D01*
X234849Y117269D01*
X234933Y117319D01*
X234950Y117339D01*
X234971Y117354D01*
X235030Y117432D01*
X235093Y117506D01*
X235103Y117530D01*
X235118Y117551D01*
X235148Y117644D01*
X235185Y117734D01*
X235188Y117767D01*
X235194Y117785D01*
X235194Y117818D01*
X235203Y117901D01*
X235203Y136099D01*
X235188Y136195D01*
X235178Y136292D01*
X235168Y136316D01*
X235164Y136342D01*
X235118Y136428D01*
X235078Y136517D01*
X235061Y136536D01*
X235048Y136559D01*
X234978Y136626D01*
X234912Y136698D01*
X234889Y136711D01*
X234870Y136729D01*
X234782Y136770D01*
X234696Y136817D01*
X234671Y136821D01*
X234647Y136832D01*
X234550Y136843D01*
X234454Y136860D01*
X234428Y136856D01*
X234403Y136859D01*
X234307Y136839D01*
X234211Y136824D01*
X234188Y136813D01*
X234162Y136807D01*
X234079Y136757D01*
X233992Y136713D01*
X233973Y136694D01*
X233951Y136681D01*
X233888Y136607D01*
X233820Y136537D01*
X233804Y136509D01*
X233791Y136494D01*
X233779Y136463D01*
X233739Y136390D01*
X232487Y133369D01*
X229343Y130225D01*
X225235Y128523D01*
X206565Y128523D01*
X202457Y130225D01*
X199313Y133369D01*
X197611Y137477D01*
X197611Y141923D01*
X199313Y146031D01*
X202457Y149175D01*
X206565Y150877D01*
X225235Y150877D01*
X229343Y149175D01*
X232487Y146031D01*
X233739Y143010D01*
X233790Y142927D01*
X233836Y142841D01*
X233855Y142823D01*
X233868Y142801D01*
X233943Y142738D01*
X234014Y142671D01*
X234038Y142660D01*
X234058Y142644D01*
X234149Y142609D01*
X234237Y142568D01*
X234263Y142565D01*
X234287Y142556D01*
X234385Y142551D01*
X234481Y142541D01*
X234507Y142546D01*
X234533Y142545D01*
X234627Y142572D01*
X234722Y142593D01*
X234744Y142606D01*
X234769Y142614D01*
X234849Y142669D01*
X234933Y142719D01*
X234950Y142739D01*
X234971Y142754D01*
X235030Y142832D01*
X235093Y142906D01*
X235103Y142930D01*
X235118Y142951D01*
X235148Y143044D01*
X235185Y143134D01*
X235188Y143167D01*
X235194Y143185D01*
X235194Y143218D01*
X235203Y143301D01*
X235203Y161499D01*
X235188Y161595D01*
X235178Y161692D01*
X235168Y161716D01*
X235164Y161742D01*
X235118Y161828D01*
X235078Y161917D01*
X235061Y161936D01*
X235048Y161959D01*
X234978Y162026D01*
X234912Y162098D01*
X234889Y162111D01*
X234870Y162129D01*
X234782Y162170D01*
X234696Y162217D01*
X234671Y162221D01*
X234647Y162232D01*
X234550Y162243D01*
X234454Y162260D01*
X234428Y162256D01*
X234403Y162259D01*
X234307Y162239D01*
X234211Y162224D01*
X234188Y162213D01*
X234162Y162207D01*
X234079Y162157D01*
X233992Y162113D01*
X233973Y162094D01*
X233951Y162081D01*
X233888Y162007D01*
X233820Y161937D01*
X233804Y161909D01*
X233791Y161894D01*
X233779Y161863D01*
X233739Y161790D01*
X232487Y158769D01*
X229343Y155625D01*
X225235Y153923D01*
X206565Y153923D01*
X202457Y155625D01*
X199313Y158769D01*
X197611Y162877D01*
X197611Y167323D01*
X198054Y168393D01*
X198065Y168437D01*
X198084Y168479D01*
X198093Y168556D01*
X198110Y168632D01*
X198106Y168678D01*
X198111Y168723D01*
X198095Y168800D01*
X198087Y168877D01*
X198069Y168919D01*
X198059Y168964D01*
X198019Y169031D01*
X197987Y169102D01*
X197956Y169136D01*
X197933Y169175D01*
X197874Y169226D01*
X197821Y169283D01*
X197781Y169305D01*
X197746Y169335D01*
X197674Y169364D01*
X197605Y169401D01*
X197560Y169410D01*
X197518Y169427D01*
X197382Y169442D01*
X197363Y169445D01*
X197358Y169444D01*
X197351Y169445D01*
X193918Y169445D01*
X190847Y170717D01*
X188497Y173067D01*
X187901Y174506D01*
X187850Y174589D01*
X187804Y174675D01*
X187786Y174693D01*
X187772Y174715D01*
X187696Y174777D01*
X187626Y174844D01*
X187602Y174855D01*
X187582Y174872D01*
X187491Y174907D01*
X187403Y174948D01*
X187377Y174951D01*
X187353Y174960D01*
X187255Y174964D01*
X187159Y174975D01*
X187133Y174969D01*
X187107Y174971D01*
X187013Y174943D01*
X186918Y174923D01*
X186896Y174909D01*
X186871Y174902D01*
X186791Y174847D01*
X186707Y174797D01*
X186690Y174777D01*
X186669Y174762D01*
X186610Y174684D01*
X186547Y174610D01*
X186537Y174585D01*
X186522Y174564D01*
X186492Y174472D01*
X186455Y174382D01*
X186452Y174349D01*
X186446Y174331D01*
X186446Y174298D01*
X186437Y174215D01*
X186437Y162617D01*
X185509Y160376D01*
X183687Y158554D01*
X183686Y158554D01*
X179242Y154109D01*
X179174Y154015D01*
X179104Y153921D01*
X179102Y153915D01*
X179098Y153910D01*
X179064Y153799D01*
X179027Y153687D01*
X179027Y153681D01*
X179026Y153675D01*
X179029Y153558D01*
X179030Y153441D01*
X179032Y153434D01*
X179032Y153429D01*
X179038Y153411D01*
X179077Y153280D01*
X179805Y151522D01*
X179805Y148198D01*
X178533Y145127D01*
X176183Y142777D01*
X173112Y141505D01*
X169788Y141505D01*
X166717Y142777D01*
X164367Y145127D01*
X163963Y146103D01*
X163929Y146159D01*
X163903Y146219D01*
X163851Y146284D01*
X163834Y146312D01*
X163819Y146324D01*
X163798Y146350D01*
X162471Y147676D01*
X161543Y149917D01*
X161543Y152343D01*
X162471Y154584D01*
X174020Y166132D01*
X174073Y166206D01*
X174133Y166276D01*
X174145Y166306D01*
X174164Y166332D01*
X174191Y166419D01*
X174225Y166504D01*
X174229Y166545D01*
X174236Y166567D01*
X174235Y166599D01*
X174243Y166671D01*
X174243Y420759D01*
X174232Y420830D01*
X174230Y420902D01*
X174212Y420951D01*
X174204Y421002D01*
X174170Y421065D01*
X174145Y421133D01*
X174113Y421173D01*
X174088Y421219D01*
X174036Y421269D01*
X173992Y421325D01*
X173948Y421353D01*
X173910Y421389D01*
X173845Y421419D01*
X173785Y421458D01*
X173734Y421470D01*
X173687Y421492D01*
X173616Y421500D01*
X173546Y421518D01*
X173494Y421514D01*
X173443Y421519D01*
X173372Y421504D01*
X173301Y421499D01*
X173253Y421478D01*
X173202Y421467D01*
X173141Y421430D01*
X173075Y421402D01*
X173019Y421358D01*
X172991Y421341D01*
X172976Y421323D01*
X172944Y421297D01*
X167190Y415543D01*
X158976Y415543D01*
X158956Y415540D01*
X158937Y415542D01*
X158835Y415520D01*
X158733Y415504D01*
X158716Y415494D01*
X158696Y415490D01*
X158607Y415437D01*
X158516Y415388D01*
X158502Y415374D01*
X158485Y415364D01*
X158418Y415285D01*
X158346Y415210D01*
X158338Y415192D01*
X158325Y415177D01*
X158286Y415081D01*
X158243Y414987D01*
X158241Y414967D01*
X158233Y414949D01*
X158232Y414941D01*
X156943Y411827D01*
X154593Y409477D01*
X151522Y408205D01*
X150443Y408205D01*
X150353Y408191D01*
X150262Y408183D01*
X150232Y408171D01*
X150200Y408166D01*
X150119Y408123D01*
X150035Y408087D01*
X150003Y408061D01*
X149983Y408050D01*
X149960Y408027D01*
X149904Y407982D01*
X144750Y402828D01*
X144697Y402754D01*
X144637Y402684D01*
X144625Y402654D01*
X144606Y402628D01*
X144579Y402541D01*
X144545Y402456D01*
X144541Y402415D01*
X144534Y402393D01*
X144535Y402361D01*
X144527Y402289D01*
X144527Y365817D01*
X143599Y363576D01*
X139752Y359730D01*
X139741Y359714D01*
X139725Y359702D01*
X139669Y359614D01*
X139609Y359531D01*
X139603Y359512D01*
X139592Y359495D01*
X139567Y359394D01*
X139537Y359296D01*
X139537Y359276D01*
X139532Y359256D01*
X139540Y359153D01*
X139543Y359050D01*
X139550Y359031D01*
X139551Y359011D01*
X139592Y358916D01*
X139627Y358819D01*
X139640Y358803D01*
X139648Y358785D01*
X139752Y358654D01*
X140717Y357690D01*
X140717Y348430D01*
X134170Y341883D01*
X124910Y341883D01*
X118363Y348430D01*
X118363Y348742D01*
X118360Y348762D01*
X118362Y348781D01*
X118340Y348883D01*
X118324Y348985D01*
X118314Y349002D01*
X118310Y349022D01*
X118257Y349111D01*
X118208Y349202D01*
X118194Y349216D01*
X118184Y349233D01*
X118105Y349300D01*
X118030Y349372D01*
X118012Y349380D01*
X117997Y349393D01*
X117901Y349432D01*
X117807Y349475D01*
X117787Y349477D01*
X117769Y349485D01*
X117602Y349503D01*
X79041Y349503D01*
X78951Y349489D01*
X78860Y349481D01*
X78830Y349469D01*
X78798Y349464D01*
X78717Y349421D01*
X78633Y349385D01*
X78601Y349359D01*
X78581Y349348D01*
X78558Y349325D01*
X78502Y349280D01*
X68550Y339328D01*
X68497Y339254D01*
X68437Y339184D01*
X68425Y339154D01*
X68406Y339128D01*
X68379Y339041D01*
X68345Y338956D01*
X68341Y338915D01*
X68334Y338893D01*
X68335Y338861D01*
X68327Y338789D01*
X68327Y221680D01*
X68338Y221609D01*
X68340Y221537D01*
X68358Y221489D01*
X68366Y221437D01*
X68400Y221374D01*
X68425Y221306D01*
X68457Y221266D01*
X68482Y221220D01*
X68534Y221170D01*
X68578Y221114D01*
X68622Y221086D01*
X68660Y221050D01*
X68725Y221020D01*
X68785Y220981D01*
X68836Y220969D01*
X68883Y220947D01*
X68954Y220939D01*
X69024Y220921D01*
X69076Y220925D01*
X69127Y220920D01*
X69198Y220935D01*
X69269Y220941D01*
X69317Y220961D01*
X69368Y220972D01*
X69429Y221009D01*
X69495Y221037D01*
X69551Y221082D01*
X69579Y221098D01*
X69594Y221116D01*
X69626Y221142D01*
X71467Y222983D01*
X74538Y224255D01*
X77862Y224255D01*
X80933Y222983D01*
X83283Y220633D01*
X84555Y217562D01*
X84555Y214238D01*
X83371Y211380D01*
X83362Y211343D01*
X83356Y211330D01*
X83354Y211311D01*
X83331Y211255D01*
X83322Y211172D01*
X83315Y211140D01*
X83316Y211121D01*
X83313Y211088D01*
X83313Y131812D01*
X83323Y131747D01*
X83324Y131682D01*
X83347Y131602D01*
X83352Y131569D01*
X83362Y131552D01*
X83371Y131520D01*
X84555Y128662D01*
X84555Y125338D01*
X83283Y122267D01*
X80933Y119917D01*
X77862Y118645D01*
X74538Y118645D01*
X71467Y119917D01*
X70642Y120742D01*
X70584Y120784D01*
X70532Y120834D01*
X70485Y120856D01*
X70443Y120886D01*
X70374Y120907D01*
X70309Y120937D01*
X70257Y120943D01*
X70207Y120958D01*
X70136Y120956D01*
X70065Y120964D01*
X70014Y120953D01*
X69962Y120952D01*
X69894Y120927D01*
X69824Y120912D01*
X69779Y120885D01*
X69731Y120867D01*
X69675Y120823D01*
X69613Y120786D01*
X69579Y120746D01*
X69539Y120714D01*
X69500Y120653D01*
X69453Y120599D01*
X69434Y120551D01*
X69406Y120507D01*
X69388Y120437D01*
X69361Y120371D01*
X69353Y120300D01*
X69345Y120268D01*
X69347Y120245D01*
X69343Y120204D01*
X69343Y35415D01*
X68353Y33027D01*
X68327Y32913D01*
X68298Y32800D01*
X68299Y32793D01*
X68297Y32787D01*
X68308Y32671D01*
X68317Y32554D01*
X68320Y32549D01*
X68320Y32542D01*
X68368Y32435D01*
X68414Y32328D01*
X68418Y32322D01*
X68420Y32318D01*
X68433Y32304D01*
X68518Y32197D01*
X70583Y30133D01*
X71855Y27062D01*
X71855Y23738D01*
X70583Y20667D01*
X68233Y18317D01*
X65162Y17045D01*
X61838Y17045D01*
X58767Y18317D01*
X57688Y19396D01*
X57672Y19408D01*
X57660Y19424D01*
X57572Y19480D01*
X57489Y19540D01*
X57470Y19546D01*
X57453Y19557D01*
X57352Y19582D01*
X57253Y19612D01*
X57234Y19612D01*
X57214Y19617D01*
X57111Y19609D01*
X57008Y19606D01*
X56989Y19599D01*
X56969Y19597D01*
X56874Y19557D01*
X56777Y19521D01*
X56761Y19509D01*
X56743Y19501D01*
X56612Y19396D01*
X55533Y18317D01*
X52462Y17045D01*
X49138Y17045D01*
X46067Y18317D01*
X43717Y20667D01*
X42445Y23738D01*
X42445Y27062D01*
X43717Y30133D01*
X46067Y32483D01*
X48926Y33667D01*
X48982Y33701D01*
X49042Y33727D01*
X49107Y33779D01*
X49135Y33796D01*
X49148Y33812D01*
X49173Y33832D01*
X54894Y39553D01*
X54947Y39627D01*
X55007Y39697D01*
X55019Y39727D01*
X55038Y39753D01*
X55065Y39840D01*
X55099Y39925D01*
X55103Y39966D01*
X55110Y39988D01*
X55109Y40020D01*
X55117Y40092D01*
X55117Y182106D01*
X55110Y182151D01*
X55112Y182197D01*
X55090Y182272D01*
X55078Y182349D01*
X55056Y182389D01*
X55043Y182433D01*
X54999Y182497D01*
X54962Y182566D01*
X54929Y182598D01*
X54903Y182635D01*
X54841Y182682D01*
X54784Y182735D01*
X54742Y182755D01*
X54706Y182782D01*
X54632Y182806D01*
X54561Y182839D01*
X54515Y182844D01*
X54472Y182858D01*
X54394Y182858D01*
X54317Y182866D01*
X54272Y182856D01*
X54226Y182856D01*
X54094Y182818D01*
X54076Y182814D01*
X54072Y182811D01*
X54065Y182809D01*
X52462Y182145D01*
X49138Y182145D01*
X46067Y183417D01*
X43717Y185767D01*
X42445Y188838D01*
X42445Y192162D01*
X43717Y195233D01*
X46067Y197583D01*
X49138Y198855D01*
X52462Y198855D01*
X55081Y197770D01*
X55125Y197759D01*
X55167Y197740D01*
X55244Y197732D01*
X55320Y197714D01*
X55366Y197718D01*
X55411Y197713D01*
X55488Y197730D01*
X55565Y197737D01*
X55607Y197756D01*
X55652Y197765D01*
X55719Y197805D01*
X55790Y197837D01*
X55824Y197868D01*
X55863Y197891D01*
X55914Y197951D01*
X55971Y198003D01*
X55993Y198044D01*
X56023Y198078D01*
X56052Y198151D01*
X56089Y198219D01*
X56098Y198264D01*
X56115Y198307D01*
X56130Y198442D01*
X56133Y198461D01*
X56132Y198466D01*
X56133Y198473D01*
X56133Y342843D01*
X57061Y345084D01*
X72746Y360769D01*
X74987Y361697D01*
X122055Y361697D01*
X122145Y361711D01*
X122236Y361719D01*
X122266Y361731D01*
X122298Y361736D01*
X122379Y361779D01*
X122463Y361815D01*
X122495Y361841D01*
X122515Y361852D01*
X122537Y361875D01*
X122593Y361920D01*
X124910Y364237D01*
X126699Y364237D01*
X126789Y364251D01*
X126880Y364259D01*
X126910Y364271D01*
X126942Y364276D01*
X127023Y364319D01*
X127107Y364355D01*
X127139Y364381D01*
X127159Y364392D01*
X127182Y364415D01*
X127238Y364460D01*
X132110Y369332D01*
X132163Y369406D01*
X132223Y369476D01*
X132235Y369506D01*
X132254Y369532D01*
X132281Y369619D01*
X132315Y369704D01*
X132319Y369745D01*
X132326Y369767D01*
X132325Y369799D01*
X132333Y369871D01*
X132333Y406343D01*
X133261Y408584D01*
X141282Y416604D01*
X141335Y416678D01*
X141395Y416748D01*
X141407Y416778D01*
X141426Y416804D01*
X141453Y416891D01*
X141487Y416976D01*
X141491Y417017D01*
X141498Y417039D01*
X141497Y417071D01*
X141505Y417143D01*
X141505Y418222D01*
X142777Y421293D01*
X145127Y423643D01*
X148198Y424915D01*
X150622Y424915D01*
X150642Y424918D01*
X150661Y424916D01*
X150763Y424938D01*
X150865Y424954D01*
X150882Y424964D01*
X150902Y424968D01*
X150991Y425021D01*
X151082Y425070D01*
X151096Y425084D01*
X151113Y425094D01*
X151180Y425173D01*
X151252Y425248D01*
X151260Y425266D01*
X151273Y425281D01*
X151312Y425377D01*
X151355Y425471D01*
X151357Y425491D01*
X151365Y425509D01*
X151383Y425676D01*
X151383Y431350D01*
X157930Y437897D01*
X166323Y437897D01*
X166394Y437908D01*
X166466Y437910D01*
X166515Y437928D01*
X166566Y437936D01*
X166629Y437970D01*
X166697Y437995D01*
X166737Y438027D01*
X166784Y438052D01*
X166833Y438104D01*
X166889Y438148D01*
X166917Y438192D01*
X166953Y438230D01*
X166983Y438295D01*
X167022Y438355D01*
X167035Y438406D01*
X167057Y438453D01*
X167064Y438524D01*
X167082Y438594D01*
X167078Y438646D01*
X167084Y438697D01*
X167068Y438768D01*
X167063Y438839D01*
X167042Y438887D01*
X167031Y438938D01*
X166995Y438999D01*
X166966Y439065D01*
X166922Y439121D01*
X166905Y439149D01*
X166887Y439164D01*
X166862Y439196D01*
X158706Y447352D01*
X158632Y447405D01*
X158562Y447465D01*
X158532Y447477D01*
X158506Y447496D01*
X158419Y447523D01*
X158334Y447557D01*
X158293Y447561D01*
X158271Y447568D01*
X158239Y447567D01*
X158167Y447575D01*
X157088Y447575D01*
X154017Y448847D01*
X151667Y451197D01*
X150395Y454268D01*
X150395Y457592D01*
X151667Y460663D01*
X154017Y463013D01*
X157088Y464285D01*
X160412Y464285D01*
X163483Y463013D01*
X165833Y460663D01*
X167105Y457592D01*
X167105Y456513D01*
X167119Y456423D01*
X167127Y456332D01*
X167139Y456302D01*
X167144Y456270D01*
X167187Y456189D01*
X167223Y456105D01*
X167249Y456073D01*
X167260Y456053D01*
X167283Y456030D01*
X167328Y455974D01*
X185509Y437794D01*
X186437Y435553D01*
X186437Y414899D01*
X186444Y414854D01*
X186442Y414808D01*
X186464Y414733D01*
X186476Y414657D01*
X186498Y414616D01*
X186511Y414572D01*
X186555Y414508D01*
X186592Y414439D01*
X186625Y414408D01*
X186651Y414370D01*
X186714Y414323D01*
X186770Y414270D01*
X186812Y414250D01*
X186848Y414223D01*
X186922Y414199D01*
X186993Y414166D01*
X187039Y414161D01*
X187082Y414147D01*
X187160Y414148D01*
X187237Y414139D01*
X187282Y414149D01*
X187328Y414149D01*
X187460Y414187D01*
X187478Y414191D01*
X187482Y414194D01*
X187489Y414196D01*
X188838Y414755D01*
X192162Y414755D01*
X195233Y413483D01*
X197583Y411133D01*
X198855Y408062D01*
X198855Y406983D01*
X198869Y406893D01*
X198877Y406802D01*
X198889Y406772D01*
X198894Y406740D01*
X198937Y406659D01*
X198973Y406575D01*
X198999Y406543D01*
X199010Y406523D01*
X199033Y406500D01*
X199078Y406444D01*
X200749Y404774D01*
X201281Y403488D01*
X201305Y403449D01*
X201321Y403406D01*
X201370Y403345D01*
X201411Y403279D01*
X201446Y403250D01*
X201475Y403214D01*
X201540Y403172D01*
X201600Y403122D01*
X201643Y403106D01*
X201682Y403081D01*
X201757Y403062D01*
X201830Y403034D01*
X201876Y403032D01*
X201920Y403021D01*
X201998Y403027D01*
X202076Y403023D01*
X202120Y403036D01*
X202165Y403040D01*
X202237Y403070D01*
X202312Y403092D01*
X202349Y403118D01*
X202392Y403136D01*
X202423Y403161D01*
X206565Y404877D01*
X225235Y404877D01*
X229343Y403175D01*
X232487Y400031D01*
X234189Y395923D01*
X234189Y391477D01*
X232487Y387369D01*
X229343Y384225D01*
X225235Y382523D01*
X206565Y382523D01*
X202729Y384112D01*
X202685Y384122D01*
X202643Y384142D01*
X202566Y384150D01*
X202490Y384168D01*
X202444Y384164D01*
X202399Y384169D01*
X202322Y384152D01*
X202245Y384145D01*
X202203Y384126D01*
X202158Y384117D01*
X202091Y384077D01*
X202020Y384045D01*
X201986Y384014D01*
X201947Y383990D01*
X201896Y383931D01*
X201839Y383879D01*
X201817Y383838D01*
X201787Y383804D01*
X201758Y383731D01*
X201721Y383663D01*
X201712Y383618D01*
X201695Y383575D01*
X201680Y383439D01*
X201677Y383421D01*
X201678Y383416D01*
X201677Y383409D01*
X201677Y378591D01*
X201679Y378575D01*
X201678Y378560D01*
X201684Y378533D01*
X201682Y378500D01*
X201704Y378425D01*
X201716Y378349D01*
X201729Y378325D01*
X201730Y378320D01*
X201739Y378305D01*
X201751Y378264D01*
X201795Y378200D01*
X201832Y378131D01*
X201865Y378100D01*
X201891Y378062D01*
X201953Y378015D01*
X202010Y377962D01*
X202052Y377942D01*
X202088Y377915D01*
X202162Y377891D01*
X202233Y377858D01*
X202279Y377853D01*
X202322Y377839D01*
X202400Y377840D01*
X202477Y377831D01*
X202522Y377841D01*
X202568Y377841D01*
X202689Y377876D01*
X202701Y377878D01*
X202706Y377881D01*
X202718Y377883D01*
X202722Y377886D01*
X202729Y377888D01*
X206565Y379477D01*
X225235Y379477D01*
X229343Y377775D01*
X232487Y374631D01*
X233961Y371072D01*
X233986Y371033D01*
X234001Y370990D01*
X234050Y370929D01*
X234091Y370863D01*
X234126Y370834D01*
X234155Y370798D01*
X234221Y370756D01*
X234280Y370706D01*
X234323Y370690D01*
X234362Y370665D01*
X234438Y370646D01*
X234510Y370618D01*
X234556Y370616D01*
X234600Y370605D01*
X234678Y370611D01*
X234756Y370608D01*
X234800Y370620D01*
X234846Y370624D01*
X234917Y370654D01*
X234992Y370676D01*
X235030Y370702D01*
X235072Y370720D01*
X235179Y370806D01*
X235194Y370816D01*
X235197Y370820D01*
X235203Y370825D01*
X247680Y383302D01*
X247733Y383376D01*
X247793Y383446D01*
X247805Y383476D01*
X247824Y383502D01*
X247851Y383589D01*
X247885Y383674D01*
X247889Y383715D01*
X247896Y383737D01*
X247895Y383769D01*
X247903Y383841D01*
X247903Y450793D01*
X248831Y453034D01*
X250654Y454856D01*
X254206Y458408D01*
X254246Y458463D01*
X254293Y458512D01*
X254317Y458563D01*
X254350Y458608D01*
X254370Y458673D01*
X254399Y458734D01*
X254406Y458790D01*
X254422Y458843D01*
X254420Y458911D01*
X254428Y458978D01*
X254417Y459033D01*
X254416Y459089D01*
X254392Y459153D01*
X254379Y459219D01*
X254350Y459267D01*
X254331Y459320D01*
X254289Y459373D01*
X254255Y459431D01*
X254212Y459468D01*
X254178Y459512D01*
X254121Y459549D01*
X254069Y459593D01*
X254018Y459615D01*
X253971Y459645D01*
X253905Y459662D01*
X253842Y459687D01*
X253786Y459691D01*
X253732Y459705D01*
X253665Y459700D01*
X253597Y459704D01*
X253520Y459688D01*
X253487Y459686D01*
X253468Y459678D01*
X253433Y459670D01*
X252986Y459525D01*
X251713Y459324D01*
X251713Y470408D01*
X251710Y470428D01*
X251712Y470447D01*
X251690Y470549D01*
X251673Y470651D01*
X251664Y470668D01*
X251660Y470688D01*
X251607Y470777D01*
X251558Y470868D01*
X251544Y470882D01*
X251534Y470899D01*
X251455Y470966D01*
X251380Y471037D01*
X251362Y471046D01*
X251347Y471059D01*
X251251Y471097D01*
X251157Y471141D01*
X251137Y471143D01*
X251119Y471151D01*
X250952Y471169D01*
X249428Y471169D01*
X249408Y471166D01*
X249389Y471168D01*
X249287Y471146D01*
X249185Y471129D01*
X249168Y471120D01*
X249148Y471116D01*
X249059Y471063D01*
X248968Y471014D01*
X248954Y471000D01*
X248937Y470990D01*
X248870Y470911D01*
X248799Y470836D01*
X248790Y470818D01*
X248777Y470803D01*
X248738Y470707D01*
X248695Y470613D01*
X248693Y470593D01*
X248685Y470575D01*
X248667Y470408D01*
X248667Y459324D01*
X247394Y459525D01*
X245607Y460106D01*
X243933Y460959D01*
X242412Y462064D01*
X241084Y463392D01*
X239979Y464913D01*
X239126Y466587D01*
X239033Y466874D01*
X238986Y466964D01*
X238945Y467056D01*
X238930Y467072D01*
X238920Y467092D01*
X238847Y467163D01*
X238779Y467237D01*
X238759Y467248D01*
X238743Y467263D01*
X238652Y467307D01*
X238563Y467356D01*
X238541Y467360D01*
X238521Y467369D01*
X238421Y467382D01*
X238321Y467400D01*
X238299Y467396D01*
X238277Y467399D01*
X238178Y467379D01*
X238078Y467364D01*
X238058Y467354D01*
X238036Y467349D01*
X237949Y467298D01*
X237859Y467252D01*
X237843Y467236D01*
X237824Y467225D01*
X237757Y467149D01*
X237686Y467077D01*
X237673Y467053D01*
X237662Y467040D01*
X237650Y467010D01*
X237606Y466930D01*
X236203Y463544D01*
X232416Y459757D01*
X227468Y457707D01*
X222112Y457707D01*
X217164Y459757D01*
X213377Y463544D01*
X212793Y464953D01*
X212756Y465014D01*
X212726Y465079D01*
X212691Y465118D01*
X212664Y465162D01*
X212608Y465208D01*
X212560Y465260D01*
X212514Y465285D01*
X212474Y465319D01*
X212407Y465344D01*
X212344Y465379D01*
X212293Y465388D01*
X212245Y465407D01*
X212173Y465410D01*
X212102Y465423D01*
X212051Y465415D01*
X211999Y465417D01*
X211930Y465397D01*
X211859Y465387D01*
X211813Y465363D01*
X211763Y465349D01*
X211704Y465308D01*
X211640Y465275D01*
X211603Y465238D01*
X211561Y465208D01*
X211518Y465151D01*
X211468Y465100D01*
X211433Y465037D01*
X211414Y465011D01*
X211407Y464989D01*
X211387Y464953D01*
X210803Y463544D01*
X207016Y459757D01*
X204687Y458792D01*
X204587Y458730D01*
X204487Y458670D01*
X204483Y458666D01*
X204478Y458662D01*
X204403Y458572D01*
X204327Y458484D01*
X204325Y458478D01*
X204321Y458473D01*
X204279Y458364D01*
X204235Y458255D01*
X204234Y458248D01*
X204233Y458243D01*
X204232Y458225D01*
X204217Y458089D01*
X204217Y437925D01*
X204231Y437835D01*
X204239Y437744D01*
X204251Y437714D01*
X204256Y437682D01*
X204299Y437601D01*
X204335Y437517D01*
X204361Y437485D01*
X204372Y437465D01*
X204395Y437442D01*
X204440Y437386D01*
X211326Y430500D01*
X211400Y430447D01*
X211470Y430387D01*
X211500Y430375D01*
X211526Y430356D01*
X211613Y430329D01*
X211698Y430295D01*
X211739Y430291D01*
X211761Y430284D01*
X211793Y430285D01*
X211865Y430277D01*
X225235Y430277D01*
X229343Y428575D01*
X232487Y425431D01*
X234189Y421323D01*
X234189Y416877D01*
X232487Y412769D01*
X229343Y409625D01*
X225235Y407923D01*
X206565Y407923D01*
X202457Y409625D01*
X199313Y412769D01*
X197611Y416877D01*
X197611Y421323D01*
X199313Y425431D01*
X200490Y426608D01*
X200501Y426624D01*
X200517Y426636D01*
X200573Y426724D01*
X200633Y426808D01*
X200639Y426827D01*
X200650Y426843D01*
X200675Y426944D01*
X200705Y427043D01*
X200705Y427063D01*
X200710Y427082D01*
X200702Y427185D01*
X200699Y427289D01*
X200692Y427307D01*
X200691Y427327D01*
X200650Y427422D01*
X200615Y427520D01*
X200602Y427535D01*
X200594Y427553D01*
X200490Y427684D01*
X194563Y433611D01*
X194563Y458089D01*
X194544Y458203D01*
X194527Y458320D01*
X194525Y458325D01*
X194524Y458331D01*
X194469Y458434D01*
X194416Y458539D01*
X194411Y458543D01*
X194408Y458549D01*
X194324Y458629D01*
X194240Y458711D01*
X194234Y458715D01*
X194230Y458718D01*
X194213Y458726D01*
X194093Y458792D01*
X191764Y459757D01*
X187977Y463544D01*
X185927Y468492D01*
X185927Y473848D01*
X187977Y478796D01*
X191764Y482583D01*
X196712Y484633D01*
X202068Y484633D01*
X207016Y482583D01*
X210803Y478796D01*
X211387Y477387D01*
X211425Y477326D01*
X211454Y477261D01*
X211489Y477222D01*
X211516Y477178D01*
X211572Y477132D01*
X211620Y477080D01*
X211666Y477055D01*
X211706Y477021D01*
X211773Y476996D01*
X211836Y476961D01*
X211887Y476952D01*
X211935Y476933D01*
X212007Y476930D01*
X212078Y476917D01*
X212129Y476925D01*
X212181Y476923D01*
X212250Y476943D01*
X212321Y476953D01*
X212367Y476977D01*
X212417Y476991D01*
X212476Y477032D01*
X212540Y477065D01*
X212577Y477102D01*
X212619Y477132D01*
X212662Y477189D01*
X212712Y477240D01*
X212747Y477303D01*
X212766Y477329D01*
X212773Y477351D01*
X212793Y477387D01*
X213377Y478796D01*
X217164Y482583D01*
X222112Y484633D01*
X227468Y484633D01*
X232416Y482583D01*
X236203Y478796D01*
X237606Y475410D01*
X237659Y475324D01*
X237707Y475235D01*
X237724Y475220D01*
X237735Y475201D01*
X237813Y475137D01*
X237887Y475068D01*
X237908Y475059D01*
X237925Y475044D01*
X238019Y475008D01*
X238112Y474966D01*
X238134Y474964D01*
X238154Y474956D01*
X238255Y474952D01*
X238356Y474942D01*
X238378Y474947D01*
X238400Y474946D01*
X238497Y474974D01*
X238596Y474997D01*
X238615Y475008D01*
X238636Y475014D01*
X238719Y475072D01*
X238806Y475125D01*
X238820Y475142D01*
X238838Y475155D01*
X238899Y475236D01*
X238964Y475314D01*
X238975Y475338D01*
X238985Y475352D01*
X238995Y475383D01*
X239033Y475466D01*
X239126Y475753D01*
X239979Y477427D01*
X241084Y478948D01*
X242412Y480276D01*
X243933Y481381D01*
X245607Y482234D01*
X247394Y482815D01*
X248667Y483016D01*
X248667Y471932D01*
X248670Y471912D01*
X248668Y471893D01*
X248690Y471791D01*
X248707Y471689D01*
X248716Y471672D01*
X248720Y471652D01*
X248773Y471563D01*
X248822Y471472D01*
X248836Y471458D01*
X248846Y471441D01*
X248925Y471374D01*
X249000Y471303D01*
X249018Y471294D01*
X249033Y471281D01*
X249129Y471243D01*
X249223Y471199D01*
X249243Y471197D01*
X249261Y471189D01*
X249428Y471171D01*
X250952Y471171D01*
X250972Y471174D01*
X250991Y471172D01*
X251093Y471194D01*
X251195Y471211D01*
X251212Y471220D01*
X251232Y471224D01*
X251321Y471277D01*
X251412Y471326D01*
X251426Y471340D01*
X251443Y471350D01*
X251510Y471429D01*
X251581Y471504D01*
X251590Y471522D01*
X251603Y471537D01*
X251642Y471633D01*
X251685Y471727D01*
X251687Y471747D01*
X251695Y471765D01*
X251713Y471932D01*
X251713Y483016D01*
X252986Y482815D01*
X254773Y482234D01*
X256447Y481381D01*
X257968Y480276D01*
X259296Y478948D01*
X260401Y477427D01*
X261254Y475753D01*
X261347Y475466D01*
X261394Y475376D01*
X261435Y475284D01*
X261450Y475268D01*
X261460Y475248D01*
X261533Y475177D01*
X261601Y475103D01*
X261621Y475092D01*
X261637Y475077D01*
X261728Y475033D01*
X261817Y474984D01*
X261839Y474980D01*
X261859Y474971D01*
X261959Y474958D01*
X262059Y474940D01*
X262081Y474944D01*
X262103Y474941D01*
X262202Y474961D01*
X262302Y474976D01*
X262322Y474986D01*
X262344Y474991D01*
X262431Y475042D01*
X262521Y475088D01*
X262537Y475104D01*
X262556Y475115D01*
X262623Y475191D01*
X262694Y475263D01*
X262707Y475287D01*
X262718Y475300D01*
X262730Y475330D01*
X262774Y475410D01*
X264177Y478796D01*
X267964Y482583D01*
X272912Y484633D01*
X278268Y484633D01*
X283216Y482583D01*
X287003Y478796D01*
X287587Y477387D01*
X287625Y477326D01*
X287654Y477261D01*
X287689Y477222D01*
X287716Y477178D01*
X287772Y477132D01*
X287820Y477080D01*
X287866Y477055D01*
X287906Y477021D01*
X287973Y476996D01*
X288036Y476961D01*
X288087Y476952D01*
X288135Y476933D01*
X288207Y476930D01*
X288278Y476917D01*
X288329Y476925D01*
X288381Y476923D01*
X288450Y476943D01*
X288521Y476953D01*
X288567Y476977D01*
X288617Y476991D01*
X288676Y477032D01*
X288740Y477065D01*
X288777Y477102D01*
X288819Y477132D01*
X288862Y477189D01*
X288912Y477240D01*
X288947Y477303D01*
X288966Y477329D01*
X288973Y477351D01*
X288993Y477387D01*
X289577Y478796D01*
X293364Y482583D01*
X298312Y484633D01*
X303668Y484633D01*
X308616Y482583D01*
X312403Y478796D01*
X314453Y473848D01*
X314453Y468492D01*
X312403Y463544D01*
X308616Y459757D01*
X303668Y457707D01*
X298312Y457707D01*
X297253Y458146D01*
X297140Y458173D01*
X297026Y458201D01*
X297019Y458201D01*
X297013Y458202D01*
X296897Y458191D01*
X296780Y458182D01*
X296775Y458180D01*
X296768Y458179D01*
X296660Y458131D01*
X296554Y458086D01*
X296548Y458081D01*
X296544Y458079D01*
X296530Y458066D01*
X296423Y457981D01*
X273020Y434578D01*
X272967Y434504D01*
X272907Y434434D01*
X272895Y434404D01*
X272876Y434378D01*
X272849Y434291D01*
X272815Y434206D01*
X272811Y434165D01*
X272804Y434143D01*
X272805Y434111D01*
X272797Y434039D01*
X272797Y422701D01*
X272812Y422605D01*
X272822Y422508D01*
X272832Y422484D01*
X272836Y422458D01*
X272882Y422372D01*
X272922Y422283D01*
X272939Y422264D01*
X272952Y422241D01*
X273022Y422174D01*
X273088Y422102D01*
X273111Y422089D01*
X273130Y422071D01*
X273218Y422030D01*
X273304Y421983D01*
X273329Y421979D01*
X273353Y421968D01*
X273450Y421957D01*
X273546Y421940D01*
X273572Y421944D01*
X273597Y421941D01*
X273693Y421961D01*
X273789Y421976D01*
X273812Y421987D01*
X273838Y421993D01*
X273921Y422043D01*
X274008Y422087D01*
X274027Y422106D01*
X274049Y422119D01*
X274112Y422193D01*
X274180Y422263D01*
X274196Y422291D01*
X274209Y422306D01*
X274221Y422337D01*
X274261Y422410D01*
X275513Y425431D01*
X278657Y428575D01*
X282765Y430277D01*
X287590Y430277D01*
X287661Y430288D01*
X287733Y430290D01*
X287781Y430308D01*
X287833Y430316D01*
X287896Y430350D01*
X287964Y430375D01*
X288004Y430407D01*
X288050Y430432D01*
X288100Y430484D01*
X288156Y430528D01*
X288184Y430572D01*
X288220Y430610D01*
X288250Y430675D01*
X288289Y430735D01*
X288301Y430786D01*
X288323Y430833D01*
X288331Y430904D01*
X288349Y430974D01*
X288345Y431026D01*
X288350Y431077D01*
X288335Y431148D01*
X288329Y431219D01*
X288309Y431267D01*
X288298Y431318D01*
X288261Y431379D01*
X288233Y431445D01*
X288188Y431501D01*
X288172Y431529D01*
X288154Y431544D01*
X288128Y431576D01*
X286287Y433417D01*
X285015Y436488D01*
X285015Y439812D01*
X286287Y442883D01*
X288637Y445233D01*
X291708Y446505D01*
X295032Y446505D01*
X298103Y445233D01*
X298866Y444470D01*
X298940Y444417D01*
X299009Y444357D01*
X299039Y444345D01*
X299065Y444326D01*
X299152Y444299D01*
X299237Y444265D01*
X299278Y444261D01*
X299301Y444254D01*
X299333Y444255D01*
X299404Y444247D01*
X313633Y444247D01*
X315874Y443319D01*
X321534Y437658D01*
X321592Y437616D01*
X321644Y437567D01*
X321691Y437545D01*
X321733Y437515D01*
X321802Y437494D01*
X321867Y437463D01*
X321919Y437458D01*
X321969Y437442D01*
X322040Y437444D01*
X322111Y437436D01*
X322162Y437447D01*
X322214Y437449D01*
X322282Y437473D01*
X322352Y437489D01*
X322397Y437515D01*
X322445Y437533D01*
X322501Y437578D01*
X322563Y437615D01*
X322597Y437654D01*
X322637Y437687D01*
X322676Y437747D01*
X322723Y437802D01*
X322742Y437850D01*
X322770Y437894D01*
X322788Y437963D01*
X322815Y438030D01*
X322823Y438101D01*
X322831Y438132D01*
X322829Y438156D01*
X322833Y438197D01*
X322833Y457143D01*
X323761Y459384D01*
X357226Y492849D01*
X359467Y493777D01*
X359726Y493777D01*
X359816Y493791D01*
X359907Y493799D01*
X359937Y493811D01*
X359969Y493816D01*
X360049Y493859D01*
X360133Y493895D01*
X360166Y493921D01*
X360186Y493932D01*
X360208Y493955D01*
X360264Y494000D01*
X360900Y494636D01*
X360942Y494694D01*
X360992Y494746D01*
X361014Y494793D01*
X361044Y494835D01*
X361065Y494904D01*
X361095Y494969D01*
X361101Y495021D01*
X361116Y495071D01*
X361114Y495142D01*
X361122Y495213D01*
X361111Y495264D01*
X361110Y495316D01*
X361085Y495384D01*
X361070Y495454D01*
X361043Y495499D01*
X361025Y495547D01*
X360981Y495603D01*
X360944Y495665D01*
X360904Y495699D01*
X360872Y495739D01*
X360811Y495778D01*
X360757Y495825D01*
X360709Y495844D01*
X360665Y495872D01*
X360595Y495890D01*
X360529Y495917D01*
X360458Y495925D01*
X360426Y495933D01*
X360403Y495931D01*
X360362Y495935D01*
X4826Y495935D01*
X4806Y495932D01*
X4787Y495934D01*
X4685Y495912D01*
X4583Y495896D01*
X4566Y495886D01*
X4546Y495882D01*
X4457Y495829D01*
X4366Y495780D01*
X4352Y495766D01*
X4335Y495756D01*
X4268Y495677D01*
X4196Y495602D01*
X4188Y495584D01*
X4175Y495569D01*
X4136Y495473D01*
X4093Y495379D01*
X4091Y495359D01*
X4083Y495341D01*
X4065Y495174D01*
X4065Y4826D01*
X4068Y4806D01*
X4066Y4787D01*
X4088Y4685D01*
X4104Y4583D01*
X4114Y4566D01*
X4118Y4546D01*
X4171Y4457D01*
X4220Y4366D01*
X4234Y4352D01*
X4244Y4335D01*
X4323Y4268D01*
X4398Y4196D01*
X4416Y4188D01*
X4431Y4175D01*
X4527Y4136D01*
X4621Y4093D01*
X4641Y4091D01*
X4659Y4083D01*
X4826Y4065D01*
X495174Y4065D01*
X495194Y4068D01*
G37*
%LPC*%
G36*
X469899Y142239D02*
X469899Y142239D01*
X469899Y143002D01*
X469896Y143022D01*
X469898Y143041D01*
X469876Y143143D01*
X469859Y143245D01*
X469850Y143262D01*
X469846Y143282D01*
X469793Y143371D01*
X469744Y143462D01*
X469730Y143476D01*
X469720Y143493D01*
X469641Y143560D01*
X469566Y143631D01*
X469548Y143640D01*
X469533Y143653D01*
X469437Y143692D01*
X469343Y143735D01*
X469323Y143737D01*
X469305Y143745D01*
X469138Y143763D01*
X458054Y143763D01*
X458255Y145036D01*
X458836Y146823D01*
X459689Y148497D01*
X460794Y150018D01*
X462122Y151346D01*
X463643Y152451D01*
X465317Y153304D01*
X465604Y153397D01*
X465694Y153444D01*
X465786Y153485D01*
X465802Y153500D01*
X465822Y153510D01*
X465893Y153583D01*
X465967Y153651D01*
X465978Y153671D01*
X465993Y153687D01*
X466037Y153778D01*
X466086Y153867D01*
X466090Y153889D01*
X466099Y153909D01*
X466112Y154009D01*
X466130Y154109D01*
X466126Y154131D01*
X466129Y154153D01*
X466109Y154252D01*
X466094Y154352D01*
X466084Y154372D01*
X466079Y154394D01*
X466028Y154481D01*
X465982Y154571D01*
X465966Y154587D01*
X465955Y154606D01*
X465879Y154673D01*
X465807Y154744D01*
X465783Y154757D01*
X465770Y154768D01*
X465740Y154780D01*
X465660Y154824D01*
X462274Y156227D01*
X458487Y160014D01*
X456437Y164962D01*
X456437Y168355D01*
X456423Y168445D01*
X456415Y168536D01*
X456403Y168566D01*
X456398Y168598D01*
X456355Y168679D01*
X456319Y168763D01*
X456293Y168795D01*
X456282Y168815D01*
X456259Y168838D01*
X456214Y168894D01*
X455406Y169702D01*
X455332Y169755D01*
X455262Y169815D01*
X455232Y169827D01*
X455206Y169846D01*
X455119Y169873D01*
X455034Y169907D01*
X454993Y169911D01*
X454971Y169918D01*
X454939Y169917D01*
X454867Y169925D01*
X452841Y169925D01*
X449480Y171317D01*
X448047Y172750D01*
X447973Y172803D01*
X447904Y172863D01*
X447874Y172875D01*
X447847Y172894D01*
X447760Y172921D01*
X447676Y172955D01*
X447635Y172959D01*
X447612Y172966D01*
X447580Y172965D01*
X447509Y172973D01*
X417887Y172973D01*
X415646Y173901D01*
X413931Y175616D01*
X413003Y177857D01*
X413003Y189843D01*
X412993Y189908D01*
X412992Y189973D01*
X412969Y190053D01*
X412964Y190086D01*
X412954Y190103D01*
X412945Y190134D01*
X412495Y191221D01*
X412495Y194859D01*
X412945Y195946D01*
X412960Y196009D01*
X412985Y196070D01*
X412994Y196153D01*
X413001Y196185D01*
X413000Y196204D01*
X413003Y196237D01*
X413003Y209086D01*
X412996Y209131D01*
X412998Y209177D01*
X412976Y209252D01*
X412964Y209328D01*
X412942Y209369D01*
X412929Y209413D01*
X412885Y209477D01*
X412848Y209546D01*
X412815Y209577D01*
X412789Y209615D01*
X412727Y209661D01*
X412670Y209715D01*
X412628Y209734D01*
X412592Y209762D01*
X412518Y209786D01*
X412447Y209819D01*
X412401Y209824D01*
X412358Y209838D01*
X412280Y209837D01*
X412203Y209846D01*
X412158Y209836D01*
X412112Y209836D01*
X411980Y209798D01*
X411962Y209794D01*
X411958Y209791D01*
X411951Y209789D01*
X410759Y209295D01*
X407121Y209295D01*
X403760Y210687D01*
X401187Y213260D01*
X399795Y216621D01*
X399795Y220259D01*
X401187Y223620D01*
X401434Y223867D01*
X401446Y223883D01*
X401462Y223896D01*
X401518Y223983D01*
X401578Y224067D01*
X401584Y224086D01*
X401595Y224103D01*
X401620Y224203D01*
X401650Y224302D01*
X401650Y224322D01*
X401655Y224341D01*
X401647Y224444D01*
X401644Y224548D01*
X401637Y224566D01*
X401636Y224586D01*
X401595Y224681D01*
X401559Y224779D01*
X401547Y224794D01*
X401539Y224813D01*
X401434Y224944D01*
X385991Y240386D01*
X385063Y242627D01*
X385063Y345575D01*
X385049Y345665D01*
X385041Y345756D01*
X385029Y345786D01*
X385024Y345818D01*
X384981Y345899D01*
X384945Y345982D01*
X384919Y346015D01*
X384908Y346035D01*
X384885Y346057D01*
X384840Y346113D01*
X379983Y350970D01*
X379983Y360230D01*
X386530Y366777D01*
X395790Y366777D01*
X402337Y360230D01*
X402337Y350970D01*
X397480Y346113D01*
X397427Y346039D01*
X397367Y345970D01*
X397355Y345940D01*
X397336Y345914D01*
X397309Y345827D01*
X397275Y345742D01*
X397271Y345701D01*
X397264Y345679D01*
X397265Y345646D01*
X397257Y345575D01*
X397257Y246681D01*
X397271Y246591D01*
X397279Y246500D01*
X397291Y246470D01*
X397296Y246438D01*
X397339Y246357D01*
X397375Y246273D01*
X397401Y246241D01*
X397412Y246221D01*
X397435Y246198D01*
X397480Y246142D01*
X424269Y219354D01*
X425197Y217113D01*
X425197Y201974D01*
X425199Y201960D01*
X425198Y201950D01*
X425209Y201898D01*
X425216Y201859D01*
X425233Y201743D01*
X425235Y201737D01*
X425236Y201731D01*
X425291Y201628D01*
X425344Y201523D01*
X425349Y201519D01*
X425352Y201513D01*
X425436Y201433D01*
X425520Y201351D01*
X425526Y201348D01*
X425530Y201344D01*
X425547Y201336D01*
X425667Y201270D01*
X426820Y200793D01*
X429393Y198220D01*
X430785Y194859D01*
X430785Y191221D01*
X429393Y187860D01*
X427999Y186466D01*
X427957Y186408D01*
X427908Y186356D01*
X427886Y186309D01*
X427855Y186267D01*
X427834Y186198D01*
X427804Y186133D01*
X427798Y186081D01*
X427783Y186031D01*
X427785Y185960D01*
X427777Y185889D01*
X427788Y185838D01*
X427789Y185786D01*
X427814Y185718D01*
X427829Y185648D01*
X427856Y185603D01*
X427874Y185555D01*
X427919Y185499D01*
X427955Y185437D01*
X427995Y185403D01*
X428027Y185363D01*
X428088Y185324D01*
X428142Y185277D01*
X428191Y185258D01*
X428234Y185230D01*
X428304Y185212D01*
X428370Y185185D01*
X428442Y185177D01*
X428473Y185169D01*
X428496Y185171D01*
X428537Y185167D01*
X447509Y185167D01*
X447599Y185181D01*
X447690Y185189D01*
X447720Y185201D01*
X447752Y185206D01*
X447832Y185249D01*
X447916Y185285D01*
X447948Y185311D01*
X447969Y185322D01*
X447991Y185345D01*
X448047Y185390D01*
X449480Y186823D01*
X452841Y188215D01*
X456187Y188215D01*
X456233Y188222D01*
X456279Y188220D01*
X456353Y188242D01*
X456430Y188254D01*
X456471Y188276D01*
X456515Y188289D01*
X456579Y188333D01*
X456648Y188370D01*
X456679Y188403D01*
X456717Y188429D01*
X456763Y188491D01*
X456817Y188548D01*
X456836Y188590D01*
X456864Y188626D01*
X456888Y188700D01*
X456921Y188771D01*
X456926Y188817D01*
X456940Y188860D01*
X456939Y188938D01*
X456948Y189015D01*
X456938Y189060D01*
X456937Y189106D01*
X456899Y189238D01*
X456895Y189256D01*
X456893Y189260D01*
X456891Y189267D01*
X456437Y190362D01*
X456437Y195718D01*
X458487Y200666D01*
X462274Y204453D01*
X463683Y205037D01*
X463744Y205074D01*
X463809Y205104D01*
X463848Y205139D01*
X463892Y205166D01*
X463938Y205222D01*
X463990Y205270D01*
X464015Y205316D01*
X464049Y205356D01*
X464074Y205423D01*
X464109Y205486D01*
X464118Y205537D01*
X464137Y205585D01*
X464140Y205657D01*
X464153Y205728D01*
X464145Y205779D01*
X464147Y205831D01*
X464127Y205900D01*
X464117Y205971D01*
X464093Y206017D01*
X464079Y206067D01*
X464038Y206126D01*
X464005Y206190D01*
X463968Y206227D01*
X463938Y206269D01*
X463881Y206312D01*
X463830Y206362D01*
X463767Y206397D01*
X463741Y206416D01*
X463719Y206423D01*
X463683Y206443D01*
X462274Y207027D01*
X458487Y210814D01*
X456437Y215762D01*
X456437Y221118D01*
X458487Y226066D01*
X462274Y229853D01*
X463683Y230437D01*
X463744Y230474D01*
X463809Y230504D01*
X463848Y230539D01*
X463892Y230566D01*
X463938Y230622D01*
X463990Y230670D01*
X464015Y230716D01*
X464049Y230756D01*
X464074Y230823D01*
X464109Y230886D01*
X464118Y230937D01*
X464137Y230985D01*
X464140Y231057D01*
X464153Y231128D01*
X464145Y231179D01*
X464147Y231231D01*
X464127Y231300D01*
X464117Y231371D01*
X464093Y231417D01*
X464079Y231467D01*
X464038Y231526D01*
X464005Y231590D01*
X463968Y231627D01*
X463938Y231669D01*
X463881Y231712D01*
X463830Y231762D01*
X463767Y231797D01*
X463741Y231816D01*
X463719Y231823D01*
X463683Y231843D01*
X462274Y232427D01*
X458487Y236214D01*
X456437Y241162D01*
X456437Y246518D01*
X458487Y251466D01*
X461753Y254732D01*
X461764Y254748D01*
X461780Y254760D01*
X461836Y254848D01*
X461896Y254931D01*
X461902Y254950D01*
X461913Y254967D01*
X461938Y255068D01*
X461940Y255072D01*
X461941Y255076D01*
X461968Y255167D01*
X461968Y255186D01*
X461973Y255206D01*
X461965Y255300D01*
X461967Y255317D01*
X461964Y255331D01*
X461962Y255412D01*
X461955Y255431D01*
X461954Y255451D01*
X461922Y255526D01*
X461915Y255557D01*
X461900Y255582D01*
X461878Y255643D01*
X461865Y255659D01*
X461857Y255677D01*
X461801Y255748D01*
X461789Y255768D01*
X461776Y255779D01*
X461753Y255808D01*
X458487Y259074D01*
X456437Y264022D01*
X456437Y269378D01*
X458487Y274326D01*
X462274Y278113D01*
X463683Y278697D01*
X463744Y278734D01*
X463809Y278764D01*
X463848Y278799D01*
X463892Y278826D01*
X463938Y278882D01*
X463990Y278930D01*
X464015Y278976D01*
X464049Y279016D01*
X464074Y279083D01*
X464109Y279146D01*
X464118Y279197D01*
X464137Y279245D01*
X464140Y279317D01*
X464153Y279388D01*
X464145Y279439D01*
X464147Y279491D01*
X464127Y279560D01*
X464117Y279631D01*
X464093Y279677D01*
X464079Y279727D01*
X464038Y279786D01*
X464005Y279850D01*
X463968Y279887D01*
X463938Y279929D01*
X463881Y279972D01*
X463830Y280022D01*
X463767Y280057D01*
X463741Y280076D01*
X463719Y280083D01*
X463683Y280103D01*
X462274Y280687D01*
X458487Y284474D01*
X456437Y289422D01*
X456437Y294778D01*
X458487Y299726D01*
X462274Y303513D01*
X463683Y304097D01*
X463744Y304134D01*
X463809Y304164D01*
X463848Y304199D01*
X463892Y304226D01*
X463938Y304282D01*
X463990Y304330D01*
X464015Y304376D01*
X464049Y304416D01*
X464074Y304483D01*
X464109Y304546D01*
X464118Y304597D01*
X464137Y304645D01*
X464140Y304717D01*
X464153Y304788D01*
X464145Y304839D01*
X464147Y304891D01*
X464127Y304960D01*
X464117Y305031D01*
X464093Y305077D01*
X464079Y305127D01*
X464038Y305186D01*
X464005Y305250D01*
X463968Y305287D01*
X463938Y305329D01*
X463881Y305372D01*
X463830Y305422D01*
X463767Y305457D01*
X463741Y305476D01*
X463719Y305483D01*
X463683Y305503D01*
X462274Y306087D01*
X458487Y309874D01*
X456437Y314822D01*
X456437Y320178D01*
X458487Y325126D01*
X462274Y328913D01*
X463683Y329497D01*
X463744Y329534D01*
X463809Y329564D01*
X463848Y329599D01*
X463892Y329626D01*
X463938Y329682D01*
X463990Y329730D01*
X464015Y329776D01*
X464049Y329816D01*
X464074Y329883D01*
X464109Y329946D01*
X464118Y329997D01*
X464137Y330045D01*
X464140Y330117D01*
X464153Y330188D01*
X464145Y330239D01*
X464147Y330291D01*
X464127Y330360D01*
X464117Y330431D01*
X464093Y330477D01*
X464079Y330527D01*
X464038Y330586D01*
X464005Y330650D01*
X463968Y330687D01*
X463938Y330729D01*
X463881Y330772D01*
X463830Y330822D01*
X463767Y330857D01*
X463741Y330876D01*
X463719Y330883D01*
X463683Y330903D01*
X462274Y331487D01*
X458487Y335274D01*
X456437Y340222D01*
X456437Y345578D01*
X458487Y350526D01*
X462274Y354313D01*
X463683Y354897D01*
X463744Y354934D01*
X463809Y354964D01*
X463848Y354999D01*
X463892Y355026D01*
X463938Y355082D01*
X463990Y355130D01*
X464015Y355176D01*
X464049Y355216D01*
X464074Y355283D01*
X464109Y355346D01*
X464118Y355397D01*
X464137Y355445D01*
X464140Y355517D01*
X464153Y355588D01*
X464145Y355639D01*
X464147Y355691D01*
X464127Y355760D01*
X464117Y355831D01*
X464093Y355877D01*
X464079Y355927D01*
X464038Y355986D01*
X464005Y356050D01*
X463968Y356087D01*
X463938Y356129D01*
X463881Y356172D01*
X463830Y356222D01*
X463767Y356257D01*
X463741Y356276D01*
X463719Y356283D01*
X463683Y356303D01*
X462274Y356887D01*
X458487Y360674D01*
X456437Y365622D01*
X456437Y370978D01*
X458487Y375926D01*
X462274Y379713D01*
X467222Y381763D01*
X472578Y381763D01*
X477526Y379713D01*
X481313Y375926D01*
X483363Y370978D01*
X483363Y365622D01*
X481313Y360674D01*
X477526Y356887D01*
X476117Y356303D01*
X476056Y356265D01*
X475991Y356236D01*
X475952Y356201D01*
X475908Y356174D01*
X475862Y356118D01*
X475810Y356070D01*
X475785Y356024D01*
X475751Y355984D01*
X475726Y355917D01*
X475691Y355854D01*
X475682Y355803D01*
X475663Y355755D01*
X475660Y355683D01*
X475647Y355612D01*
X475655Y355561D01*
X475653Y355509D01*
X475673Y355440D01*
X475683Y355369D01*
X475707Y355323D01*
X475721Y355273D01*
X475762Y355214D01*
X475795Y355150D01*
X475832Y355113D01*
X475862Y355071D01*
X475919Y355028D01*
X475970Y354978D01*
X476033Y354943D01*
X476059Y354924D01*
X476081Y354917D01*
X476117Y354897D01*
X477526Y354313D01*
X481313Y350526D01*
X483363Y345578D01*
X483363Y340222D01*
X481313Y335274D01*
X477526Y331487D01*
X476117Y330903D01*
X476056Y330865D01*
X475991Y330836D01*
X475952Y330801D01*
X475908Y330774D01*
X475862Y330718D01*
X475810Y330670D01*
X475785Y330624D01*
X475751Y330584D01*
X475726Y330517D01*
X475691Y330454D01*
X475682Y330403D01*
X475663Y330355D01*
X475660Y330283D01*
X475647Y330212D01*
X475655Y330161D01*
X475653Y330109D01*
X475673Y330040D01*
X475683Y329969D01*
X475707Y329923D01*
X475721Y329873D01*
X475762Y329814D01*
X475795Y329750D01*
X475832Y329713D01*
X475862Y329671D01*
X475919Y329628D01*
X475970Y329578D01*
X476033Y329543D01*
X476059Y329524D01*
X476081Y329517D01*
X476117Y329497D01*
X477526Y328913D01*
X481313Y325126D01*
X483363Y320178D01*
X483363Y314822D01*
X481313Y309874D01*
X477526Y306087D01*
X476117Y305503D01*
X476056Y305465D01*
X475991Y305436D01*
X475952Y305401D01*
X475908Y305374D01*
X475862Y305318D01*
X475810Y305270D01*
X475785Y305224D01*
X475751Y305184D01*
X475726Y305117D01*
X475691Y305054D01*
X475682Y305003D01*
X475663Y304955D01*
X475660Y304883D01*
X475647Y304812D01*
X475655Y304761D01*
X475653Y304709D01*
X475673Y304640D01*
X475683Y304569D01*
X475707Y304523D01*
X475721Y304473D01*
X475762Y304414D01*
X475795Y304350D01*
X475832Y304313D01*
X475862Y304271D01*
X475919Y304228D01*
X475970Y304178D01*
X476033Y304143D01*
X476059Y304124D01*
X476081Y304117D01*
X476117Y304097D01*
X477526Y303513D01*
X481313Y299726D01*
X483363Y294778D01*
X483363Y289422D01*
X481313Y284474D01*
X477526Y280687D01*
X476117Y280103D01*
X476056Y280065D01*
X475991Y280036D01*
X475952Y280001D01*
X475908Y279974D01*
X475862Y279918D01*
X475810Y279870D01*
X475785Y279824D01*
X475751Y279784D01*
X475726Y279717D01*
X475691Y279654D01*
X475682Y279603D01*
X475663Y279555D01*
X475660Y279483D01*
X475647Y279412D01*
X475655Y279361D01*
X475653Y279309D01*
X475673Y279240D01*
X475683Y279169D01*
X475707Y279123D01*
X475721Y279073D01*
X475762Y279014D01*
X475795Y278950D01*
X475832Y278913D01*
X475862Y278871D01*
X475919Y278828D01*
X475970Y278778D01*
X476033Y278743D01*
X476059Y278724D01*
X476081Y278717D01*
X476117Y278697D01*
X477526Y278113D01*
X481313Y274326D01*
X483363Y269378D01*
X483363Y264022D01*
X481313Y259074D01*
X478047Y255808D01*
X478036Y255792D01*
X478020Y255780D01*
X477991Y255735D01*
X477963Y255705D01*
X477945Y255666D01*
X477904Y255609D01*
X477898Y255590D01*
X477887Y255573D01*
X477870Y255504D01*
X477860Y255482D01*
X477857Y255456D01*
X477832Y255373D01*
X477832Y255354D01*
X477827Y255334D01*
X477834Y255248D01*
X477833Y255238D01*
X477835Y255226D01*
X477838Y255128D01*
X477845Y255109D01*
X477846Y255089D01*
X477885Y254999D01*
X477885Y254997D01*
X477886Y254996D01*
X477887Y254994D01*
X477922Y254897D01*
X477935Y254881D01*
X477943Y254863D01*
X478047Y254732D01*
X481313Y251466D01*
X483363Y246518D01*
X483363Y241162D01*
X481313Y236214D01*
X477526Y232427D01*
X476117Y231843D01*
X476056Y231805D01*
X475991Y231776D01*
X475952Y231741D01*
X475908Y231714D01*
X475862Y231658D01*
X475810Y231610D01*
X475785Y231564D01*
X475751Y231524D01*
X475726Y231457D01*
X475691Y231394D01*
X475682Y231343D01*
X475663Y231295D01*
X475660Y231223D01*
X475647Y231152D01*
X475655Y231101D01*
X475653Y231049D01*
X475673Y230980D01*
X475683Y230909D01*
X475707Y230863D01*
X475721Y230813D01*
X475762Y230754D01*
X475795Y230690D01*
X475832Y230653D01*
X475862Y230611D01*
X475919Y230568D01*
X475970Y230518D01*
X476033Y230483D01*
X476059Y230464D01*
X476081Y230457D01*
X476117Y230437D01*
X477526Y229853D01*
X481313Y226066D01*
X483363Y221118D01*
X483363Y215762D01*
X481313Y210814D01*
X477526Y207027D01*
X476117Y206443D01*
X476056Y206405D01*
X475991Y206376D01*
X475952Y206341D01*
X475908Y206314D01*
X475862Y206258D01*
X475810Y206210D01*
X475785Y206164D01*
X475751Y206124D01*
X475726Y206057D01*
X475691Y205994D01*
X475682Y205943D01*
X475663Y205895D01*
X475660Y205823D01*
X475647Y205752D01*
X475655Y205701D01*
X475653Y205649D01*
X475673Y205580D01*
X475683Y205509D01*
X475707Y205463D01*
X475721Y205413D01*
X475762Y205354D01*
X475795Y205290D01*
X475832Y205253D01*
X475862Y205211D01*
X475919Y205168D01*
X475970Y205118D01*
X476033Y205083D01*
X476059Y205064D01*
X476081Y205057D01*
X476117Y205037D01*
X477526Y204453D01*
X481313Y200666D01*
X483363Y195718D01*
X483363Y190362D01*
X481313Y185414D01*
X477526Y181627D01*
X476117Y181043D01*
X476056Y181005D01*
X475991Y180976D01*
X475952Y180941D01*
X475908Y180914D01*
X475862Y180858D01*
X475810Y180810D01*
X475785Y180764D01*
X475751Y180724D01*
X475726Y180657D01*
X475691Y180594D01*
X475682Y180543D01*
X475663Y180495D01*
X475660Y180423D01*
X475647Y180352D01*
X475655Y180301D01*
X475653Y180249D01*
X475673Y180180D01*
X475683Y180109D01*
X475707Y180063D01*
X475721Y180013D01*
X475762Y179954D01*
X475795Y179890D01*
X475832Y179853D01*
X475862Y179811D01*
X475919Y179768D01*
X475970Y179718D01*
X476033Y179683D01*
X476059Y179664D01*
X476081Y179657D01*
X476117Y179637D01*
X477526Y179053D01*
X481313Y175266D01*
X483363Y170318D01*
X483363Y164962D01*
X481313Y160014D01*
X477526Y156227D01*
X474140Y154824D01*
X474054Y154771D01*
X473965Y154723D01*
X473950Y154706D01*
X473931Y154695D01*
X473867Y154617D01*
X473798Y154543D01*
X473789Y154522D01*
X473774Y154505D01*
X473738Y154411D01*
X473696Y154318D01*
X473694Y154296D01*
X473686Y154276D01*
X473682Y154175D01*
X473672Y154074D01*
X473677Y154052D01*
X473676Y154030D01*
X473704Y153933D01*
X473727Y153834D01*
X473738Y153815D01*
X473744Y153794D01*
X473802Y153711D01*
X473855Y153624D01*
X473872Y153610D01*
X473885Y153592D01*
X473966Y153531D01*
X474044Y153466D01*
X474068Y153455D01*
X474082Y153445D01*
X474113Y153435D01*
X474196Y153397D01*
X474483Y153304D01*
X476157Y152451D01*
X477678Y151346D01*
X479006Y150018D01*
X480111Y148497D01*
X480964Y146823D01*
X481545Y145036D01*
X481746Y143763D01*
X470662Y143763D01*
X470642Y143760D01*
X470623Y143762D01*
X470521Y143740D01*
X470419Y143723D01*
X470402Y143714D01*
X470382Y143710D01*
X470293Y143657D01*
X470202Y143608D01*
X470188Y143594D01*
X470171Y143584D01*
X470104Y143505D01*
X470033Y143430D01*
X470024Y143412D01*
X470011Y143397D01*
X469973Y143301D01*
X469929Y143207D01*
X469927Y143187D01*
X469919Y143169D01*
X469901Y143002D01*
X469901Y142239D01*
X469899Y142239D01*
G37*
%LPD*%
%LPC*%
G36*
X26669Y165099D02*
X26669Y165099D01*
X26669Y165862D01*
X26666Y165882D01*
X26668Y165901D01*
X26646Y166003D01*
X26629Y166105D01*
X26620Y166122D01*
X26616Y166142D01*
X26563Y166231D01*
X26514Y166322D01*
X26500Y166336D01*
X26490Y166353D01*
X26411Y166420D01*
X26336Y166491D01*
X26318Y166500D01*
X26303Y166513D01*
X26207Y166552D01*
X26113Y166595D01*
X26093Y166597D01*
X26075Y166605D01*
X25908Y166623D01*
X14824Y166623D01*
X15025Y167896D01*
X15606Y169683D01*
X16459Y171357D01*
X17564Y172878D01*
X18892Y174206D01*
X20413Y175311D01*
X22087Y176164D01*
X22374Y176257D01*
X22464Y176304D01*
X22556Y176345D01*
X22572Y176360D01*
X22592Y176370D01*
X22663Y176443D01*
X22737Y176511D01*
X22748Y176531D01*
X22763Y176547D01*
X22807Y176638D01*
X22856Y176727D01*
X22860Y176749D01*
X22869Y176769D01*
X22882Y176869D01*
X22900Y176969D01*
X22896Y176991D01*
X22899Y177013D01*
X22879Y177112D01*
X22864Y177212D01*
X22854Y177232D01*
X22849Y177254D01*
X22798Y177341D01*
X22752Y177431D01*
X22736Y177447D01*
X22725Y177466D01*
X22649Y177533D01*
X22577Y177604D01*
X22553Y177617D01*
X22540Y177628D01*
X22510Y177640D01*
X22430Y177684D01*
X19044Y179087D01*
X15257Y182874D01*
X13207Y187822D01*
X13207Y193178D01*
X15257Y198126D01*
X19044Y201913D01*
X20453Y202497D01*
X20514Y202534D01*
X20579Y202564D01*
X20618Y202599D01*
X20662Y202626D01*
X20708Y202682D01*
X20760Y202730D01*
X20785Y202776D01*
X20819Y202816D01*
X20844Y202883D01*
X20879Y202946D01*
X20888Y202997D01*
X20907Y203045D01*
X20910Y203117D01*
X20923Y203188D01*
X20915Y203239D01*
X20917Y203291D01*
X20897Y203360D01*
X20887Y203431D01*
X20863Y203477D01*
X20849Y203527D01*
X20808Y203586D01*
X20775Y203650D01*
X20738Y203687D01*
X20708Y203729D01*
X20651Y203772D01*
X20600Y203822D01*
X20537Y203857D01*
X20511Y203876D01*
X20489Y203883D01*
X20453Y203903D01*
X19044Y204487D01*
X15257Y208274D01*
X13207Y213222D01*
X13207Y218578D01*
X15257Y223526D01*
X19044Y227313D01*
X20453Y227897D01*
X20514Y227934D01*
X20579Y227964D01*
X20618Y227999D01*
X20662Y228026D01*
X20708Y228082D01*
X20760Y228130D01*
X20785Y228176D01*
X20819Y228216D01*
X20844Y228283D01*
X20879Y228346D01*
X20888Y228397D01*
X20907Y228445D01*
X20910Y228517D01*
X20923Y228588D01*
X20915Y228639D01*
X20917Y228691D01*
X20897Y228760D01*
X20887Y228831D01*
X20863Y228877D01*
X20849Y228927D01*
X20808Y228986D01*
X20775Y229050D01*
X20738Y229087D01*
X20708Y229129D01*
X20651Y229172D01*
X20600Y229222D01*
X20537Y229257D01*
X20511Y229276D01*
X20489Y229283D01*
X20453Y229303D01*
X19044Y229887D01*
X15257Y233674D01*
X13207Y238622D01*
X13207Y243978D01*
X15257Y248926D01*
X19044Y252713D01*
X19818Y253034D01*
X19879Y253071D01*
X19944Y253101D01*
X19983Y253136D01*
X20027Y253163D01*
X20073Y253219D01*
X20125Y253267D01*
X20150Y253313D01*
X20184Y253353D01*
X20209Y253420D01*
X20244Y253483D01*
X20253Y253534D01*
X20272Y253582D01*
X20275Y253654D01*
X20288Y253725D01*
X20280Y253776D01*
X20282Y253828D01*
X20262Y253897D01*
X20252Y253968D01*
X20228Y254014D01*
X20214Y254064D01*
X20173Y254123D01*
X20140Y254187D01*
X20103Y254224D01*
X20073Y254266D01*
X20016Y254309D01*
X19965Y254359D01*
X19902Y254394D01*
X19876Y254413D01*
X19854Y254420D01*
X19818Y254440D01*
X17774Y255287D01*
X13987Y259074D01*
X11937Y264022D01*
X11937Y269378D01*
X13987Y274326D01*
X17774Y278113D01*
X19183Y278697D01*
X19244Y278734D01*
X19309Y278764D01*
X19348Y278799D01*
X19392Y278826D01*
X19438Y278882D01*
X19490Y278930D01*
X19515Y278976D01*
X19549Y279016D01*
X19574Y279083D01*
X19609Y279146D01*
X19618Y279197D01*
X19637Y279245D01*
X19640Y279317D01*
X19653Y279388D01*
X19645Y279439D01*
X19647Y279491D01*
X19627Y279560D01*
X19617Y279631D01*
X19593Y279677D01*
X19579Y279727D01*
X19538Y279786D01*
X19505Y279850D01*
X19468Y279887D01*
X19438Y279929D01*
X19381Y279972D01*
X19330Y280022D01*
X19267Y280057D01*
X19241Y280076D01*
X19219Y280083D01*
X19183Y280103D01*
X17774Y280687D01*
X13987Y284474D01*
X11937Y289422D01*
X11937Y294778D01*
X13987Y299726D01*
X17774Y303513D01*
X19183Y304097D01*
X19244Y304134D01*
X19309Y304164D01*
X19348Y304199D01*
X19392Y304226D01*
X19438Y304282D01*
X19490Y304330D01*
X19515Y304376D01*
X19549Y304416D01*
X19574Y304483D01*
X19609Y304546D01*
X19618Y304597D01*
X19637Y304645D01*
X19640Y304717D01*
X19653Y304788D01*
X19645Y304839D01*
X19647Y304891D01*
X19627Y304960D01*
X19617Y305031D01*
X19593Y305077D01*
X19579Y305127D01*
X19538Y305186D01*
X19505Y305250D01*
X19468Y305287D01*
X19438Y305329D01*
X19381Y305372D01*
X19330Y305422D01*
X19267Y305457D01*
X19241Y305476D01*
X19219Y305483D01*
X19183Y305503D01*
X17774Y306087D01*
X13987Y309874D01*
X11937Y314822D01*
X11937Y320178D01*
X13987Y325126D01*
X17774Y328913D01*
X19183Y329497D01*
X19244Y329534D01*
X19309Y329564D01*
X19348Y329599D01*
X19392Y329626D01*
X19438Y329682D01*
X19490Y329730D01*
X19515Y329776D01*
X19549Y329816D01*
X19574Y329883D01*
X19609Y329946D01*
X19618Y329997D01*
X19637Y330045D01*
X19640Y330117D01*
X19653Y330188D01*
X19645Y330239D01*
X19647Y330291D01*
X19627Y330360D01*
X19617Y330431D01*
X19593Y330477D01*
X19579Y330527D01*
X19538Y330586D01*
X19505Y330650D01*
X19468Y330687D01*
X19438Y330729D01*
X19381Y330772D01*
X19330Y330822D01*
X19267Y330857D01*
X19241Y330876D01*
X19219Y330883D01*
X19183Y330903D01*
X17774Y331487D01*
X13987Y335274D01*
X11937Y340222D01*
X11937Y345578D01*
X13987Y350526D01*
X17774Y354313D01*
X19183Y354897D01*
X19244Y354934D01*
X19309Y354964D01*
X19348Y354999D01*
X19392Y355026D01*
X19438Y355082D01*
X19490Y355130D01*
X19515Y355176D01*
X19549Y355216D01*
X19574Y355283D01*
X19609Y355346D01*
X19618Y355397D01*
X19637Y355445D01*
X19640Y355517D01*
X19653Y355588D01*
X19645Y355639D01*
X19647Y355691D01*
X19627Y355760D01*
X19617Y355831D01*
X19593Y355877D01*
X19579Y355927D01*
X19538Y355986D01*
X19505Y356050D01*
X19468Y356087D01*
X19438Y356129D01*
X19381Y356172D01*
X19330Y356222D01*
X19267Y356257D01*
X19241Y356276D01*
X19219Y356283D01*
X19183Y356303D01*
X17774Y356887D01*
X13987Y360674D01*
X11937Y365622D01*
X11937Y370978D01*
X13987Y375926D01*
X17774Y379713D01*
X22722Y381763D01*
X28078Y381763D01*
X33026Y379713D01*
X36813Y375926D01*
X38863Y370978D01*
X38863Y365622D01*
X36813Y360674D01*
X33026Y356887D01*
X31617Y356303D01*
X31556Y356265D01*
X31491Y356236D01*
X31452Y356201D01*
X31408Y356174D01*
X31362Y356118D01*
X31310Y356070D01*
X31285Y356024D01*
X31251Y355984D01*
X31226Y355917D01*
X31191Y355854D01*
X31182Y355803D01*
X31163Y355755D01*
X31160Y355683D01*
X31147Y355612D01*
X31155Y355561D01*
X31153Y355509D01*
X31173Y355440D01*
X31183Y355369D01*
X31207Y355323D01*
X31221Y355273D01*
X31262Y355214D01*
X31295Y355150D01*
X31332Y355113D01*
X31362Y355071D01*
X31419Y355028D01*
X31470Y354978D01*
X31533Y354943D01*
X31559Y354924D01*
X31581Y354917D01*
X31617Y354897D01*
X33026Y354313D01*
X36813Y350526D01*
X38863Y345578D01*
X38863Y340222D01*
X36813Y335274D01*
X33026Y331487D01*
X31617Y330903D01*
X31556Y330865D01*
X31491Y330836D01*
X31452Y330801D01*
X31408Y330774D01*
X31362Y330718D01*
X31310Y330670D01*
X31285Y330624D01*
X31251Y330584D01*
X31226Y330517D01*
X31191Y330454D01*
X31182Y330403D01*
X31163Y330355D01*
X31160Y330283D01*
X31147Y330212D01*
X31155Y330161D01*
X31153Y330109D01*
X31173Y330040D01*
X31183Y329969D01*
X31207Y329923D01*
X31221Y329873D01*
X31262Y329814D01*
X31295Y329750D01*
X31332Y329713D01*
X31362Y329671D01*
X31419Y329628D01*
X31470Y329578D01*
X31533Y329543D01*
X31559Y329524D01*
X31581Y329517D01*
X31617Y329497D01*
X33026Y328913D01*
X36813Y325126D01*
X38863Y320178D01*
X38863Y314822D01*
X36813Y309874D01*
X33026Y306087D01*
X31617Y305503D01*
X31556Y305465D01*
X31491Y305436D01*
X31452Y305401D01*
X31408Y305374D01*
X31362Y305318D01*
X31310Y305270D01*
X31285Y305224D01*
X31251Y305184D01*
X31226Y305117D01*
X31191Y305054D01*
X31182Y305003D01*
X31163Y304955D01*
X31160Y304883D01*
X31147Y304812D01*
X31155Y304761D01*
X31153Y304709D01*
X31173Y304640D01*
X31183Y304569D01*
X31207Y304523D01*
X31221Y304473D01*
X31262Y304414D01*
X31295Y304350D01*
X31332Y304313D01*
X31362Y304271D01*
X31419Y304228D01*
X31470Y304178D01*
X31533Y304143D01*
X31559Y304124D01*
X31581Y304117D01*
X31617Y304097D01*
X33026Y303513D01*
X36813Y299726D01*
X38863Y294778D01*
X38863Y289422D01*
X36813Y284474D01*
X33026Y280687D01*
X31617Y280103D01*
X31556Y280065D01*
X31491Y280036D01*
X31452Y280001D01*
X31408Y279974D01*
X31362Y279918D01*
X31310Y279870D01*
X31285Y279824D01*
X31251Y279784D01*
X31226Y279717D01*
X31191Y279654D01*
X31182Y279603D01*
X31163Y279555D01*
X31160Y279483D01*
X31147Y279412D01*
X31155Y279361D01*
X31153Y279309D01*
X31173Y279240D01*
X31183Y279169D01*
X31207Y279123D01*
X31221Y279073D01*
X31262Y279014D01*
X31295Y278950D01*
X31332Y278913D01*
X31362Y278871D01*
X31419Y278828D01*
X31470Y278778D01*
X31533Y278743D01*
X31559Y278724D01*
X31581Y278717D01*
X31617Y278697D01*
X33026Y278113D01*
X36813Y274326D01*
X38863Y269378D01*
X38863Y264022D01*
X36813Y259074D01*
X33026Y255287D01*
X32252Y254966D01*
X32191Y254929D01*
X32126Y254899D01*
X32087Y254864D01*
X32043Y254837D01*
X31997Y254781D01*
X31945Y254733D01*
X31920Y254687D01*
X31886Y254647D01*
X31861Y254580D01*
X31826Y254517D01*
X31817Y254466D01*
X31798Y254418D01*
X31795Y254346D01*
X31782Y254275D01*
X31790Y254224D01*
X31788Y254172D01*
X31808Y254103D01*
X31818Y254032D01*
X31842Y253986D01*
X31856Y253936D01*
X31897Y253877D01*
X31930Y253813D01*
X31967Y253776D01*
X31997Y253734D01*
X32054Y253691D01*
X32105Y253641D01*
X32168Y253606D01*
X32194Y253587D01*
X32216Y253580D01*
X32252Y253560D01*
X34296Y252713D01*
X38083Y248926D01*
X40133Y243978D01*
X40133Y238622D01*
X38083Y233674D01*
X34296Y229887D01*
X32887Y229303D01*
X32826Y229265D01*
X32761Y229236D01*
X32722Y229201D01*
X32678Y229174D01*
X32632Y229118D01*
X32580Y229070D01*
X32555Y229024D01*
X32521Y228984D01*
X32496Y228917D01*
X32461Y228854D01*
X32452Y228803D01*
X32433Y228755D01*
X32430Y228683D01*
X32417Y228612D01*
X32425Y228561D01*
X32423Y228509D01*
X32443Y228440D01*
X32453Y228369D01*
X32477Y228323D01*
X32491Y228273D01*
X32532Y228214D01*
X32565Y228150D01*
X32602Y228113D01*
X32632Y228071D01*
X32689Y228028D01*
X32740Y227978D01*
X32803Y227943D01*
X32829Y227924D01*
X32851Y227917D01*
X32887Y227897D01*
X34296Y227313D01*
X38083Y223526D01*
X40133Y218578D01*
X40133Y213222D01*
X38083Y208274D01*
X34296Y204487D01*
X32887Y203903D01*
X32826Y203865D01*
X32761Y203836D01*
X32722Y203801D01*
X32678Y203774D01*
X32632Y203718D01*
X32580Y203670D01*
X32555Y203624D01*
X32521Y203584D01*
X32496Y203517D01*
X32461Y203454D01*
X32452Y203403D01*
X32433Y203355D01*
X32430Y203283D01*
X32417Y203212D01*
X32425Y203161D01*
X32423Y203109D01*
X32443Y203040D01*
X32453Y202969D01*
X32477Y202923D01*
X32491Y202873D01*
X32532Y202814D01*
X32565Y202750D01*
X32602Y202713D01*
X32632Y202671D01*
X32689Y202628D01*
X32740Y202578D01*
X32803Y202543D01*
X32829Y202524D01*
X32851Y202517D01*
X32887Y202497D01*
X34296Y201913D01*
X38083Y198126D01*
X40133Y193178D01*
X40133Y187822D01*
X38083Y182874D01*
X34296Y179087D01*
X30910Y177684D01*
X30824Y177631D01*
X30735Y177583D01*
X30720Y177566D01*
X30701Y177555D01*
X30637Y177477D01*
X30568Y177403D01*
X30559Y177382D01*
X30544Y177365D01*
X30508Y177271D01*
X30466Y177178D01*
X30464Y177156D01*
X30456Y177136D01*
X30452Y177035D01*
X30442Y176934D01*
X30447Y176912D01*
X30446Y176890D01*
X30474Y176793D01*
X30497Y176694D01*
X30508Y176675D01*
X30514Y176654D01*
X30572Y176571D01*
X30625Y176484D01*
X30642Y176470D01*
X30655Y176452D01*
X30736Y176391D01*
X30814Y176326D01*
X30838Y176315D01*
X30852Y176305D01*
X30883Y176295D01*
X30966Y176257D01*
X31253Y176164D01*
X32927Y175311D01*
X34448Y174206D01*
X35776Y172878D01*
X36881Y171357D01*
X37734Y169683D01*
X38315Y167896D01*
X38516Y166623D01*
X27432Y166623D01*
X27412Y166620D01*
X27393Y166622D01*
X27291Y166600D01*
X27189Y166583D01*
X27172Y166574D01*
X27152Y166570D01*
X27063Y166517D01*
X26972Y166468D01*
X26958Y166454D01*
X26941Y166444D01*
X26874Y166365D01*
X26803Y166290D01*
X26794Y166272D01*
X26781Y166257D01*
X26743Y166161D01*
X26699Y166067D01*
X26697Y166047D01*
X26689Y166029D01*
X26671Y165862D01*
X26671Y165099D01*
X26669Y165099D01*
G37*
%LPD*%
%LPC*%
G36*
X117972Y6857D02*
X117972Y6857D01*
X113024Y8907D01*
X109237Y12694D01*
X107187Y17642D01*
X107187Y22998D01*
X109237Y27946D01*
X113024Y31733D01*
X116410Y33136D01*
X116496Y33189D01*
X116585Y33237D01*
X116600Y33254D01*
X116619Y33265D01*
X116683Y33343D01*
X116752Y33417D01*
X116761Y33438D01*
X116776Y33455D01*
X116812Y33549D01*
X116854Y33642D01*
X116856Y33664D01*
X116864Y33684D01*
X116868Y33785D01*
X116878Y33886D01*
X116873Y33908D01*
X116874Y33930D01*
X116846Y34027D01*
X116823Y34126D01*
X116812Y34145D01*
X116806Y34166D01*
X116748Y34249D01*
X116695Y34336D01*
X116678Y34350D01*
X116665Y34368D01*
X116584Y34429D01*
X116506Y34494D01*
X116482Y34505D01*
X116468Y34515D01*
X116437Y34525D01*
X116354Y34563D01*
X116067Y34656D01*
X114393Y35509D01*
X112872Y36614D01*
X111544Y37942D01*
X110439Y39463D01*
X109586Y41137D01*
X109005Y42924D01*
X108804Y44197D01*
X119888Y44197D01*
X119908Y44200D01*
X119927Y44198D01*
X120029Y44220D01*
X120131Y44237D01*
X120148Y44246D01*
X120168Y44250D01*
X120257Y44303D01*
X120348Y44352D01*
X120362Y44366D01*
X120379Y44376D01*
X120446Y44455D01*
X120517Y44530D01*
X120526Y44548D01*
X120539Y44563D01*
X120577Y44659D01*
X120621Y44753D01*
X120623Y44773D01*
X120631Y44791D01*
X120649Y44958D01*
X120649Y46482D01*
X120646Y46502D01*
X120648Y46521D01*
X120626Y46623D01*
X120609Y46725D01*
X120600Y46742D01*
X120596Y46762D01*
X120543Y46851D01*
X120494Y46942D01*
X120480Y46956D01*
X120470Y46973D01*
X120391Y47040D01*
X120316Y47111D01*
X120298Y47120D01*
X120283Y47133D01*
X120187Y47172D01*
X120093Y47215D01*
X120073Y47217D01*
X120055Y47225D01*
X119888Y47243D01*
X108804Y47243D01*
X109005Y48516D01*
X109586Y50303D01*
X110439Y51977D01*
X111544Y53498D01*
X112872Y54826D01*
X114393Y55931D01*
X116067Y56784D01*
X116354Y56877D01*
X116444Y56924D01*
X116536Y56965D01*
X116552Y56980D01*
X116572Y56990D01*
X116643Y57063D01*
X116717Y57131D01*
X116728Y57151D01*
X116743Y57167D01*
X116787Y57258D01*
X116836Y57347D01*
X116840Y57369D01*
X116849Y57389D01*
X116862Y57489D01*
X116880Y57589D01*
X116876Y57611D01*
X116879Y57633D01*
X116859Y57732D01*
X116844Y57832D01*
X116834Y57852D01*
X116829Y57874D01*
X116778Y57961D01*
X116732Y58051D01*
X116716Y58067D01*
X116705Y58086D01*
X116629Y58153D01*
X116557Y58224D01*
X116533Y58237D01*
X116520Y58248D01*
X116490Y58260D01*
X116410Y58304D01*
X113024Y59707D01*
X109237Y63494D01*
X107187Y68442D01*
X107187Y73798D01*
X109237Y78746D01*
X113024Y82533D01*
X114433Y83117D01*
X114494Y83155D01*
X114559Y83184D01*
X114598Y83219D01*
X114642Y83246D01*
X114688Y83302D01*
X114740Y83350D01*
X114765Y83396D01*
X114799Y83436D01*
X114824Y83503D01*
X114859Y83566D01*
X114868Y83617D01*
X114887Y83665D01*
X114890Y83737D01*
X114903Y83808D01*
X114895Y83859D01*
X114897Y83911D01*
X114877Y83980D01*
X114867Y84051D01*
X114843Y84097D01*
X114829Y84147D01*
X114788Y84206D01*
X114755Y84270D01*
X114718Y84307D01*
X114688Y84349D01*
X114631Y84392D01*
X114580Y84442D01*
X114517Y84477D01*
X114491Y84496D01*
X114469Y84503D01*
X114433Y84523D01*
X113024Y85107D01*
X109237Y88894D01*
X107187Y93842D01*
X107187Y99198D01*
X109237Y104146D01*
X113024Y107933D01*
X117972Y109983D01*
X123328Y109983D01*
X128276Y107933D01*
X132063Y104146D01*
X132139Y103964D01*
X132190Y103881D01*
X132236Y103795D01*
X132255Y103777D01*
X132268Y103755D01*
X132343Y103692D01*
X132414Y103625D01*
X132438Y103614D01*
X132458Y103598D01*
X132549Y103563D01*
X132637Y103522D01*
X132663Y103519D01*
X132687Y103510D01*
X132785Y103505D01*
X132881Y103495D01*
X132907Y103500D01*
X132933Y103499D01*
X133027Y103526D01*
X133122Y103547D01*
X133144Y103560D01*
X133169Y103568D01*
X133249Y103623D01*
X133333Y103673D01*
X133350Y103693D01*
X133371Y103708D01*
X133429Y103786D01*
X133493Y103860D01*
X133503Y103884D01*
X133518Y103905D01*
X133548Y103998D01*
X133585Y104088D01*
X133588Y104121D01*
X133594Y104139D01*
X133594Y104172D01*
X133603Y104255D01*
X133603Y260666D01*
X133589Y260756D01*
X133581Y260847D01*
X133569Y260877D01*
X133564Y260909D01*
X133521Y260989D01*
X133485Y261073D01*
X133459Y261105D01*
X133448Y261126D01*
X133425Y261148D01*
X133380Y261204D01*
X132617Y261967D01*
X131345Y265038D01*
X131345Y268362D01*
X132617Y271433D01*
X134967Y273783D01*
X138038Y275055D01*
X141362Y275055D01*
X144433Y273783D01*
X146783Y271433D01*
X148055Y268362D01*
X148055Y265038D01*
X146783Y261967D01*
X146020Y261204D01*
X145967Y261130D01*
X145907Y261061D01*
X145895Y261031D01*
X145876Y261005D01*
X145849Y260918D01*
X145815Y260833D01*
X145811Y260792D01*
X145804Y260769D01*
X145805Y260737D01*
X145797Y260666D01*
X145797Y104441D01*
X145811Y104351D01*
X145819Y104260D01*
X145831Y104230D01*
X145836Y104198D01*
X145879Y104117D01*
X145915Y104033D01*
X145941Y104001D01*
X145952Y103981D01*
X145975Y103958D01*
X146020Y103902D01*
X152444Y97478D01*
X152518Y97425D01*
X152588Y97365D01*
X152618Y97353D01*
X152644Y97334D01*
X152731Y97307D01*
X152816Y97273D01*
X152857Y97269D01*
X152879Y97262D01*
X152911Y97263D01*
X152983Y97255D01*
X154062Y97255D01*
X157133Y95983D01*
X159483Y93633D01*
X160755Y90562D01*
X160755Y87238D01*
X159483Y84167D01*
X157133Y81817D01*
X154062Y80545D01*
X150738Y80545D01*
X147667Y81817D01*
X145317Y84167D01*
X144045Y87238D01*
X144045Y88317D01*
X144031Y88407D01*
X144023Y88498D01*
X144011Y88528D01*
X144006Y88560D01*
X143963Y88641D01*
X143927Y88725D01*
X143901Y88757D01*
X143890Y88777D01*
X143867Y88800D01*
X143822Y88856D01*
X136354Y96324D01*
X135412Y97266D01*
X135354Y97308D01*
X135302Y97357D01*
X135255Y97379D01*
X135213Y97409D01*
X135144Y97430D01*
X135079Y97461D01*
X135027Y97466D01*
X134977Y97482D01*
X134906Y97480D01*
X134835Y97488D01*
X134784Y97477D01*
X134732Y97475D01*
X134664Y97451D01*
X134594Y97435D01*
X134549Y97409D01*
X134501Y97391D01*
X134445Y97346D01*
X134383Y97309D01*
X134349Y97270D01*
X134309Y97237D01*
X134270Y97177D01*
X134223Y97122D01*
X134204Y97074D01*
X134176Y97030D01*
X134158Y96961D01*
X134131Y96894D01*
X134123Y96823D01*
X134115Y96792D01*
X134117Y96768D01*
X134113Y96727D01*
X134113Y93842D01*
X132063Y88894D01*
X128276Y85107D01*
X126867Y84523D01*
X126806Y84486D01*
X126741Y84456D01*
X126702Y84421D01*
X126658Y84394D01*
X126612Y84338D01*
X126560Y84290D01*
X126535Y84244D01*
X126501Y84204D01*
X126476Y84137D01*
X126441Y84074D01*
X126432Y84023D01*
X126413Y83975D01*
X126410Y83903D01*
X126397Y83832D01*
X126405Y83781D01*
X126403Y83729D01*
X126423Y83660D01*
X126433Y83589D01*
X126457Y83543D01*
X126471Y83493D01*
X126512Y83434D01*
X126545Y83370D01*
X126582Y83333D01*
X126612Y83291D01*
X126669Y83248D01*
X126720Y83198D01*
X126783Y83163D01*
X126809Y83144D01*
X126831Y83137D01*
X126867Y83117D01*
X128276Y82533D01*
X132063Y78746D01*
X134113Y73798D01*
X134113Y68442D01*
X132063Y63494D01*
X128276Y59707D01*
X124890Y58304D01*
X124804Y58251D01*
X124715Y58203D01*
X124700Y58186D01*
X124681Y58175D01*
X124617Y58097D01*
X124548Y58023D01*
X124539Y58002D01*
X124524Y57985D01*
X124488Y57891D01*
X124446Y57798D01*
X124444Y57776D01*
X124436Y57756D01*
X124432Y57655D01*
X124422Y57554D01*
X124427Y57532D01*
X124426Y57510D01*
X124454Y57413D01*
X124477Y57314D01*
X124488Y57295D01*
X124494Y57274D01*
X124552Y57191D01*
X124605Y57104D01*
X124622Y57090D01*
X124635Y57072D01*
X124716Y57011D01*
X124794Y56946D01*
X124818Y56935D01*
X124832Y56925D01*
X124863Y56915D01*
X124946Y56877D01*
X125233Y56784D01*
X126907Y55931D01*
X128428Y54826D01*
X129756Y53498D01*
X130861Y51977D01*
X131714Y50303D01*
X132295Y48516D01*
X132496Y47243D01*
X121412Y47243D01*
X121392Y47240D01*
X121373Y47242D01*
X121271Y47220D01*
X121169Y47203D01*
X121152Y47194D01*
X121132Y47190D01*
X121043Y47137D01*
X120952Y47088D01*
X120938Y47074D01*
X120921Y47064D01*
X120854Y46985D01*
X120783Y46910D01*
X120774Y46892D01*
X120761Y46877D01*
X120723Y46781D01*
X120679Y46687D01*
X120677Y46667D01*
X120669Y46649D01*
X120651Y46482D01*
X120651Y44958D01*
X120654Y44938D01*
X120652Y44919D01*
X120674Y44817D01*
X120691Y44715D01*
X120700Y44698D01*
X120704Y44678D01*
X120757Y44589D01*
X120806Y44498D01*
X120820Y44484D01*
X120830Y44467D01*
X120909Y44400D01*
X120984Y44329D01*
X121002Y44320D01*
X121017Y44307D01*
X121113Y44268D01*
X121207Y44225D01*
X121227Y44223D01*
X121245Y44215D01*
X121412Y44197D01*
X132496Y44197D01*
X132295Y42924D01*
X131714Y41137D01*
X130861Y39463D01*
X129756Y37942D01*
X128428Y36614D01*
X126907Y35509D01*
X125233Y34656D01*
X124946Y34563D01*
X124856Y34516D01*
X124764Y34475D01*
X124748Y34460D01*
X124728Y34450D01*
X124657Y34377D01*
X124583Y34309D01*
X124572Y34289D01*
X124557Y34273D01*
X124513Y34182D01*
X124464Y34093D01*
X124460Y34071D01*
X124451Y34051D01*
X124438Y33951D01*
X124420Y33851D01*
X124424Y33829D01*
X124421Y33807D01*
X124441Y33708D01*
X124456Y33608D01*
X124466Y33588D01*
X124471Y33566D01*
X124522Y33479D01*
X124568Y33389D01*
X124584Y33373D01*
X124595Y33354D01*
X124671Y33287D01*
X124743Y33216D01*
X124767Y33203D01*
X124780Y33192D01*
X124810Y33180D01*
X124890Y33136D01*
X128276Y31733D01*
X132063Y27946D01*
X134113Y22998D01*
X134113Y17642D01*
X132063Y12694D01*
X128276Y8907D01*
X123328Y6857D01*
X117972Y6857D01*
G37*
%LPD*%
%LPC*%
G36*
X449579Y22859D02*
X449579Y22859D01*
X449579Y23622D01*
X449576Y23642D01*
X449578Y23661D01*
X449556Y23763D01*
X449539Y23865D01*
X449530Y23882D01*
X449526Y23902D01*
X449473Y23991D01*
X449424Y24082D01*
X449410Y24096D01*
X449400Y24113D01*
X449321Y24180D01*
X449246Y24251D01*
X449228Y24260D01*
X449213Y24273D01*
X449117Y24312D01*
X449023Y24355D01*
X449003Y24357D01*
X448985Y24365D01*
X448818Y24383D01*
X437734Y24383D01*
X437935Y25656D01*
X438516Y27443D01*
X439369Y29117D01*
X440474Y30638D01*
X441802Y31966D01*
X443323Y33071D01*
X444520Y33681D01*
X444554Y33706D01*
X444592Y33723D01*
X444652Y33778D01*
X444718Y33827D01*
X444742Y33861D01*
X444773Y33889D01*
X444813Y33961D01*
X444860Y34028D01*
X444872Y34068D01*
X444892Y34105D01*
X444906Y34185D01*
X444930Y34264D01*
X444928Y34305D01*
X444936Y34347D01*
X444924Y34428D01*
X444921Y34509D01*
X444906Y34549D01*
X444900Y34590D01*
X444863Y34663D01*
X444834Y34740D01*
X444807Y34772D01*
X444788Y34809D01*
X444730Y34867D01*
X444678Y34930D01*
X444643Y34952D01*
X444613Y34982D01*
X444477Y35056D01*
X444470Y35061D01*
X444468Y35061D01*
X444466Y35063D01*
X443224Y35577D01*
X439437Y39364D01*
X437387Y44312D01*
X437387Y49668D01*
X439437Y54616D01*
X443224Y58403D01*
X444633Y58987D01*
X444694Y59025D01*
X444759Y59054D01*
X444798Y59089D01*
X444842Y59116D01*
X444888Y59172D01*
X444940Y59220D01*
X444965Y59266D01*
X444999Y59306D01*
X445024Y59373D01*
X445059Y59436D01*
X445068Y59487D01*
X445087Y59535D01*
X445090Y59607D01*
X445103Y59678D01*
X445095Y59729D01*
X445097Y59781D01*
X445077Y59850D01*
X445067Y59921D01*
X445043Y59967D01*
X445029Y60017D01*
X444988Y60076D01*
X444955Y60140D01*
X444918Y60177D01*
X444888Y60219D01*
X444831Y60262D01*
X444780Y60312D01*
X444717Y60347D01*
X444691Y60366D01*
X444669Y60373D01*
X444633Y60393D01*
X443224Y60977D01*
X439437Y64764D01*
X437387Y69712D01*
X437387Y75068D01*
X439437Y80016D01*
X443291Y83870D01*
X443309Y83881D01*
X443355Y83937D01*
X443408Y83986D01*
X443433Y84031D01*
X443466Y84071D01*
X443492Y84138D01*
X443526Y84202D01*
X443535Y84252D01*
X443554Y84301D01*
X443557Y84373D01*
X443570Y84444D01*
X443562Y84495D01*
X443564Y84546D01*
X443544Y84616D01*
X443533Y84687D01*
X443510Y84733D01*
X443496Y84782D01*
X443454Y84842D01*
X443422Y84906D01*
X443385Y84942D01*
X443355Y84985D01*
X443320Y85011D01*
X439437Y88894D01*
X437387Y93842D01*
X437387Y99198D01*
X439437Y104146D01*
X443224Y107933D01*
X448172Y109983D01*
X453528Y109983D01*
X458476Y107933D01*
X462263Y104146D01*
X464313Y99198D01*
X464313Y93842D01*
X462263Y88894D01*
X458409Y85040D01*
X458392Y85030D01*
X458346Y84974D01*
X458293Y84925D01*
X458268Y84880D01*
X458235Y84840D01*
X458209Y84773D01*
X458174Y84710D01*
X458165Y84659D01*
X458146Y84611D01*
X458143Y84539D01*
X458130Y84468D01*
X458138Y84416D01*
X458136Y84365D01*
X458156Y84296D01*
X458166Y84224D01*
X458190Y84178D01*
X458204Y84129D01*
X458245Y84069D01*
X458278Y84005D01*
X458314Y83969D01*
X458344Y83926D01*
X458379Y83900D01*
X462263Y80016D01*
X464313Y75068D01*
X464313Y69712D01*
X462263Y64764D01*
X458476Y60977D01*
X457067Y60393D01*
X457006Y60356D01*
X456941Y60326D01*
X456902Y60291D01*
X456858Y60264D01*
X456812Y60208D01*
X456760Y60160D01*
X456735Y60114D01*
X456701Y60074D01*
X456676Y60007D01*
X456641Y59944D01*
X456632Y59893D01*
X456613Y59845D01*
X456610Y59773D01*
X456597Y59702D01*
X456605Y59651D01*
X456603Y59599D01*
X456623Y59530D01*
X456633Y59459D01*
X456657Y59413D01*
X456671Y59363D01*
X456712Y59304D01*
X456745Y59240D01*
X456782Y59203D01*
X456812Y59161D01*
X456869Y59118D01*
X456920Y59068D01*
X456983Y59033D01*
X457009Y59014D01*
X457031Y59007D01*
X457067Y58987D01*
X458476Y58403D01*
X462263Y54616D01*
X464313Y49668D01*
X464313Y44312D01*
X462263Y39364D01*
X458476Y35577D01*
X455833Y34482D01*
X455798Y34460D01*
X455758Y34446D01*
X455694Y34396D01*
X455624Y34353D01*
X455597Y34320D01*
X455564Y34294D01*
X455520Y34226D01*
X455467Y34163D01*
X455452Y34124D01*
X455429Y34089D01*
X455409Y34010D01*
X455379Y33933D01*
X455377Y33892D01*
X455367Y33851D01*
X455372Y33769D01*
X455369Y33688D01*
X455381Y33647D01*
X455383Y33605D01*
X455415Y33530D01*
X455437Y33452D01*
X455461Y33417D01*
X455477Y33378D01*
X455531Y33317D01*
X455578Y33249D01*
X455611Y33224D01*
X455639Y33193D01*
X455768Y33108D01*
X455775Y33103D01*
X455777Y33102D01*
X455779Y33101D01*
X455837Y33071D01*
X457358Y31966D01*
X458686Y30638D01*
X459791Y29117D01*
X460644Y27443D01*
X461225Y25656D01*
X461426Y24383D01*
X450342Y24383D01*
X450322Y24380D01*
X450303Y24382D01*
X450201Y24360D01*
X450099Y24343D01*
X450082Y24334D01*
X450062Y24330D01*
X449973Y24277D01*
X449882Y24228D01*
X449868Y24214D01*
X449851Y24204D01*
X449784Y24125D01*
X449713Y24050D01*
X449704Y24032D01*
X449691Y24017D01*
X449653Y23921D01*
X449609Y23827D01*
X449607Y23807D01*
X449599Y23789D01*
X449581Y23622D01*
X449581Y22859D01*
X449579Y22859D01*
G37*
%LPD*%
%LPC*%
G36*
X386530Y420623D02*
X386530Y420623D01*
X379983Y427170D01*
X379983Y436430D01*
X386245Y442692D01*
X386257Y442708D01*
X386273Y442720D01*
X386329Y442808D01*
X386389Y442891D01*
X386395Y442910D01*
X386406Y442927D01*
X386431Y443028D01*
X386461Y443127D01*
X386461Y443146D01*
X386466Y443166D01*
X386458Y443269D01*
X386455Y443372D01*
X386448Y443391D01*
X386447Y443411D01*
X386406Y443506D01*
X386371Y443603D01*
X386358Y443619D01*
X386350Y443637D01*
X386245Y443768D01*
X384213Y445800D01*
X384139Y445853D01*
X384070Y445913D01*
X384040Y445925D01*
X384014Y445944D01*
X383927Y445971D01*
X383842Y446005D01*
X383801Y446009D01*
X383779Y446016D01*
X383746Y446015D01*
X383675Y446023D01*
X378761Y446023D01*
X378671Y446009D01*
X378580Y446001D01*
X378550Y445989D01*
X378518Y445984D01*
X378437Y445941D01*
X378353Y445905D01*
X378321Y445879D01*
X378301Y445868D01*
X378278Y445845D01*
X378222Y445800D01*
X372162Y439740D01*
X372151Y439724D01*
X372135Y439712D01*
X372079Y439624D01*
X372019Y439541D01*
X372013Y439522D01*
X372002Y439505D01*
X371977Y439404D01*
X371947Y439306D01*
X371947Y439286D01*
X371942Y439266D01*
X371950Y439163D01*
X371953Y439060D01*
X371960Y439041D01*
X371961Y439021D01*
X372002Y438926D01*
X372037Y438829D01*
X372050Y438813D01*
X372058Y438795D01*
X372162Y438664D01*
X373127Y437700D01*
X373127Y428440D01*
X366580Y421893D01*
X357320Y421893D01*
X350773Y428440D01*
X350773Y437700D01*
X357320Y444247D01*
X359109Y444247D01*
X359199Y444261D01*
X359290Y444269D01*
X359320Y444281D01*
X359352Y444286D01*
X359433Y444329D01*
X359517Y444365D01*
X359549Y444391D01*
X359569Y444402D01*
X359592Y444425D01*
X359648Y444470D01*
X370644Y455466D01*
X370644Y455467D01*
X372466Y457289D01*
X374707Y458217D01*
X383675Y458217D01*
X383765Y458231D01*
X383856Y458239D01*
X383886Y458251D01*
X383918Y458256D01*
X383999Y458299D01*
X384082Y458335D01*
X384115Y458361D01*
X384135Y458372D01*
X384157Y458395D01*
X384213Y458440D01*
X389070Y463297D01*
X398330Y463297D01*
X404877Y456750D01*
X404877Y447490D01*
X398615Y441228D01*
X398603Y441212D01*
X398587Y441200D01*
X398531Y441112D01*
X398471Y441029D01*
X398465Y441010D01*
X398454Y440993D01*
X398429Y440892D01*
X398399Y440793D01*
X398399Y440774D01*
X398394Y440754D01*
X398402Y440651D01*
X398405Y440548D01*
X398412Y440529D01*
X398413Y440509D01*
X398454Y440414D01*
X398489Y440317D01*
X398502Y440301D01*
X398510Y440283D01*
X398615Y440152D01*
X402337Y436430D01*
X402337Y427170D01*
X395790Y420623D01*
X386530Y420623D01*
G37*
%LPD*%
%LPC*%
G36*
X22859Y29209D02*
X22859Y29209D01*
X22859Y29972D01*
X22858Y29982D01*
X22858Y29987D01*
X22856Y29995D01*
X22858Y30011D01*
X22836Y30113D01*
X22819Y30215D01*
X22810Y30232D01*
X22806Y30252D01*
X22753Y30341D01*
X22704Y30432D01*
X22690Y30446D01*
X22680Y30463D01*
X22601Y30530D01*
X22526Y30601D01*
X22508Y30610D01*
X22493Y30623D01*
X22397Y30662D01*
X22303Y30705D01*
X22283Y30707D01*
X22265Y30715D01*
X22098Y30733D01*
X11014Y30733D01*
X11215Y32006D01*
X11796Y33793D01*
X12649Y35467D01*
X13754Y36988D01*
X15082Y38316D01*
X16603Y39421D01*
X18277Y40274D01*
X18564Y40367D01*
X18654Y40414D01*
X18746Y40455D01*
X18762Y40470D01*
X18782Y40480D01*
X18853Y40553D01*
X18927Y40621D01*
X18938Y40641D01*
X18953Y40657D01*
X18997Y40748D01*
X19046Y40837D01*
X19050Y40859D01*
X19059Y40879D01*
X19072Y40979D01*
X19090Y41079D01*
X19086Y41101D01*
X19089Y41123D01*
X19069Y41222D01*
X19054Y41322D01*
X19044Y41342D01*
X19039Y41364D01*
X18988Y41451D01*
X18942Y41541D01*
X18926Y41557D01*
X18915Y41576D01*
X18839Y41643D01*
X18767Y41714D01*
X18743Y41727D01*
X18730Y41738D01*
X18700Y41750D01*
X18620Y41794D01*
X15234Y43197D01*
X11447Y46984D01*
X9397Y51932D01*
X9397Y57288D01*
X11447Y62236D01*
X15301Y66090D01*
X15319Y66101D01*
X15365Y66157D01*
X15418Y66206D01*
X15443Y66251D01*
X15476Y66291D01*
X15502Y66358D01*
X15536Y66422D01*
X15545Y66472D01*
X15564Y66521D01*
X15567Y66593D01*
X15580Y66664D01*
X15572Y66715D01*
X15574Y66766D01*
X15554Y66836D01*
X15543Y66907D01*
X15520Y66953D01*
X15506Y67002D01*
X15464Y67062D01*
X15432Y67126D01*
X15395Y67162D01*
X15365Y67205D01*
X15330Y67231D01*
X11447Y71114D01*
X9397Y76062D01*
X9397Y81418D01*
X11447Y86366D01*
X15234Y90153D01*
X20182Y92203D01*
X25538Y92203D01*
X30486Y90153D01*
X34273Y86366D01*
X36323Y81418D01*
X36323Y76062D01*
X34273Y71114D01*
X30419Y67260D01*
X30402Y67250D01*
X30356Y67194D01*
X30303Y67145D01*
X30278Y67100D01*
X30245Y67060D01*
X30219Y66993D01*
X30184Y66930D01*
X30175Y66879D01*
X30156Y66831D01*
X30153Y66759D01*
X30140Y66688D01*
X30148Y66636D01*
X30146Y66585D01*
X30166Y66516D01*
X30176Y66444D01*
X30200Y66398D01*
X30214Y66349D01*
X30255Y66289D01*
X30288Y66225D01*
X30324Y66189D01*
X30354Y66146D01*
X30389Y66120D01*
X34273Y62236D01*
X36323Y57288D01*
X36323Y51932D01*
X34273Y46984D01*
X30486Y43197D01*
X27100Y41794D01*
X27014Y41741D01*
X26925Y41693D01*
X26910Y41676D01*
X26891Y41665D01*
X26827Y41587D01*
X26758Y41513D01*
X26749Y41492D01*
X26734Y41475D01*
X26698Y41381D01*
X26656Y41288D01*
X26654Y41266D01*
X26646Y41246D01*
X26642Y41145D01*
X26632Y41044D01*
X26637Y41022D01*
X26636Y41000D01*
X26664Y40903D01*
X26687Y40804D01*
X26698Y40785D01*
X26704Y40764D01*
X26762Y40681D01*
X26815Y40594D01*
X26832Y40580D01*
X26845Y40562D01*
X26926Y40501D01*
X27004Y40436D01*
X27028Y40425D01*
X27042Y40415D01*
X27073Y40405D01*
X27156Y40367D01*
X27443Y40274D01*
X29117Y39421D01*
X30638Y38316D01*
X31966Y36988D01*
X33071Y35467D01*
X33924Y33793D01*
X34505Y32006D01*
X34706Y30733D01*
X23622Y30733D01*
X23602Y30730D01*
X23583Y30732D01*
X23481Y30710D01*
X23379Y30693D01*
X23362Y30684D01*
X23342Y30680D01*
X23253Y30627D01*
X23162Y30578D01*
X23148Y30564D01*
X23131Y30554D01*
X23064Y30475D01*
X22993Y30400D01*
X22984Y30382D01*
X22971Y30367D01*
X22933Y30271D01*
X22889Y30177D01*
X22887Y30157D01*
X22879Y30139D01*
X22861Y29972D01*
X22861Y29209D01*
X22859Y29209D01*
G37*
%LPD*%
%LPC*%
G36*
X282765Y204723D02*
X282765Y204723D01*
X278657Y206425D01*
X275513Y209569D01*
X273811Y213677D01*
X273811Y218123D01*
X275513Y222231D01*
X278657Y225375D01*
X282765Y227077D01*
X301435Y227077D01*
X305543Y225375D01*
X308687Y222231D01*
X309939Y219210D01*
X309990Y219127D01*
X310036Y219041D01*
X310055Y219023D01*
X310068Y219001D01*
X310143Y218938D01*
X310214Y218871D01*
X310238Y218860D01*
X310258Y218844D01*
X310349Y218809D01*
X310437Y218768D01*
X310463Y218765D01*
X310487Y218756D01*
X310585Y218751D01*
X310681Y218741D01*
X310707Y218746D01*
X310733Y218745D01*
X310827Y218772D01*
X310922Y218793D01*
X310944Y218806D01*
X310969Y218814D01*
X311049Y218869D01*
X311133Y218919D01*
X311150Y218939D01*
X311171Y218954D01*
X311230Y219032D01*
X311293Y219106D01*
X311303Y219130D01*
X311318Y219151D01*
X311348Y219244D01*
X311385Y219334D01*
X311388Y219367D01*
X311394Y219385D01*
X311394Y219418D01*
X311403Y219501D01*
X311403Y220530D01*
X317950Y227077D01*
X327210Y227077D01*
X333757Y220530D01*
X333757Y211270D01*
X327210Y204723D01*
X317950Y204723D01*
X311403Y211270D01*
X311403Y212299D01*
X311388Y212395D01*
X311378Y212492D01*
X311368Y212516D01*
X311364Y212542D01*
X311318Y212628D01*
X311278Y212717D01*
X311261Y212736D01*
X311248Y212759D01*
X311178Y212826D01*
X311112Y212898D01*
X311089Y212911D01*
X311070Y212929D01*
X310982Y212970D01*
X310896Y213017D01*
X310871Y213021D01*
X310847Y213032D01*
X310750Y213043D01*
X310654Y213060D01*
X310628Y213056D01*
X310603Y213059D01*
X310507Y213039D01*
X310411Y213024D01*
X310388Y213013D01*
X310362Y213007D01*
X310279Y212957D01*
X310192Y212913D01*
X310173Y212894D01*
X310151Y212881D01*
X310088Y212807D01*
X310020Y212737D01*
X310004Y212709D01*
X309991Y212694D01*
X309979Y212663D01*
X309939Y212590D01*
X308687Y209569D01*
X305543Y206425D01*
X301435Y204723D01*
X282765Y204723D01*
G37*
%LPD*%
%LPC*%
G36*
X401182Y64007D02*
X401182Y64007D01*
X396234Y66057D01*
X392447Y69844D01*
X390397Y74792D01*
X390397Y80148D01*
X392447Y85096D01*
X395080Y87729D01*
X395107Y87767D01*
X395142Y87799D01*
X395179Y87867D01*
X395224Y87929D01*
X395238Y87974D01*
X395260Y88015D01*
X395274Y88091D01*
X395296Y88164D01*
X395295Y88211D01*
X395303Y88257D01*
X395292Y88333D01*
X395290Y88410D01*
X395274Y88454D01*
X395267Y88500D01*
X395232Y88569D01*
X395205Y88641D01*
X395177Y88677D01*
X395176Y88679D01*
X395175Y88680D01*
X395155Y88719D01*
X395103Y88770D01*
X395071Y88810D01*
X395068Y88813D01*
X395052Y88833D01*
X395040Y88840D01*
X391177Y92704D01*
X389127Y97652D01*
X389127Y103008D01*
X391177Y107956D01*
X394964Y111743D01*
X399912Y113793D01*
X405268Y113793D01*
X410216Y111743D01*
X414003Y107956D01*
X416053Y103008D01*
X416053Y97652D01*
X414003Y92704D01*
X411370Y90071D01*
X411343Y90033D01*
X411308Y90001D01*
X411271Y89933D01*
X411226Y89871D01*
X411212Y89826D01*
X411190Y89785D01*
X411176Y89709D01*
X411154Y89636D01*
X411155Y89589D01*
X411147Y89543D01*
X411158Y89467D01*
X411160Y89390D01*
X411176Y89346D01*
X411183Y89300D01*
X411218Y89231D01*
X411245Y89159D01*
X411273Y89123D01*
X411274Y89121D01*
X411275Y89120D01*
X411295Y89081D01*
X411347Y89030D01*
X411379Y88990D01*
X411382Y88987D01*
X411398Y88967D01*
X411410Y88960D01*
X415273Y85096D01*
X417323Y80148D01*
X417323Y74792D01*
X415273Y69844D01*
X411486Y66057D01*
X406538Y64007D01*
X401182Y64007D01*
G37*
%LPD*%
%LPC*%
G36*
X366638Y67845D02*
X366638Y67845D01*
X363567Y69117D01*
X361217Y71467D01*
X359945Y74538D01*
X359945Y77862D01*
X361217Y80933D01*
X361980Y81696D01*
X362033Y81770D01*
X362093Y81839D01*
X362105Y81869D01*
X362124Y81895D01*
X362151Y81982D01*
X362185Y82067D01*
X362189Y82108D01*
X362196Y82131D01*
X362195Y82163D01*
X362203Y82234D01*
X362203Y133666D01*
X362189Y133756D01*
X362181Y133847D01*
X362169Y133877D01*
X362164Y133909D01*
X362121Y133989D01*
X362085Y134073D01*
X362059Y134105D01*
X362048Y134126D01*
X362025Y134148D01*
X361980Y134204D01*
X361217Y134967D01*
X359945Y138038D01*
X359945Y141362D01*
X361217Y144433D01*
X363567Y146783D01*
X366638Y148055D01*
X369962Y148055D01*
X373033Y146783D01*
X375383Y144433D01*
X376655Y141362D01*
X376655Y138038D01*
X375383Y134967D01*
X374620Y134204D01*
X374567Y134130D01*
X374507Y134061D01*
X374495Y134031D01*
X374476Y134005D01*
X374449Y133918D01*
X374415Y133833D01*
X374411Y133792D01*
X374404Y133769D01*
X374405Y133737D01*
X374397Y133666D01*
X374397Y82234D01*
X374411Y82144D01*
X374419Y82053D01*
X374431Y82023D01*
X374436Y81991D01*
X374479Y81911D01*
X374515Y81827D01*
X374541Y81795D01*
X374552Y81774D01*
X374575Y81752D01*
X374620Y81696D01*
X375383Y80933D01*
X376655Y77862D01*
X376655Y74538D01*
X375383Y71467D01*
X373033Y69117D01*
X369962Y67845D01*
X366638Y67845D01*
G37*
%LPD*%
%LPC*%
G36*
X99938Y232945D02*
X99938Y232945D01*
X96867Y234217D01*
X94517Y236567D01*
X93245Y239638D01*
X93245Y242962D01*
X94517Y246033D01*
X95280Y246796D01*
X95333Y246870D01*
X95393Y246939D01*
X95405Y246969D01*
X95424Y246995D01*
X95451Y247082D01*
X95485Y247167D01*
X95489Y247208D01*
X95496Y247231D01*
X95495Y247263D01*
X95503Y247334D01*
X95503Y286066D01*
X95489Y286156D01*
X95481Y286247D01*
X95469Y286277D01*
X95464Y286309D01*
X95421Y286389D01*
X95385Y286473D01*
X95359Y286505D01*
X95348Y286526D01*
X95325Y286548D01*
X95280Y286604D01*
X94517Y287367D01*
X93245Y290438D01*
X93245Y293762D01*
X94517Y296833D01*
X96867Y299183D01*
X99938Y300455D01*
X103262Y300455D01*
X106333Y299183D01*
X108683Y296833D01*
X109955Y293762D01*
X109955Y290438D01*
X108683Y287367D01*
X107920Y286604D01*
X107867Y286530D01*
X107807Y286461D01*
X107795Y286431D01*
X107776Y286405D01*
X107749Y286318D01*
X107715Y286233D01*
X107711Y286192D01*
X107704Y286169D01*
X107705Y286137D01*
X107697Y286066D01*
X107697Y247334D01*
X107711Y247244D01*
X107719Y247153D01*
X107731Y247123D01*
X107736Y247091D01*
X107779Y247011D01*
X107815Y246927D01*
X107841Y246895D01*
X107852Y246874D01*
X107875Y246852D01*
X107920Y246796D01*
X108683Y246033D01*
X109955Y242962D01*
X109955Y239638D01*
X108683Y236567D01*
X106333Y234217D01*
X103262Y232945D01*
X99938Y232945D01*
G37*
%LPD*%
G36*
X234507Y218746D02*
X234507Y218746D01*
X234533Y218745D01*
X234627Y218772D01*
X234722Y218793D01*
X234744Y218806D01*
X234769Y218814D01*
X234849Y218869D01*
X234933Y218919D01*
X234950Y218939D01*
X234971Y218954D01*
X235030Y219032D01*
X235093Y219106D01*
X235103Y219130D01*
X235118Y219151D01*
X235148Y219244D01*
X235185Y219334D01*
X235188Y219367D01*
X235194Y219385D01*
X235194Y219418D01*
X235203Y219501D01*
X235203Y259842D01*
X235200Y259862D01*
X235202Y259881D01*
X235180Y259983D01*
X235164Y260085D01*
X235154Y260102D01*
X235150Y260122D01*
X235097Y260211D01*
X235048Y260302D01*
X235034Y260316D01*
X235024Y260333D01*
X234945Y260400D01*
X234870Y260472D01*
X234852Y260480D01*
X234837Y260493D01*
X234741Y260532D01*
X234647Y260575D01*
X234627Y260577D01*
X234609Y260585D01*
X234442Y260603D01*
X233037Y260603D01*
X232947Y260589D01*
X232856Y260581D01*
X232826Y260569D01*
X232794Y260564D01*
X232713Y260521D01*
X232630Y260485D01*
X232597Y260459D01*
X232577Y260448D01*
X232555Y260425D01*
X232499Y260380D01*
X229343Y257225D01*
X225235Y255523D01*
X206565Y255523D01*
X202729Y257112D01*
X202685Y257122D01*
X202643Y257142D01*
X202566Y257150D01*
X202490Y257168D01*
X202444Y257164D01*
X202399Y257169D01*
X202322Y257152D01*
X202245Y257145D01*
X202203Y257126D01*
X202158Y257117D01*
X202091Y257077D01*
X202020Y257045D01*
X201986Y257014D01*
X201947Y256990D01*
X201896Y256931D01*
X201839Y256879D01*
X201817Y256838D01*
X201787Y256804D01*
X201758Y256731D01*
X201721Y256663D01*
X201712Y256618D01*
X201695Y256575D01*
X201680Y256439D01*
X201677Y256421D01*
X201678Y256416D01*
X201677Y256409D01*
X201677Y249559D01*
X201679Y249547D01*
X201677Y249535D01*
X201699Y249426D01*
X201716Y249316D01*
X201722Y249306D01*
X201724Y249294D01*
X201780Y249197D01*
X201832Y249099D01*
X201840Y249091D01*
X201846Y249080D01*
X201929Y249006D01*
X202010Y248929D01*
X202021Y248924D01*
X202030Y248916D01*
X202132Y248873D01*
X202233Y248826D01*
X202245Y248824D01*
X202256Y248820D01*
X202367Y248811D01*
X202477Y248799D01*
X202489Y248801D01*
X202501Y248800D01*
X202609Y248827D01*
X202718Y248851D01*
X202728Y248857D01*
X202740Y248860D01*
X202885Y248943D01*
X203729Y249556D01*
X205083Y250246D01*
X206528Y250715D01*
X208028Y250953D01*
X214377Y250953D01*
X214377Y242062D01*
X214380Y242042D01*
X214378Y242023D01*
X214400Y241921D01*
X214417Y241819D01*
X214426Y241802D01*
X214430Y241782D01*
X214483Y241693D01*
X214532Y241602D01*
X214546Y241588D01*
X214556Y241571D01*
X214635Y241504D01*
X214710Y241433D01*
X214728Y241424D01*
X214743Y241411D01*
X214839Y241373D01*
X214933Y241329D01*
X214953Y241327D01*
X214971Y241319D01*
X215138Y241301D01*
X215901Y241301D01*
X215901Y241299D01*
X215138Y241299D01*
X215118Y241296D01*
X215099Y241298D01*
X214997Y241276D01*
X214895Y241259D01*
X214878Y241250D01*
X214858Y241246D01*
X214769Y241193D01*
X214678Y241144D01*
X214664Y241130D01*
X214647Y241120D01*
X214580Y241041D01*
X214509Y240966D01*
X214500Y240948D01*
X214487Y240933D01*
X214448Y240837D01*
X214405Y240743D01*
X214403Y240723D01*
X214395Y240705D01*
X214377Y240538D01*
X214377Y231647D01*
X208028Y231647D01*
X206528Y231885D01*
X205083Y232354D01*
X203729Y233044D01*
X202885Y233657D01*
X202875Y233662D01*
X202866Y233671D01*
X202765Y233717D01*
X202666Y233768D01*
X202654Y233769D01*
X202643Y233774D01*
X202533Y233786D01*
X202422Y233802D01*
X202410Y233800D01*
X202399Y233801D01*
X202290Y233778D01*
X202180Y233757D01*
X202170Y233752D01*
X202158Y233749D01*
X202063Y233692D01*
X201965Y233638D01*
X201957Y233629D01*
X201947Y233623D01*
X201875Y233539D01*
X201800Y233456D01*
X201795Y233445D01*
X201787Y233436D01*
X201745Y233333D01*
X201701Y233231D01*
X201700Y233219D01*
X201695Y233208D01*
X201677Y233041D01*
X201677Y226191D01*
X201684Y226146D01*
X201682Y226100D01*
X201704Y226025D01*
X201716Y225949D01*
X201738Y225908D01*
X201751Y225864D01*
X201795Y225800D01*
X201832Y225731D01*
X201865Y225700D01*
X201891Y225662D01*
X201954Y225615D01*
X202010Y225562D01*
X202052Y225542D01*
X202088Y225515D01*
X202162Y225491D01*
X202233Y225458D01*
X202279Y225453D01*
X202322Y225439D01*
X202400Y225440D01*
X202477Y225431D01*
X202522Y225441D01*
X202568Y225441D01*
X202700Y225479D01*
X202718Y225483D01*
X202722Y225486D01*
X202729Y225488D01*
X206565Y227077D01*
X225235Y227077D01*
X229343Y225375D01*
X232487Y222231D01*
X233739Y219210D01*
X233790Y219127D01*
X233836Y219041D01*
X233854Y219023D01*
X233868Y219001D01*
X233944Y218938D01*
X234014Y218871D01*
X234038Y218860D01*
X234058Y218844D01*
X234149Y218809D01*
X234237Y218768D01*
X234263Y218765D01*
X234287Y218756D01*
X234385Y218751D01*
X234481Y218741D01*
X234507Y218746D01*
G37*
%LPC*%
G36*
X154939Y21589D02*
X154939Y21589D01*
X154939Y22352D01*
X154937Y22365D01*
X154938Y22374D01*
X154937Y22380D01*
X154938Y22391D01*
X154916Y22493D01*
X154899Y22595D01*
X154890Y22612D01*
X154886Y22632D01*
X154833Y22721D01*
X154784Y22812D01*
X154770Y22826D01*
X154760Y22843D01*
X154681Y22910D01*
X154606Y22981D01*
X154588Y22990D01*
X154573Y23003D01*
X154477Y23042D01*
X154383Y23085D01*
X154363Y23087D01*
X154345Y23095D01*
X154178Y23113D01*
X143094Y23113D01*
X143295Y24386D01*
X143876Y26173D01*
X144729Y27847D01*
X145834Y29368D01*
X147162Y30696D01*
X148683Y31801D01*
X150357Y32654D01*
X150644Y32747D01*
X150734Y32794D01*
X150826Y32835D01*
X150842Y32850D01*
X150862Y32860D01*
X150933Y32933D01*
X151007Y33001D01*
X151018Y33021D01*
X151033Y33037D01*
X151077Y33128D01*
X151126Y33217D01*
X151130Y33239D01*
X151139Y33259D01*
X151152Y33359D01*
X151170Y33459D01*
X151166Y33481D01*
X151169Y33503D01*
X151149Y33602D01*
X151134Y33702D01*
X151124Y33722D01*
X151119Y33744D01*
X151068Y33831D01*
X151022Y33921D01*
X151006Y33937D01*
X150995Y33956D01*
X150919Y34023D01*
X150847Y34094D01*
X150823Y34107D01*
X150810Y34118D01*
X150780Y34130D01*
X150700Y34174D01*
X147314Y35577D01*
X143527Y39364D01*
X141477Y44312D01*
X141477Y49668D01*
X143527Y54616D01*
X147314Y58403D01*
X152262Y60453D01*
X157618Y60453D01*
X162566Y58403D01*
X166353Y54616D01*
X168403Y49668D01*
X168403Y44312D01*
X166353Y39364D01*
X162566Y35577D01*
X159180Y34174D01*
X159094Y34121D01*
X159005Y34073D01*
X158990Y34056D01*
X158971Y34045D01*
X158907Y33967D01*
X158838Y33893D01*
X158829Y33872D01*
X158814Y33855D01*
X158778Y33761D01*
X158736Y33668D01*
X158734Y33646D01*
X158726Y33626D01*
X158722Y33525D01*
X158712Y33424D01*
X158717Y33402D01*
X158716Y33380D01*
X158744Y33283D01*
X158767Y33184D01*
X158778Y33165D01*
X158784Y33144D01*
X158842Y33060D01*
X158895Y32974D01*
X158912Y32960D01*
X158925Y32942D01*
X159006Y32881D01*
X159084Y32816D01*
X159108Y32805D01*
X159122Y32795D01*
X159153Y32785D01*
X159236Y32747D01*
X159523Y32654D01*
X161197Y31801D01*
X162718Y30696D01*
X164046Y29368D01*
X165151Y27847D01*
X166004Y26173D01*
X166585Y24386D01*
X166786Y23113D01*
X155702Y23113D01*
X155682Y23110D01*
X155663Y23112D01*
X155561Y23090D01*
X155459Y23073D01*
X155442Y23064D01*
X155422Y23060D01*
X155333Y23007D01*
X155242Y22958D01*
X155228Y22944D01*
X155211Y22934D01*
X155144Y22855D01*
X155073Y22780D01*
X155064Y22762D01*
X155051Y22747D01*
X155013Y22651D01*
X154969Y22557D01*
X154967Y22537D01*
X154959Y22519D01*
X154941Y22352D01*
X154941Y21589D01*
X154939Y21589D01*
G37*
%LPD*%
%LPC*%
G36*
X282765Y230123D02*
X282765Y230123D01*
X278657Y231825D01*
X275513Y234969D01*
X273811Y239077D01*
X273811Y243523D01*
X275513Y247631D01*
X278657Y250775D01*
X282765Y252477D01*
X301435Y252477D01*
X305543Y250775D01*
X308687Y247631D01*
X310389Y243523D01*
X310389Y239077D01*
X308687Y234969D01*
X305543Y231825D01*
X301435Y230123D01*
X282765Y230123D01*
G37*
%LPD*%
%LPC*%
G36*
X282765Y331723D02*
X282765Y331723D01*
X278657Y333425D01*
X275513Y336569D01*
X273811Y340677D01*
X273811Y345123D01*
X275513Y349231D01*
X278657Y352375D01*
X282765Y354077D01*
X301435Y354077D01*
X305543Y352375D01*
X308687Y349231D01*
X310389Y345123D01*
X310389Y340677D01*
X308687Y336569D01*
X305543Y333425D01*
X301435Y331723D01*
X282765Y331723D01*
G37*
%LPD*%
%LPC*%
G36*
X206565Y77723D02*
X206565Y77723D01*
X202457Y79425D01*
X199313Y82569D01*
X197611Y86677D01*
X197611Y91123D01*
X199313Y95231D01*
X202457Y98375D01*
X206565Y100077D01*
X225235Y100077D01*
X229343Y98375D01*
X232487Y95231D01*
X234189Y91123D01*
X234189Y86677D01*
X232487Y82569D01*
X229343Y79425D01*
X225235Y77723D01*
X206565Y77723D01*
G37*
%LPD*%
%LPC*%
G36*
X282765Y306323D02*
X282765Y306323D01*
X278657Y308025D01*
X275513Y311169D01*
X273811Y315277D01*
X273811Y319723D01*
X275513Y323831D01*
X278657Y326975D01*
X282765Y328677D01*
X301435Y328677D01*
X305543Y326975D01*
X308687Y323831D01*
X310389Y319723D01*
X310389Y315277D01*
X308687Y311169D01*
X305543Y308025D01*
X301435Y306323D01*
X282765Y306323D01*
G37*
%LPD*%
%LPC*%
G36*
X282765Y255523D02*
X282765Y255523D01*
X278657Y257225D01*
X275513Y260369D01*
X273811Y264477D01*
X273811Y268923D01*
X275513Y273031D01*
X278657Y276175D01*
X282765Y277877D01*
X301435Y277877D01*
X305543Y276175D01*
X308687Y273031D01*
X310389Y268923D01*
X310389Y264477D01*
X308687Y260369D01*
X305543Y257225D01*
X301435Y255523D01*
X282765Y255523D01*
G37*
%LPD*%
%LPC*%
G36*
X282765Y280923D02*
X282765Y280923D01*
X278657Y282625D01*
X275513Y285769D01*
X273811Y289877D01*
X273811Y294323D01*
X275513Y298431D01*
X278657Y301575D01*
X282765Y303277D01*
X301435Y303277D01*
X305543Y301575D01*
X308687Y298431D01*
X310389Y294323D01*
X310389Y289877D01*
X308687Y285769D01*
X305543Y282625D01*
X301435Y280923D01*
X282765Y280923D01*
G37*
%LPD*%
%LPC*%
G36*
X424042Y451357D02*
X424042Y451357D01*
X419094Y453407D01*
X415307Y457194D01*
X413257Y462142D01*
X413257Y467498D01*
X415307Y472446D01*
X419094Y476233D01*
X424042Y478283D01*
X429398Y478283D01*
X434346Y476233D01*
X438133Y472446D01*
X440183Y467498D01*
X440183Y462142D01*
X438133Y457194D01*
X434346Y453407D01*
X429398Y451357D01*
X424042Y451357D01*
G37*
%LPD*%
%LPC*%
G36*
X163692Y466597D02*
X163692Y466597D01*
X158744Y468647D01*
X154957Y472434D01*
X152907Y477382D01*
X152907Y482738D01*
X154957Y487686D01*
X158744Y491473D01*
X163692Y493523D01*
X169048Y493523D01*
X173996Y491473D01*
X177783Y487686D01*
X179833Y482738D01*
X179833Y477382D01*
X177783Y472434D01*
X173996Y468647D01*
X169048Y466597D01*
X163692Y466597D01*
G37*
%LPD*%
%LPC*%
G36*
X68442Y451357D02*
X68442Y451357D01*
X63494Y453407D01*
X59707Y457194D01*
X57657Y462142D01*
X57657Y467498D01*
X59707Y472446D01*
X63494Y476233D01*
X68442Y478283D01*
X73798Y478283D01*
X78746Y476233D01*
X82533Y472446D01*
X84583Y467498D01*
X84583Y462142D01*
X82533Y457194D01*
X78746Y453407D01*
X73798Y451357D01*
X68442Y451357D01*
G37*
%LPD*%
%LPC*%
G36*
X231370Y6177D02*
X231370Y6177D01*
X227102Y7945D01*
X223835Y11212D01*
X222067Y15480D01*
X222067Y20100D01*
X223835Y24368D01*
X227102Y27635D01*
X231370Y29403D01*
X235990Y29403D01*
X240258Y27635D01*
X243525Y24368D01*
X245293Y20100D01*
X245293Y15480D01*
X243525Y11212D01*
X240258Y7945D01*
X235990Y6177D01*
X231370Y6177D01*
G37*
%LPD*%
%LPC*%
G36*
X231370Y39177D02*
X231370Y39177D01*
X227102Y40945D01*
X223835Y44212D01*
X222067Y48480D01*
X222067Y53100D01*
X223835Y57368D01*
X227102Y60635D01*
X231370Y62403D01*
X235990Y62403D01*
X240258Y60635D01*
X243525Y57368D01*
X245293Y53100D01*
X245293Y48480D01*
X243525Y44212D01*
X240258Y40945D01*
X235990Y39177D01*
X231370Y39177D01*
G37*
%LPD*%
%LPC*%
G36*
X256370Y39177D02*
X256370Y39177D01*
X252102Y40945D01*
X248835Y44212D01*
X247067Y48480D01*
X247067Y53100D01*
X248835Y57368D01*
X252102Y60635D01*
X256370Y62403D01*
X260990Y62403D01*
X265258Y60635D01*
X268525Y57368D01*
X270293Y53100D01*
X270293Y48480D01*
X268525Y44212D01*
X265258Y40945D01*
X260990Y39177D01*
X256370Y39177D01*
G37*
%LPD*%
%LPC*%
G36*
X206370Y39177D02*
X206370Y39177D01*
X202102Y40945D01*
X198835Y44212D01*
X197067Y48480D01*
X197067Y53100D01*
X198835Y57368D01*
X202102Y60635D01*
X206370Y62403D01*
X210990Y62403D01*
X215258Y60635D01*
X218525Y57368D01*
X220293Y53100D01*
X220293Y48480D01*
X218525Y44212D01*
X215258Y40945D01*
X210990Y39177D01*
X206370Y39177D01*
G37*
%LPD*%
%LPC*%
G36*
X206370Y6177D02*
X206370Y6177D01*
X202102Y7945D01*
X198835Y11212D01*
X197067Y15480D01*
X197067Y20100D01*
X198835Y24368D01*
X202102Y27635D01*
X206370Y29403D01*
X210990Y29403D01*
X215258Y27635D01*
X218525Y24368D01*
X220293Y20100D01*
X220293Y15480D01*
X218525Y11212D01*
X215258Y7945D01*
X210990Y6177D01*
X206370Y6177D01*
G37*
%LPD*%
%LPC*%
G36*
X256370Y6177D02*
X256370Y6177D01*
X252102Y7945D01*
X248835Y11212D01*
X247067Y15480D01*
X247067Y20100D01*
X248835Y24368D01*
X252102Y27635D01*
X256370Y29403D01*
X260990Y29403D01*
X265258Y27635D01*
X268525Y24368D01*
X270293Y20100D01*
X270293Y15480D01*
X268525Y11212D01*
X265258Y7945D01*
X260990Y6177D01*
X256370Y6177D01*
G37*
%LPD*%
%LPC*%
G36*
X389070Y466343D02*
X389070Y466343D01*
X382523Y472890D01*
X382523Y482150D01*
X389070Y488697D01*
X398330Y488697D01*
X404877Y482150D01*
X404877Y472890D01*
X398330Y466343D01*
X389070Y466343D01*
G37*
%LPD*%
%LPC*%
G36*
X179520Y104393D02*
X179520Y104393D01*
X172973Y110940D01*
X172973Y120200D01*
X179520Y126747D01*
X188780Y126747D01*
X195327Y120200D01*
X195327Y110940D01*
X188780Y104393D01*
X179520Y104393D01*
G37*
%LPD*%
%LPC*%
G36*
X122370Y442213D02*
X122370Y442213D01*
X115823Y448760D01*
X115823Y458020D01*
X122370Y464567D01*
X131630Y464567D01*
X138177Y458020D01*
X138177Y448760D01*
X131630Y442213D01*
X122370Y442213D01*
G37*
%LPD*%
%LPC*%
G36*
X122370Y467613D02*
X122370Y467613D01*
X115823Y474160D01*
X115823Y483420D01*
X122370Y489967D01*
X131630Y489967D01*
X138177Y483420D01*
X138177Y474160D01*
X131630Y467613D01*
X122370Y467613D01*
G37*
%LPD*%
%LPC*%
G36*
X124910Y418083D02*
X124910Y418083D01*
X118363Y424630D01*
X118363Y433890D01*
X124910Y440437D01*
X134170Y440437D01*
X140717Y433890D01*
X140717Y424630D01*
X134170Y418083D01*
X124910Y418083D01*
G37*
%LPD*%
%LPC*%
G36*
X293623Y192023D02*
X293623Y192023D01*
X293623Y200153D01*
X299972Y200153D01*
X301472Y199915D01*
X302917Y199446D01*
X304271Y198756D01*
X305500Y197863D01*
X306575Y196788D01*
X307468Y195559D01*
X308158Y194205D01*
X308627Y192760D01*
X308744Y192023D01*
X293623Y192023D01*
G37*
%LPD*%
%LPC*%
G36*
X217423Y242823D02*
X217423Y242823D01*
X217423Y250953D01*
X223772Y250953D01*
X225272Y250715D01*
X226717Y250246D01*
X228071Y249556D01*
X229300Y248663D01*
X230375Y247588D01*
X231268Y246359D01*
X231958Y245005D01*
X232427Y243560D01*
X232544Y242823D01*
X217423Y242823D01*
G37*
%LPD*%
%LPC*%
G36*
X293623Y395223D02*
X293623Y395223D01*
X293623Y403353D01*
X299972Y403353D01*
X301472Y403115D01*
X302917Y402646D01*
X304271Y401956D01*
X305500Y401063D01*
X306575Y399988D01*
X307468Y398759D01*
X308158Y397405D01*
X308627Y395960D01*
X308744Y395223D01*
X293623Y395223D01*
G37*
%LPD*%
%LPC*%
G36*
X275456Y395223D02*
X275456Y395223D01*
X275573Y395960D01*
X276042Y397405D01*
X276732Y398759D01*
X277625Y399988D01*
X278700Y401063D01*
X279929Y401956D01*
X281283Y402646D01*
X282728Y403115D01*
X284228Y403353D01*
X290577Y403353D01*
X290577Y395223D01*
X275456Y395223D01*
G37*
%LPD*%
%LPC*%
G36*
X275456Y192023D02*
X275456Y192023D01*
X275573Y192760D01*
X276042Y194205D01*
X276732Y195559D01*
X277625Y196788D01*
X278700Y197863D01*
X279929Y198756D01*
X281283Y199446D01*
X282728Y199915D01*
X284228Y200153D01*
X290577Y200153D01*
X290577Y192023D01*
X275456Y192023D01*
G37*
%LPD*%
%LPC*%
G36*
X293623Y384047D02*
X293623Y384047D01*
X293623Y392177D01*
X308744Y392177D01*
X308627Y391440D01*
X308158Y389995D01*
X307468Y388641D01*
X306575Y387412D01*
X305500Y386337D01*
X304271Y385444D01*
X302917Y384754D01*
X301472Y384285D01*
X299972Y384047D01*
X293623Y384047D01*
G37*
%LPD*%
%LPC*%
G36*
X293623Y180847D02*
X293623Y180847D01*
X293623Y188977D01*
X308744Y188977D01*
X308627Y188240D01*
X308158Y186795D01*
X307468Y185441D01*
X306575Y184212D01*
X305500Y183137D01*
X304271Y182244D01*
X302917Y181554D01*
X301472Y181085D01*
X299972Y180847D01*
X293623Y180847D01*
G37*
%LPD*%
%LPC*%
G36*
X217423Y231647D02*
X217423Y231647D01*
X217423Y239777D01*
X232544Y239777D01*
X232427Y239040D01*
X231958Y237595D01*
X231268Y236241D01*
X230375Y235012D01*
X229300Y233937D01*
X228071Y233044D01*
X226717Y232354D01*
X225272Y231885D01*
X223772Y231647D01*
X217423Y231647D01*
G37*
%LPD*%
%LPC*%
G36*
X284228Y180847D02*
X284228Y180847D01*
X282728Y181085D01*
X281283Y181554D01*
X279929Y182244D01*
X278700Y183137D01*
X277625Y184212D01*
X276732Y185441D01*
X276042Y186795D01*
X275573Y188240D01*
X275456Y188977D01*
X290577Y188977D01*
X290577Y180847D01*
X284228Y180847D01*
G37*
%LPD*%
%LPC*%
G36*
X284228Y384047D02*
X284228Y384047D01*
X282728Y384285D01*
X281283Y384754D01*
X279929Y385444D01*
X278700Y386337D01*
X277625Y387412D01*
X276732Y388641D01*
X276042Y389995D01*
X275573Y391440D01*
X275456Y392177D01*
X290577Y392177D01*
X290577Y384047D01*
X284228Y384047D01*
G37*
%LPD*%
%LPC*%
G36*
X423163Y23113D02*
X423163Y23113D01*
X423163Y33436D01*
X424436Y33235D01*
X426223Y32654D01*
X427897Y31801D01*
X429418Y30696D01*
X430746Y29368D01*
X431851Y27847D01*
X432704Y26173D01*
X433285Y24386D01*
X433486Y23113D01*
X423163Y23113D01*
G37*
%LPD*%
%LPC*%
G36*
X21843Y466343D02*
X21843Y466343D01*
X21843Y476666D01*
X23116Y476465D01*
X24903Y475884D01*
X26577Y475031D01*
X28098Y473926D01*
X29426Y472598D01*
X30531Y471077D01*
X31384Y469403D01*
X31965Y467616D01*
X32166Y466343D01*
X21843Y466343D01*
G37*
%LPD*%
%LPC*%
G36*
X28193Y141223D02*
X28193Y141223D01*
X28193Y151546D01*
X29466Y151345D01*
X31253Y150764D01*
X32927Y149911D01*
X34448Y148806D01*
X35776Y147478D01*
X36881Y145957D01*
X37734Y144283D01*
X38315Y142496D01*
X38516Y141223D01*
X28193Y141223D01*
G37*
%LPD*%
%LPC*%
G36*
X479043Y466343D02*
X479043Y466343D01*
X479043Y476666D01*
X480316Y476465D01*
X482103Y475884D01*
X483777Y475031D01*
X485298Y473926D01*
X486626Y472598D01*
X487731Y471077D01*
X488584Y469403D01*
X489165Y467616D01*
X489366Y466343D01*
X479043Y466343D01*
G37*
%LPD*%
%LPC*%
G36*
X8474Y466343D02*
X8474Y466343D01*
X8675Y467616D01*
X9256Y469403D01*
X10109Y471077D01*
X11214Y472598D01*
X12542Y473926D01*
X14063Y475031D01*
X15737Y475884D01*
X17524Y476465D01*
X18797Y476666D01*
X18797Y466343D01*
X8474Y466343D01*
G37*
%LPD*%
%LPC*%
G36*
X479043Y463297D02*
X479043Y463297D01*
X489366Y463297D01*
X489165Y462024D01*
X488584Y460237D01*
X487731Y458563D01*
X486626Y457042D01*
X485298Y455714D01*
X483777Y454609D01*
X482103Y453756D01*
X480316Y453175D01*
X479043Y452974D01*
X479043Y463297D01*
G37*
%LPD*%
%LPC*%
G36*
X465674Y466343D02*
X465674Y466343D01*
X465875Y467616D01*
X466456Y469403D01*
X467309Y471077D01*
X468414Y472598D01*
X469742Y473926D01*
X471263Y475031D01*
X472937Y475884D01*
X474724Y476465D01*
X475997Y476666D01*
X475997Y466343D01*
X465674Y466343D01*
G37*
%LPD*%
%LPC*%
G36*
X14824Y141223D02*
X14824Y141223D01*
X15025Y142496D01*
X15606Y144283D01*
X16459Y145957D01*
X17564Y147478D01*
X18892Y148806D01*
X20413Y149911D01*
X22087Y150764D01*
X23874Y151345D01*
X25147Y151546D01*
X25147Y141223D01*
X14824Y141223D01*
G37*
%LPD*%
%LPC*%
G36*
X156463Y20067D02*
X156463Y20067D01*
X166786Y20067D01*
X166585Y18794D01*
X166004Y17007D01*
X165151Y15333D01*
X164046Y13812D01*
X162718Y12484D01*
X161197Y11379D01*
X159523Y10526D01*
X157736Y9945D01*
X156463Y9744D01*
X156463Y20067D01*
G37*
%LPD*%
%LPC*%
G36*
X451103Y21337D02*
X451103Y21337D01*
X461426Y21337D01*
X461225Y20064D01*
X460644Y18277D01*
X459791Y16603D01*
X458686Y15082D01*
X457358Y13754D01*
X455837Y12649D01*
X454163Y11796D01*
X452376Y11215D01*
X451103Y11014D01*
X451103Y21337D01*
G37*
%LPD*%
%LPC*%
G36*
X471423Y140717D02*
X471423Y140717D01*
X481746Y140717D01*
X481545Y139444D01*
X480964Y137657D01*
X480111Y135983D01*
X479006Y134462D01*
X477678Y133134D01*
X476157Y132029D01*
X474483Y131176D01*
X472696Y130595D01*
X471423Y130394D01*
X471423Y140717D01*
G37*
%LPD*%
%LPC*%
G36*
X24383Y27687D02*
X24383Y27687D01*
X34706Y27687D01*
X34505Y26414D01*
X33924Y24627D01*
X33071Y22953D01*
X31966Y21432D01*
X30638Y20104D01*
X29117Y18999D01*
X27443Y18146D01*
X25656Y17565D01*
X24383Y17364D01*
X24383Y27687D01*
G37*
%LPD*%
%LPC*%
G36*
X423163Y20067D02*
X423163Y20067D01*
X433486Y20067D01*
X433285Y18794D01*
X432704Y17007D01*
X431851Y15333D01*
X430746Y13812D01*
X429418Y12484D01*
X427897Y11379D01*
X426223Y10526D01*
X424436Y9945D01*
X423163Y9744D01*
X423163Y20067D01*
G37*
%LPD*%
%LPC*%
G36*
X28193Y163577D02*
X28193Y163577D01*
X38516Y163577D01*
X38315Y162304D01*
X37734Y160517D01*
X36881Y158843D01*
X35776Y157322D01*
X34448Y155994D01*
X32927Y154889D01*
X31253Y154036D01*
X29466Y153455D01*
X28193Y153254D01*
X28193Y163577D01*
G37*
%LPD*%
%LPC*%
G36*
X28193Y138177D02*
X28193Y138177D01*
X38516Y138177D01*
X38315Y136904D01*
X37734Y135117D01*
X36881Y133443D01*
X35776Y131922D01*
X34448Y130594D01*
X32927Y129489D01*
X31253Y128636D01*
X29466Y128055D01*
X28193Y127854D01*
X28193Y138177D01*
G37*
%LPD*%
%LPC*%
G36*
X21843Y463297D02*
X21843Y463297D01*
X32166Y463297D01*
X31965Y462024D01*
X31384Y460237D01*
X30531Y458563D01*
X29426Y457042D01*
X28098Y455714D01*
X26577Y454609D01*
X24903Y453756D01*
X23116Y453175D01*
X21843Y452974D01*
X21843Y463297D01*
G37*
%LPD*%
%LPC*%
G36*
X474724Y453175D02*
X474724Y453175D01*
X472937Y453756D01*
X471263Y454609D01*
X469742Y455714D01*
X468414Y457042D01*
X467309Y458563D01*
X466456Y460237D01*
X465875Y462024D01*
X465674Y463297D01*
X475997Y463297D01*
X475997Y452974D01*
X474724Y453175D01*
G37*
%LPD*%
%LPC*%
G36*
X17524Y453175D02*
X17524Y453175D01*
X15737Y453756D01*
X14063Y454609D01*
X12542Y455714D01*
X11214Y457042D01*
X10109Y458563D01*
X9256Y460237D01*
X8675Y462024D01*
X8474Y463297D01*
X18797Y463297D01*
X18797Y452974D01*
X17524Y453175D01*
G37*
%LPD*%
%LPC*%
G36*
X23874Y128055D02*
X23874Y128055D01*
X22087Y128636D01*
X20413Y129489D01*
X18892Y130594D01*
X17564Y131922D01*
X16459Y133443D01*
X15606Y135117D01*
X15025Y136904D01*
X14824Y138177D01*
X25147Y138177D01*
X25147Y127854D01*
X23874Y128055D01*
G37*
%LPD*%
%LPC*%
G36*
X20064Y17565D02*
X20064Y17565D01*
X18277Y18146D01*
X16603Y18999D01*
X15082Y20104D01*
X13754Y21432D01*
X12649Y22953D01*
X11796Y24627D01*
X11215Y26414D01*
X11014Y27687D01*
X21337Y27687D01*
X21337Y17364D01*
X20064Y17565D01*
G37*
%LPD*%
%LPC*%
G36*
X23874Y153455D02*
X23874Y153455D01*
X22087Y154036D01*
X20413Y154889D01*
X18892Y155994D01*
X17564Y157322D01*
X16459Y158843D01*
X15606Y160517D01*
X15025Y162304D01*
X14824Y163577D01*
X25147Y163577D01*
X25147Y153254D01*
X23874Y153455D01*
G37*
%LPD*%
%LPC*%
G36*
X446784Y11215D02*
X446784Y11215D01*
X444997Y11796D01*
X443323Y12649D01*
X441802Y13754D01*
X440474Y15082D01*
X439369Y16603D01*
X438516Y18277D01*
X437935Y20064D01*
X437734Y21337D01*
X448057Y21337D01*
X448057Y11014D01*
X446784Y11215D01*
G37*
%LPD*%
%LPC*%
G36*
X152144Y9945D02*
X152144Y9945D01*
X150357Y10526D01*
X148683Y11379D01*
X147162Y12484D01*
X145834Y13812D01*
X144729Y15333D01*
X143876Y17007D01*
X143295Y18794D01*
X143094Y20067D01*
X153417Y20067D01*
X153417Y9744D01*
X152144Y9945D01*
G37*
%LPD*%
%LPC*%
G36*
X467104Y130595D02*
X467104Y130595D01*
X465317Y131176D01*
X463643Y132029D01*
X462122Y133134D01*
X460794Y134462D01*
X459689Y135983D01*
X458836Y137657D01*
X458255Y139444D01*
X458054Y140717D01*
X468377Y140717D01*
X468377Y130394D01*
X467104Y130595D01*
G37*
%LPD*%
%LPC*%
G36*
X363473Y358393D02*
X363473Y358393D01*
X363473Y366523D01*
X365948Y366523D01*
X371603Y360868D01*
X371603Y358393D01*
X363473Y358393D01*
G37*
%LPD*%
%LPC*%
G36*
X164083Y352043D02*
X164083Y352043D01*
X164083Y360173D01*
X166558Y360173D01*
X172213Y354518D01*
X172213Y352043D01*
X164083Y352043D01*
G37*
%LPD*%
%LPC*%
G36*
X160273Y117093D02*
X160273Y117093D01*
X160273Y125223D01*
X162748Y125223D01*
X168403Y119568D01*
X168403Y117093D01*
X160273Y117093D01*
G37*
%LPD*%
%LPC*%
G36*
X349503Y217423D02*
X349503Y217423D01*
X349503Y225553D01*
X351978Y225553D01*
X357633Y219898D01*
X357633Y217423D01*
X349503Y217423D01*
G37*
%LPD*%
%LPC*%
G36*
X330453Y397763D02*
X330453Y397763D01*
X330453Y405893D01*
X332928Y405893D01*
X338583Y400238D01*
X338583Y397763D01*
X330453Y397763D01*
G37*
%LPD*%
%LPC*%
G36*
X152907Y352043D02*
X152907Y352043D01*
X152907Y354518D01*
X158562Y360173D01*
X161037Y360173D01*
X161037Y352043D01*
X152907Y352043D01*
G37*
%LPD*%
%LPC*%
G36*
X338327Y217423D02*
X338327Y217423D01*
X338327Y219898D01*
X343982Y225553D01*
X346457Y225553D01*
X346457Y217423D01*
X338327Y217423D01*
G37*
%LPD*%
%LPC*%
G36*
X149097Y117093D02*
X149097Y117093D01*
X149097Y119568D01*
X154752Y125223D01*
X157227Y125223D01*
X157227Y117093D01*
X149097Y117093D01*
G37*
%LPD*%
%LPC*%
G36*
X319277Y397763D02*
X319277Y397763D01*
X319277Y400238D01*
X324932Y405893D01*
X327407Y405893D01*
X327407Y397763D01*
X319277Y397763D01*
G37*
%LPD*%
%LPC*%
G36*
X352297Y358393D02*
X352297Y358393D01*
X352297Y360868D01*
X357952Y366523D01*
X360427Y366523D01*
X360427Y358393D01*
X352297Y358393D01*
G37*
%LPD*%
%LPC*%
G36*
X349503Y206247D02*
X349503Y206247D01*
X349503Y214377D01*
X357633Y214377D01*
X357633Y211902D01*
X351978Y206247D01*
X349503Y206247D01*
G37*
%LPD*%
%LPC*%
G36*
X160273Y105917D02*
X160273Y105917D01*
X160273Y114047D01*
X168403Y114047D01*
X168403Y111572D01*
X162748Y105917D01*
X160273Y105917D01*
G37*
%LPD*%
%LPC*%
G36*
X164083Y340867D02*
X164083Y340867D01*
X164083Y348997D01*
X172213Y348997D01*
X172213Y346522D01*
X166558Y340867D01*
X164083Y340867D01*
G37*
%LPD*%
%LPC*%
G36*
X363473Y347217D02*
X363473Y347217D01*
X363473Y355347D01*
X371603Y355347D01*
X371603Y352872D01*
X365948Y347217D01*
X363473Y347217D01*
G37*
%LPD*%
%LPC*%
G36*
X330453Y386587D02*
X330453Y386587D01*
X330453Y394717D01*
X338583Y394717D01*
X338583Y392242D01*
X332928Y386587D01*
X330453Y386587D01*
G37*
%LPD*%
%LPC*%
G36*
X154752Y105917D02*
X154752Y105917D01*
X149097Y111572D01*
X149097Y114047D01*
X157227Y114047D01*
X157227Y105917D01*
X154752Y105917D01*
G37*
%LPD*%
%LPC*%
G36*
X343982Y206247D02*
X343982Y206247D01*
X338327Y211902D01*
X338327Y214377D01*
X346457Y214377D01*
X346457Y206247D01*
X343982Y206247D01*
G37*
%LPD*%
%LPC*%
G36*
X158562Y340867D02*
X158562Y340867D01*
X152907Y346522D01*
X152907Y348997D01*
X161037Y348997D01*
X161037Y340867D01*
X158562Y340867D01*
G37*
%LPD*%
%LPC*%
G36*
X357952Y347217D02*
X357952Y347217D01*
X352297Y352872D01*
X352297Y355347D01*
X360427Y355347D01*
X360427Y347217D01*
X357952Y347217D01*
G37*
%LPD*%
%LPC*%
G36*
X324932Y386587D02*
X324932Y386587D01*
X319277Y392242D01*
X319277Y394717D01*
X327407Y394717D01*
X327407Y386587D01*
X324932Y386587D01*
G37*
%LPD*%
%LPC*%
G36*
X477519Y464819D02*
X477519Y464819D01*
X477519Y464821D01*
X477521Y464821D01*
X477521Y464819D01*
X477519Y464819D01*
G37*
%LPD*%
%LPC*%
G36*
X158749Y115569D02*
X158749Y115569D01*
X158749Y115571D01*
X158751Y115571D01*
X158751Y115569D01*
X158749Y115569D01*
G37*
%LPD*%
%LPC*%
G36*
X162559Y350519D02*
X162559Y350519D01*
X162559Y350521D01*
X162561Y350521D01*
X162561Y350519D01*
X162559Y350519D01*
G37*
%LPD*%
%LPC*%
G36*
X292099Y393699D02*
X292099Y393699D01*
X292099Y393701D01*
X292101Y393701D01*
X292101Y393699D01*
X292099Y393699D01*
G37*
%LPD*%
%LPC*%
G36*
X347979Y215899D02*
X347979Y215899D01*
X347979Y215901D01*
X347981Y215901D01*
X347981Y215899D01*
X347979Y215899D01*
G37*
%LPD*%
%LPC*%
G36*
X361949Y356869D02*
X361949Y356869D01*
X361949Y356871D01*
X361951Y356871D01*
X361951Y356869D01*
X361949Y356869D01*
G37*
%LPD*%
%LPC*%
G36*
X26669Y139699D02*
X26669Y139699D01*
X26669Y139701D01*
X26671Y139701D01*
X26671Y139699D01*
X26669Y139699D01*
G37*
%LPD*%
%LPC*%
G36*
X328929Y396239D02*
X328929Y396239D01*
X328929Y396241D01*
X328931Y396241D01*
X328931Y396239D01*
X328929Y396239D01*
G37*
%LPD*%
%LPC*%
G36*
X20319Y464819D02*
X20319Y464819D01*
X20319Y464821D01*
X20321Y464821D01*
X20321Y464819D01*
X20319Y464819D01*
G37*
%LPD*%
%LPC*%
G36*
X292099Y190499D02*
X292099Y190499D01*
X292099Y190501D01*
X292101Y190501D01*
X292101Y190499D01*
X292099Y190499D01*
G37*
%LPD*%
D10*
X328930Y421640D03*
X328930Y396240D03*
D11*
X184150Y115570D03*
X158750Y115570D03*
D12*
X322580Y215900D03*
X347980Y215900D03*
D10*
X393700Y477520D03*
X393700Y452120D03*
X127000Y478790D03*
X127000Y453390D03*
D13*
X361950Y356870D03*
X361950Y433070D03*
X162560Y350520D03*
X162560Y426720D03*
D10*
X391160Y431800D03*
X391160Y355600D03*
X129540Y429260D03*
X129540Y353060D03*
D14*
X208788Y419100D02*
X223012Y419100D01*
X223012Y393700D02*
X208788Y393700D01*
X208788Y368300D02*
X223012Y368300D01*
X223012Y342900D02*
X208788Y342900D01*
X208788Y317500D02*
X223012Y317500D01*
X223012Y292100D02*
X208788Y292100D01*
X208788Y266700D02*
X223012Y266700D01*
X223012Y241300D02*
X208788Y241300D01*
X208788Y215900D02*
X223012Y215900D01*
X223012Y190500D02*
X208788Y190500D01*
X208788Y165100D02*
X223012Y165100D01*
X223012Y139700D02*
X208788Y139700D01*
X208788Y114300D02*
X223012Y114300D01*
X223012Y88900D02*
X208788Y88900D01*
X284988Y88900D02*
X299212Y88900D01*
X299212Y114300D02*
X284988Y114300D01*
X284988Y139700D02*
X299212Y139700D01*
X299212Y165100D02*
X284988Y165100D01*
X284988Y190500D02*
X299212Y190500D01*
X299212Y215900D02*
X284988Y215900D01*
X284988Y241300D02*
X299212Y241300D01*
X299212Y266700D02*
X284988Y266700D01*
X284988Y292100D02*
X299212Y292100D01*
X299212Y317500D02*
X284988Y317500D01*
X284988Y342900D02*
X299212Y342900D01*
X299212Y368300D02*
X284988Y368300D01*
X284988Y393700D02*
X299212Y393700D01*
X299212Y419100D02*
X284988Y419100D01*
D15*
X402590Y100330D03*
X403860Y77470D03*
X469900Y368300D03*
X469900Y342900D03*
X469900Y317500D03*
X469900Y292100D03*
X469900Y266700D03*
X469900Y243840D03*
X469900Y218440D03*
X469900Y193040D03*
X469900Y167640D03*
X469900Y142240D03*
X26670Y241300D03*
X26670Y215900D03*
X26670Y190500D03*
X26670Y165100D03*
X26670Y139700D03*
X25400Y368300D03*
X25400Y342900D03*
X25400Y317500D03*
X25400Y292100D03*
X25400Y266700D03*
X22860Y78740D03*
X22860Y54610D03*
X22860Y29210D03*
X154940Y21590D03*
X154940Y46990D03*
D16*
X208680Y50790D03*
X233680Y50790D03*
X258680Y50790D03*
X258680Y17790D03*
X233680Y17790D03*
X208680Y17790D03*
D15*
X120650Y20320D03*
X120650Y45720D03*
X120650Y71120D03*
X120650Y96520D03*
X421640Y21590D03*
X396240Y21590D03*
X370840Y21590D03*
X345440Y21590D03*
X320040Y21590D03*
X294640Y21590D03*
X199390Y471170D03*
X224790Y471170D03*
X250190Y471170D03*
X275590Y471170D03*
X300990Y471170D03*
X450850Y96520D03*
X449580Y22860D03*
X450850Y46990D03*
X450850Y72390D03*
X426720Y464820D03*
X477520Y464820D03*
X71120Y464820D03*
X20320Y464820D03*
D17*
X76200Y215900D03*
D18*
X76200Y127000D01*
D17*
X76200Y127000D03*
D19*
X421640Y193040D03*
D20*
X312420Y438150D02*
X293370Y438150D01*
X312420Y438150D02*
X328930Y421640D01*
X360680Y487680D02*
X365760Y487680D01*
X360680Y487680D02*
X328930Y455930D01*
X328930Y421640D01*
D17*
X365760Y487680D03*
X63500Y25400D03*
X50800Y25400D03*
D18*
X62230Y36830D02*
X62230Y190500D01*
X62230Y36830D02*
X50800Y25400D01*
D17*
X50800Y190500D03*
D20*
X62230Y190500D01*
X62230Y341630D01*
X76200Y355600D01*
X127000Y355600D01*
X129540Y353060D01*
X391160Y355600D02*
X391160Y243840D01*
X419100Y215900D02*
X419100Y179070D01*
X454660Y179070D01*
X468630Y165100D01*
X468630Y168910D01*
X469900Y167640D01*
X419100Y215900D02*
X391160Y243840D01*
D17*
X293370Y438150D03*
X149860Y416560D03*
D20*
X138430Y405130D01*
X138430Y367030D01*
X127000Y355600D01*
D19*
X454660Y179070D03*
D20*
X393700Y452120D02*
X375920Y452120D01*
X361950Y438150D02*
X361950Y433070D01*
X361950Y438150D02*
X375920Y452120D01*
D21*
X199390Y435610D02*
X199390Y471170D01*
X199390Y435610D02*
X215900Y419100D01*
D20*
X254000Y449580D02*
X275590Y471170D01*
X254000Y449580D02*
X254000Y381000D01*
X215900Y342900D01*
X266700Y436880D02*
X300990Y471170D01*
X228600Y317500D02*
X215900Y317500D01*
X266700Y355600D02*
X266700Y436880D01*
X266700Y355600D02*
X228600Y317500D01*
D17*
X171450Y149860D03*
X158750Y455930D03*
D20*
X180340Y163830D02*
X167640Y151130D01*
X170180Y151130D02*
X171450Y149860D01*
X170180Y151130D02*
X167640Y151130D01*
X180340Y434340D02*
X158750Y455930D01*
X180340Y434340D02*
X180340Y163830D01*
D15*
X166370Y480060D03*
D17*
X195580Y177800D03*
X190500Y406400D03*
D20*
X195580Y401320D02*
X195580Y177800D01*
X195580Y401320D02*
X190500Y406400D01*
D17*
X368300Y139700D03*
D20*
X368300Y76200D01*
D17*
X368300Y76200D03*
X342900Y165100D03*
D20*
X342900Y101600D01*
D17*
X342900Y101600D03*
D20*
X241300Y266700D02*
X215900Y266700D01*
X241300Y266700D02*
X241300Y101600D01*
X320040Y22860D02*
X320040Y21590D01*
X320040Y22860D02*
X241300Y101600D01*
D17*
X254000Y215900D03*
D20*
X266700Y203200D01*
X266700Y101600D01*
X330200Y101600D01*
X330200Y36830D02*
X345440Y21590D01*
X330200Y36830D02*
X330200Y101600D01*
X101600Y241300D02*
X101600Y292100D01*
D17*
X101600Y241300D03*
X101600Y292100D03*
X152400Y88900D03*
D20*
X139700Y101600D01*
X139700Y266700D01*
D17*
X139700Y266700D03*
X139700Y266700D03*
D19*
X469900Y243840D03*
X408940Y218440D03*
M02*
