M48
;GenerationSoftware,Autodesk,EAGLE,9.6.2*%
;CreationDate,2022-05-31T12:08:21Z*%
FMAT,2
ICI,OFF
METRIC,TZ,000.000
T5C0.350
T4C0.508
T3C0.813
T2C0.900
T1C1.016
%
G90
M71
T1
X2032Y46482
X7112Y46482
X47752Y46482
X42672Y46482
X45085Y7239
X45085Y4699
X44958Y2286
X45085Y9652
X30099Y47117
X27559Y47117
X25019Y47117
X22479Y47117
X16637Y48006
X19939Y47117
X29464Y2159
X32004Y2159
X34544Y2159
X37084Y2159
X39624Y2159
X42164Y2159
X12065Y9652
X12065Y7112
X12065Y4572
X12065Y2032
X40386Y7747
X46990Y36830
X46990Y34290
X46990Y31750
X40259Y10033
X46990Y29210
X15494Y4699
X15494Y2159
X2286Y2921
X2286Y5461
X2286Y7874
X2540Y26670
X2540Y29210
X2540Y31750
X2540Y34290
X2540Y36830
X2667Y13970
X2667Y16510
X2667Y19050
X2667Y21590
X2667Y24130
X46990Y14224
X46990Y16764
X46990Y19304
X46990Y21844
X46990Y24384
X46990Y26670
T2
X20868Y5079
X25868Y5079
X25868Y1779
X23368Y1779
X20868Y1779
X23368Y5079
T3
X21590Y11430
X21590Y8890
X29210Y8890
X29210Y11430
X29210Y13970
X29210Y16510
X29210Y19050
X29210Y21590
X29210Y24130
X29210Y26670
X29210Y29210
X29210Y31750
X29210Y34290
X29210Y36830
X29210Y39370
X29210Y41910
X21590Y13970
X21590Y16510
X21590Y19050
X21590Y21590
X21590Y24130
X21590Y26670
X21590Y29210
X21590Y31750
X21590Y34290
X21590Y36830
X21590Y39370
X21590Y41910
X12954Y35306
X12954Y42926
X39116Y35560
X39116Y43180
X16256Y42672
X16256Y35052
X36195Y43307
X36195Y35687
X12700Y45339
X12700Y47879
X39370Y45212
X39370Y47752
X34798Y21590
X32258Y21590
X15875Y11557
X18415Y11557
X32893Y39624
X32893Y42164
T4
X40894Y21844
X46990Y24384
X45466Y17907
X42164Y19304
T5
X13970Y26670
X13970Y26670
X15240Y8890
X10160Y29210
X10160Y24130
X25400Y21590
X34290Y10160
X34290Y16510
X36830Y7620
X36830Y13970
X19050Y40640
X19558Y17780
X15875Y45593
X17145Y14986
X14986Y41656
X29337Y43815
X5080Y19050
X5080Y2540
X6350Y2540
X36576Y48768
X7620Y12700
X7620Y21590
M30